  0
SECTION
  2
HEADER
  9
$ACADVER
  1
AC1014
  9
$HANDSEED
  5
FFFF
  9
$MEASUREMENT
 70
     1
  0
ENDSEC
  0
SECTION
  2
TABLES
  0
TABLE
  2
VPORT
  5
8
330
0
100
AcDbSymbolTable
 70
     4
  0
VPORT
  5
2E
330
8
100
AcDbSymbolTableRecord
100
AcDbViewportTableRecord
  2
*ACTIVE
 70
     0
 10
0.0
 20
0.0
 11
1.0
 21
1.0
 12
210.0
 22
148.5
 13
0.0
 23
0.0
 14
10.0
 24
10.0
 15
10.0
 25
10.0
 16
0.0
 26
0.0
 36
1.0
 17
0.0
 27
0.0
 37
0.0
 40
341.0
 41
1.24
 42
50.0
 43
0.0
 44
0.0
 50
0.0
 51
0.0
 71
     0
 72
   100
 73
     1
 74
     3
 75
     0
 76
     0
 77
     0
 78
     0
  0
ENDTAB
  0
TABLE
  2
LTYPE
  5
5
330
0
100
AcDbSymbolTable
 70
     1
  0
LTYPE
  5
14
330
5
100
AcDbSymbolTableRecord
100
AcDbLinetypeTableRecord
  2
BYBLOCK
 70
     0
  3

 72
    65
 73
     0
 40
0.0
  0
LTYPE
  5
15
330
5
100
AcDbSymbolTableRecord
100
AcDbLinetypeTableRecord
  2
BYLAYER
 70
     0
  3

 72
    65
 73
     0
 40
0.0
  0
LTYPE
  5
16
330
5
100
AcDbSymbolTableRecord
100
AcDbLinetypeTableRecord
  2
CONTINUOUS
 70
     0
  3
Solid line
 72
    65
 73
     0
 40
0.0
  0
ENDTAB
  0
TABLE
  2
LAYER
  5
2
100
AcDbSymbolTable
 70
2
  0
LAYER
  5
50
100
AcDbSymbolTableRecord
100
AcDbLayerTableRecord
  2
0
 70
0
  6
CONTINUOUS
  0
LAYER
  5
51
100
AcDbSymbolTableRecord
100
AcDbLayerTableRecord
  2
Layer_1
 70
0
  6
CONTINUOUS
  0
ENDTAB
  0
TABLE
  2
STYLE
  5
3
330
0
100
AcDbSymbolTable
 70
     1
  0
STYLE
  5
11
330
3
100
AcDbSymbolTableRecord
100
AcDbTextStyleTableRecord
  2
STANDARD
 70
     0
 40
0.0
 41
1.0
 50
0.0
 71
     0
 42
2.5
  3
txt
  4

  0
ENDTAB
  0
TABLE
  2
VIEW
  5
6
330
0
100
AcDbSymbolTable
 70
     0
  0
ENDTAB
  0
TABLE
  2
UCS
  5
7
330
0
100
AcDbSymbolTable
 70
     0
  0
ENDTAB
  0
TABLE
  2
APPID
  5
9
330
0
100
AcDbSymbolTable
 70
     2
  0
APPID
  5
12
330
9
100
AcDbSymbolTableRecord
100
AcDbRegAppTableRecord
  2
ACAD
 70
     0
  0
ENDTAB
  0
TABLE
  2
DIMSTYLE
  5
A
330
0
100
AcDbSymbolTable
 70
     1
  0
DIMSTYLE
105
27
330
A
100
AcDbSymbolTableRecord
100
AcDbDimStyleTableRecord
  2
ISO-25
 70
     0
  3

  4

  5

  6

  7

 40
1.0
 41
2.5
 42
0.625
 43
3.75
 44
1.25
 45
0.0
 46
0.0
 47
0.0
 48
0.0
140
2.5
141
2.5
142
0.0
143
0.03937007874016
144
1.0
145
0.0
146
1.0
147
0.625
 71
     0
 72
     0
 73
     0
 74
     0
 75
     0
 76
     0
 77
     1
 78
     8
170
     0
171
     3
172
     1
173
     0
174
     0
175
     0
176
     0
177
     0
178
     0
270
     2
271
     2
272
     2
273
     2
274
     3
340
11
275
     0
280
     0
281
     0
282
     0
283
     0
284
     8
285
     0
286
     0
287
     3
288
     0
  0
ENDTAB
  0
TABLE
  2
BLOCK_RECORD
  5
1
330
0
100
AcDbSymbolTable
 70
     1
  0
BLOCK_RECORD
  5
1F
330
1
100
AcDbSymbolTableRecord
100
AcDbBlockTableRecord
  2
*MODEL_SPACE
  0
BLOCK_RECORD
  5
1B
330
1
100
AcDbSymbolTableRecord
100
AcDbBlockTableRecord
  2
*PAPER_SPACE
  0
ENDTAB
  0
ENDSEC
  0
SECTION
  2
BLOCKS
  0
BLOCK
  5
20
330
1F
100
AcDbEntity
  8
0
100
AcDbBlockBegin
  2
*MODEL_SPACE
 70
     0
 10
0.0
 20
0.0
 30
0.0
  3
*MODEL_SPACE
  1

  0
ENDBLK
  5
21
330
1F
100
AcDbEntity
  8
0
100
AcDbBlockEnd
  0
BLOCK
  5
1C
330
1B
100
AcDbEntity
 67
     1
  8
0
100
AcDbBlockBegin
  2
*PAPER_SPACE
  1

  0
ENDBLK
  5
1D
330
1B
100
AcDbEntity
 67
     1
  8
0
100
AcDbBlockEnd
  0
ENDSEC
  0
SECTION
  2
ENTITIES
  0
SPLINE
  5
100
100
AcDbEntity
  8
Layer_1
 62
7
100
AcDbSpline
 70
8
 71
3
 72
8
 73
4
 74
0
 40
0
 40
0
 40
0
 40
0
 40
1
 40
1
 40
1
 40
1
 10
121.459648
 20
79.425530
 30
0.0
 10
118.196227
 20
79.425530
 30
0.0
 10
115.568259
 20
77.203728
 30
0.0
 10
115.568259
 20
74.433725
 30
0.0
  0
SPLINE
  5
101
100
AcDbEntity
  8
Layer_1
 62
7
100
AcDbSpline
 70
8
 71
3
 72
8
 73
4
 74
0
 40
0
 40
0
 40
0
 40
0
 40
1
 40
1
 40
1
 40
1
 10
144.515113
 20
42.101568
 30
0.0
 10
144.515113
 20
39.331568
 30
0.0
 10
146.736919
 20
37.100943
 30
0.0
 10
149.506919
 20
37.100943
 30
0.0
  0
LWPOLYLINE
  5
102
100
AcDbEntity
  8
Layer_1
 62
7
100
AcDbPolyline
 90
25
 70
0
 10
115.568259
 20
74.433725
 30
0.0
 10
115.568259
 20
56.195114
 30
0.0
 10
115.568259
 20
44.429975
 30
0.0
 10
115.568259
 20
39.429350
 30
0.0
 10
118.566870
 20
39.429350
 30
0.0
 10
118.566870
 20
36.430739
 30
0.0
 10
128.568120
 20
36.430739
 30
0.0
 10
128.568120
 20
39.429350
 30
0.0
 10
129.097286
 20
39.429350
 30
0.0
 10
130.720064
 20
39.429350
 30
0.0
 10
135.297342
 20
39.429350
 30
0.0
 10
135.297342
 20
46.308517
 30
0.0
 10
138.295953
 20
46.308517
 30
0.0
 10
138.295953
 20
54.316572
 30
0.0
 10
135.297342
 20
54.316572
 30
0.0
 10
135.297342
 20
62.077683
 30
0.0
 10
123.893814
 20
62.077683
 30
0.0
 10
121.997620
 20
62.077683
 30
0.0
 10
121.997620
 20
74.433725
 30
0.0
 10
123.893814
 20
74.433725
 30
0.0
 10
135.297342
 20
74.433725
 30
0.0
 10
135.297342
 20
79.425530
 30
0.0
 10
122.200481
 20
79.425530
 30
0.0
 10
121.459648
 20
79.425530
 30
0.0
 10
121.459648
 20
79.425530
 30
0.0
  0
SPLINE
  5
103
100
AcDbEntity
  8
Layer_1
 62
7
100
AcDbSpline
 70
8
 71
3
 72
8
 73
4
 74
0
 40
0
 40
0
 40
0
 40
0
 40
1
 40
1
 40
1
 40
1
 10
149.506919
 20
73.287124
 30
0.0
 10
146.736919
 20
73.287124
 30
0.0
 10
144.515113
 20
71.056524
 30
0.0
 10
144.515113
 20
68.286485
 30
0.0
  0
LWPOLYLINE
  5
104
100
AcDbEntity
  8
Layer_1
 62
7
100
AcDbPolyline
 90
16
 70
0
 10
149.506919
 20
37.100943
 30
0.0
 10
167.745530
 20
37.100943
 30
0.0
 10
179.510669
 20
37.100943
 30
0.0
 10
184.511294
 20
37.100943
 30
0.0
 10
184.511294
 20
40.099554
 30
0.0
 10
187.509905
 20
40.099554
 30
0.0
 10
187.509905
 20
48.098790
 30
0.0
 10
184.511294
 20
48.098790
 30
0.0
 10
184.511294
 20
62.289262
 30
0.0
 10
187.509905
 20
62.289262
 30
0.0
 10
187.509905
 20
70.288513
 30
0.0
 10
184.511294
 20
70.288513
 30
0.0
 10
184.511294
 20
73.287124
 30
0.0
 10
179.510669
 20
73.287124
 30
0.0
 10
167.745530
 20
73.287124
 30
0.0
 10
149.506919
 20
73.287124
 30
0.0
  0
LWPOLYLINE
  5
105
100
AcDbEntity
  8
Layer_1
 62
7
100
AcDbPolyline
 90
3
 70
0
 10
144.515113
 20
68.286485
 30
0.0
 10
144.515113
 20
42.101568
 30
0.0
 10
144.515113
 20
42.101568
 30
0.0
  0
LWPOLYLINE
  5
106
100
AcDbEntity
  8
Layer_1
 62
7
100
AcDbPolyline
 90
5
 70
0
 10
177.628087
 20
53.694044
 30
0.0
 10
169.628087
 20
53.694044
 30
0.0
 10
169.628087
 20
56.694043
 30
0.0
 10
177.628087
 20
56.694043
 30
0.0
 10
177.628087
 20
53.694044
 30
0.0
  0
SPLINE
  5
107
100
AcDbEntity
  8
Layer_1
 62
7
100
AcDbSpline
 70
8
 71
3
 72
8
 73
4
 74
0
 40
0
 40
0
 40
0
 40
0
 40
1
 40
1
 40
1
 40
1
 10
155.681917
 20
41.194033
 30
0.0
 10
156.482731
 20
41.194033
 30
0.0
 10
157.131918
 20
40.544846
 30
0.0
 10
157.131918
 20
39.744033
 30
0.0
  0
SPLINE
  5
108
100
AcDbEntity
  8
Layer_1
 62
7
100
AcDbSpline
 70
8
 71
3
 72
8
 73
4
 74
0
 40
0
 40
0
 40
0
 40
0
 40
1
 40
1
 40
1
 40
1
 10
157.131918
 20
39.744033
 30
0.0
 10
157.131918
 20
38.943220
 30
0.0
 10
156.482731
 20
38.294033
 30
0.0
 10
155.681917
 20
38.294033
 30
0.0
  0
SPLINE
  5
109
100
AcDbEntity
  8
Layer_1
 62
7
100
AcDbSpline
 70
8
 71
3
 72
8
 73
4
 74
0
 40
0
 40
0
 40
0
 40
0
 40
1
 40
1
 40
1
 40
1
 10
155.681917
 20
38.294033
 30
0.0
 10
154.881106
 20
38.294033
 30
0.0
 10
154.231919
 20
38.943220
 30
0.0
 10
154.231919
 20
39.744033
 30
0.0
  0
SPLINE
  5
10a
100
AcDbEntity
  8
Layer_1
 62
7
100
AcDbSpline
 70
8
 71
3
 72
8
 73
4
 74
0
 40
0
 40
0
 40
0
 40
0
 40
1
 40
1
 40
1
 40
1
 10
154.231919
 20
39.744033
 30
0.0
 10
154.231919
 20
40.544846
 30
0.0
 10
154.881106
 20
41.194033
 30
0.0
 10
155.681917
 20
41.194033
 30
0.0
  0
LWPOLYLINE
  5
10b
100
AcDbEntity
  8
Layer_1
 62
7
100
AcDbPolyline
 90
5
 70
0
 10
149.506912
 20
43.594036
 30
0.0
 10
149.506912
 20
66.794036
 30
0.0
 10
161.856912
 20
66.794036
 30
0.0
 10
161.856912
 20
43.594036
 30
0.0
 10
149.506912
 20
43.594036
 30
0.0
  0
SPLINE
  5
10c
100
AcDbEntity
  8
Layer_1
 62
7
100
AcDbSpline
 70
8
 71
3
 72
8
 73
4
 74
0
 40
0
 40
0
 40
0
 40
0
 40
1
 40
1
 40
1
 40
1
 10
155.681917
 20
72.094028
 30
0.0
 10
156.482731
 20
72.094028
 30
0.0
 10
157.131918
 20
71.444841
 30
0.0
 10
157.131918
 20
70.644028
 30
0.0
  0
SPLINE
  5
10d
100
AcDbEntity
  8
Layer_1
 62
7
100
AcDbSpline
 70
8
 71
3
 72
8
 73
4
 74
0
 40
0
 40
0
 40
0
 40
0
 40
1
 40
1
 40
1
 40
1
 10
157.131918
 20
70.644028
 30
0.0
 10
157.131918
 20
69.843214
 30
0.0
 10
156.482731
 20
69.194027
 30
0.0
 10
155.681917
 20
69.194027
 30
0.0
  0
SPLINE
  5
10e
100
AcDbEntity
  8
Layer_1
 62
7
100
AcDbSpline
 70
8
 71
3
 72
8
 73
4
 74
0
 40
0
 40
0
 40
0
 40
0
 40
1
 40
1
 40
1
 40
1
 10
155.681917
 20
69.194027
 30
0.0
 10
154.881106
 20
69.194027
 30
0.0
 10
154.231919
 20
69.843214
 30
0.0
 10
154.231919
 20
70.644028
 30
0.0
  0
SPLINE
  5
10f
100
AcDbEntity
  8
Layer_1
 62
7
100
AcDbSpline
 70
8
 71
3
 72
8
 73
4
 74
0
 40
0
 40
0
 40
0
 40
0
 40
1
 40
1
 40
1
 40
1
 10
154.231919
 20
70.644028
 30
0.0
 10
154.231919
 20
71.444841
 30
0.0
 10
154.881106
 20
72.094028
 30
0.0
 10
155.681917
 20
72.094028
 30
0.0
  0
LWPOLYLINE
  5
110
100
AcDbEntity
  8
Layer_1
 62
7
100
AcDbPolyline
 90
2
 70
0
 10
155.681917
 20
41.194033
 30
0.0
 10
155.681917
 20
41.194033
 30
0.0
  0
SPLINE
  5
111
100
AcDbEntity
  8
Layer_1
 62
7
100
AcDbSpline
 70
8
 71
3
 72
8
 73
4
 74
0
 40
0
 40
0
 40
0
 40
0
 40
1
 40
1
 40
1
 40
1
 10
61.813871
 20
56.887404
 30
0.0
 10
61.813871
 20
57.688217
 30
0.0
 10
62.463056
 20
58.337404
 30
0.0
 10
63.263869
 20
58.337404
 30
0.0
  0
SPLINE
  5
112
100
AcDbEntity
  8
Layer_1
 62
7
100
AcDbSpline
 70
8
 71
3
 72
8
 73
4
 74
0
 40
0
 40
0
 40
0
 40
0
 40
1
 40
1
 40
1
 40
1
 10
63.263869
 20
58.337404
 30
0.0
 10
64.064682
 20
58.337404
 30
0.0
 10
64.713868
 20
57.688217
 30
0.0
 10
64.713868
 20
56.887404
 30
0.0
  0
SPLINE
  5
113
100
AcDbEntity
  8
Layer_1
 62
7
100
AcDbSpline
 70
8
 71
3
 72
8
 73
4
 74
0
 40
0
 40
0
 40
0
 40
0
 40
1
 40
1
 40
1
 40
1
 10
64.713868
 20
56.887404
 30
0.0
 10
64.713868
 20
56.086591
 30
0.0
 10
64.064682
 20
55.437404
 30
0.0
 10
63.263869
 20
55.437404
 30
0.0
  0
SPLINE
  5
114
100
AcDbEntity
  8
Layer_1
 62
7
100
AcDbSpline
 70
8
 71
3
 72
8
 73
4
 74
0
 40
0
 40
0
 40
0
 40
0
 40
1
 40
1
 40
1
 40
1
 10
63.263869
 20
55.437404
 30
0.0
 10
62.463056
 20
55.437404
 30
0.0
 10
61.813871
 20
56.086591
 30
0.0
 10
61.813871
 20
56.887404
 30
0.0
  0
LWPOLYLINE
  5
115
100
AcDbEntity
  8
Layer_1
 62
7
100
AcDbPolyline
 90
2
 70
0
 10
155.681917
 20
72.094028
 30
0.0
 10
155.681917
 20
72.094028
 30
0.0
  0
LWPOLYLINE
  5
116
100
AcDbEntity
  8
Layer_1
 62
7
100
AcDbPolyline
 90
2
 70
0
 10
61.813871
 20
56.887404
 30
0.0
 10
61.813871
 20
56.887404
 30
0.0
  0
LWPOLYLINE
  5
117
100
AcDbEntity
  8
Layer_1
 62
7
100
AcDbPolyline
 90
22
 70
0
 10
19.905469
 20
41.313909
 30
0.0
 10
22.904080
 20
41.313909
 30
0.0
 10
22.904080
 20
38.818006
 30
0.0
 10
103.672552
 20
38.818006
 30
0.0
 10
103.672552
 20
41.269811
 30
0.0
 10
106.671163
 20
41.269811
 30
0.0
 10
106.671163
 20
47.267034
 30
0.0
 10
103.672552
 20
47.267034
 30
0.0
 10
103.672552
 20
66.502242
 30
0.0
 10
106.671163
 20
66.502242
 30
0.0
 10
106.671163
 20
72.499464
 30
0.0
 10
103.672552
 20
72.499464
 30
0.0
 10
103.672552
 20
75.004186
 30
0.0
 10
22.904080
 20
75.004186
 30
0.0
 10
22.904080
 20
72.543561
 30
0.0
 10
19.905469
 20
72.543561
 30
0.0
 10
19.905469
 20
66.546339
 30
0.0
 10
22.904080
 20
66.546339
 30
0.0
 10
22.904080
 20
47.311131
 30
0.0
 10
19.905469
 20
47.311131
 30
0.0
 10
19.905469
 20
41.313909
 30
0.0
 10
19.905469
 20
41.313909
 30
0.0
  0
LWPOLYLINE
  5
118
100
AcDbEntity
  8
Layer_1
 62
7
100
AcDbPolyline
 90
5
 70
0
 10
43.989710
 20
72.005572
 30
0.0
 10
46.988317
 20
72.005572
 30
0.0
 10
46.988317
 20
64.006336
 30
0.0
 10
43.989710
 20
64.006336
 30
0.0
 10
43.989710
 20
72.005572
 30
0.0
  0
LWPOLYLINE
  5
119
100
AcDbEntity
  8
Layer_1
 62
7
100
AcDbPolyline
 90
5
 70
0
 10
43.989710
 20
49.815867
 30
0.0
 10
46.988317
 20
49.815867
 30
0.0
 10
46.988317
 20
41.816617
 30
0.0
 10
43.989710
 20
41.816617
 30
0.0
 10
43.989710
 20
49.815867
 30
0.0
  0
LWPOLYLINE
  5
11a
100
AcDbEntity
  8
Layer_1
 62
7
100
AcDbPolyline
 90
5
 70
0
 10
27.259224
 20
58.410397
 30
0.0
 10
37.260474
 20
58.410397
 30
0.0
 10
37.260474
 20
55.411786
 30
0.0
 10
27.259224
 20
55.411786
 30
0.0
 10
27.259224
 20
58.410397
 30
0.0
  0
LWPOLYLINE
  5
11b
100
AcDbEntity
  8
Layer_1
 62
7
100
AcDbPolyline
 90
2
 70
0
 10
50.243119
 20
207.099336
 30
0.0
 10
72.738293
 20
209.051797
 30
0.0
  0
LWPOLYLINE
  5
11c
100
AcDbEntity
  8
Layer_1
 62
7
100
AcDbPolyline
 90
2
 70
0
 10
12.347338
 20
169.727726
 30
0.0
 10
17.312079
 20
169.727726
 30
0.0
  0
LWPOLYLINE
  5
11d
100
AcDbEntity
  8
Layer_1
 62
7
100
AcDbPolyline
 90
2
 70
0
 10
12.347338
 20
172.727726
 30
0.0
 10
12.347338
 20
169.727726
 30
0.0
  0
LWPOLYLINE
  5
11e
100
AcDbEntity
  8
Layer_1
 62
7
100
AcDbPolyline
 90
2
 70
0
 10
7.337931
 20
172.727726
 30
0.0
 10
12.347338
 20
172.727726
 30
0.0
  0
LWPOLYLINE
  5
11f
100
AcDbEntity
  8
Layer_1
 62
7
100
AcDbPolyline
 90
2
 70
0
 10
72.738293
 20
219.051800
 30
0.0
 10
52.368681
 20
217.186040
 30
0.0
  0
LWPOLYLINE
  5
120
100
AcDbEntity
  8
Layer_1
 62
7
100
AcDbPolyline
 90
2
 70
0
 10
89.235935
 20
220.900646
 30
0.0
 10
72.738293
 20
219.051800
 30
0.0
  0
LWPOLYLINE
  5
121
100
AcDbEntity
  8
Layer_1
 62
7
100
AcDbPolyline
 90
2
 70
0
 10
102.399457
 20
222.732884
 30
0.0
 10
89.235935
 20
220.900646
 30
0.0
  0
LWPOLYLINE
  5
122
100
AcDbEntity
  8
Layer_1
 62
7
100
AcDbPolyline
 90
2
 70
0
 10
112.687207
 20
224.537370
 30
0.0
 10
102.399457
 20
222.732884
 30
0.0
  0
LWPOLYLINE
  5
123
100
AcDbEntity
  8
Layer_1
 62
7
100
AcDbPolyline
 90
2
 70
0
 10
120.564969
 20
226.298313
 30
0.0
 10
112.687207
 20
224.537370
 30
0.0
  0
LWPOLYLINE
  5
124
100
AcDbEntity
  8
Layer_1
 62
7
100
AcDbPolyline
 90
2
 70
0
 10
126.530337
 20
228.001922
 30
0.0
 10
120.564969
 20
226.298313
 30
0.0
  0
LWPOLYLINE
  5
125
100
AcDbEntity
  8
Layer_1
 62
7
100
AcDbPolyline
 90
2
 70
0
 10
131.149567
 20
229.660406
 30
0.0
 10
126.530337
 20
228.001922
 30
0.0
  0
LWPOLYLINE
  5
126
100
AcDbEntity
  8
Layer_1
 62
7
100
AcDbPolyline
 90
2
 70
0
 10
135.049822
 20
231.338358
 30
0.0
 10
131.149567
 20
229.660406
 30
0.0
  0
LWPOLYLINE
  5
127
100
AcDbEntity
  8
Layer_1
 62
7
100
AcDbPolyline
 90
2
 70
0
 10
138.737642
 20
233.094390
 30
0.0
 10
135.049822
 20
231.338358
 30
0.0
  0
LWPOLYLINE
  5
128
100
AcDbEntity
  8
Layer_1
 62
7
100
AcDbPolyline
 90
2
 70
0
 10
135.049822
 20
221.338359
 30
0.0
 10
138.737642
 20
223.094391
 30
0.0
  0
LWPOLYLINE
  5
129
100
AcDbEntity
  8
Layer_1
 62
7
100
AcDbPolyline
 90
2
 70
0
 10
131.149567
 20
219.660406
 30
0.0
 10
135.049822
 20
221.338359
 30
0.0
  0
LWPOLYLINE
  5
12a
100
AcDbEntity
  8
Layer_1
 62
7
100
AcDbPolyline
 90
2
 70
0
 10
126.530337
 20
218.001922
 30
0.0
 10
131.149567
 20
219.660406
 30
0.0
  0
LWPOLYLINE
  5
12b
100
AcDbEntity
  8
Layer_1
 62
7
100
AcDbPolyline
 90
2
 70
0
 10
120.564969
 20
216.298313
 30
0.0
 10
126.530337
 20
218.001922
 30
0.0
  0
LWPOLYLINE
  5
12c
100
AcDbEntity
  8
Layer_1
 62
7
100
AcDbPolyline
 90
2
 70
0
 10
113.280814
 20
214.670063
 30
0.0
 10
120.564969
 20
216.298313
 30
0.0
  0
LWPOLYLINE
  5
12d
100
AcDbEntity
  8
Layer_1
 62
7
100
AcDbPolyline
 90
2
 70
0
 10
113.280814
 20
219.379722
 30
0.0
 10
113.280814
 20
214.670063
 30
0.0
  0
LWPOLYLINE
  5
12e
100
AcDbEntity
  8
Layer_1
 62
7
100
AcDbPolyline
 90
2
 70
0
 10
110.280814
 20
219.379722
 30
0.0
 10
113.280814
 20
219.379722
 30
0.0
  0
LWPOLYLINE
  5
12f
100
AcDbEntity
  8
Layer_1
 62
7
100
AcDbPolyline
 90
2
 70
0
 10
110.280814
 20
214.115285
 30
0.0
 10
110.280814
 20
219.379722
 30
0.0
  0
LWPOLYLINE
  5
130
100
AcDbEntity
  8
Layer_1
 62
7
100
AcDbPolyline
 90
2
 70
0
 10
102.399457
 20
212.732884
 30
0.0
 10
110.280814
 20
214.115285
 30
0.0
  0
LWPOLYLINE
  5
131
100
AcDbEntity
  8
Layer_1
 62
7
100
AcDbPolyline
 90
2
 70
0
 10
89.235935
 20
210.900646
 30
0.0
 10
102.399457
 20
212.732884
 30
0.0
  0
SPLINE
  5
132
100
AcDbEntity
  8
Layer_1
 62
7
100
AcDbSpline
 70
8
 71
3
 72
8
 73
4
 74
0
 40
0
 40
0
 40
0
 40
0
 40
1
 40
1
 40
1
 40
1
 10
52.368681
 20
217.186040
 30
0.0
 10
40.479027
 20
217.338156
 30
0.0
 10
29.023837
 20
212.721525
 30
0.0
 10
20.562283
 20
204.367536
 30
0.0
  0
SPLINE
  5
133
100
AcDbEntity
  8
Layer_1
 62
7
100
AcDbSpline
 70
8
 71
3
 72
8
 73
4
 74
0
 40
0
 40
0
 40
0
 40
0
 40
1
 40
1
 40
1
 40
1
 10
20.562283
 20
204.367536
 30
0.0
 10
12.100730
 20
196.013546
 30
0.0
 10
7.337931
 20
184.618354
 30
0.0
 10
7.337931
 20
172.727726
 30
0.0
  0
SPLINE
  5
134
100
AcDbEntity
  8
Layer_1
 62
7
100
AcDbSpline
 70
8
 71
3
 72
8
 73
4
 74
0
 40
0
 40
0
 40
0
 40
0
 40
1
 40
1
 40
1
 40
1
 10
50.243119
 20
207.099336
 30
0.0
 10
31.421439
 20
204.712122
 30
0.0
 10
17.312079
 20
188.700192
 30
0.0
 10
17.312079
 20
169.727727
 30
0.0
  0
LWPOLYLINE
  5
135
100
AcDbEntity
  8
Layer_1
 62
7
100
AcDbPolyline
 90
2
 70
0
 10
72.738293
 20
209.051797
 30
0.0
 10
89.235935
 20
210.900646
 30
0.0
  0
SPLINE
  5
136
100
AcDbEntity
  8
Layer_1
 62
7
100
AcDbSpline
 70
8
 71
3
 72
8
 73
4
 74
0
 40
0
 40
0
 40
0
 40
0
 40
1
 40
1
 40
1
 40
1
 10
142.340609
 20
224.866379
 30
0.0
 10
142.394969
 20
224.893114
 30
0.0
 10
142.449531
 20
224.919437
 30
0.0
 10
142.504290
 20
224.945345
 30
0.0
  0
LWPOLYLINE
  5
137
100
AcDbEntity
  8
Layer_1
 62
7
100
AcDbPolyline
 90
2
 70
0
 10
138.737642
 20
223.094391
 30
0.0
 10
142.340609
 20
224.866379
 30
0.0
  0
SPLINE
  5
138
100
AcDbEntity
  8
Layer_1
 62
7
100
AcDbSpline
 70
8
 71
3
 72
8
 73
4
 74
0
 40
0
 40
0
 40
0
 40
0
 40
1
 40
1
 40
1
 40
1
 10
146.020796
 20
226.609158
 30
0.0
 10
146.182784
 20
226.685802
 30
0.0
 10
146.346469
 20
226.758807
 30
0.0
 10
146.511727
 20
226.828120
 30
0.0
  0
SPLINE
  5
139
100
AcDbEntity
  8
Layer_1
 62
7
100
AcDbSpline
 70
8
 71
3
 72
8
 73
4
 74
0
 40
0
 40
0
 40
0
 40
0
 40
1
 40
1
 40
1
 40
1
 10
146.511727
 20
226.828120
 30
0.0
 10
146.511727
 20
226.828120
 30
0.0
 10
150.013464
 20
228.296810
 30
0.0
 10
150.013464
 20
228.296810
 30
0.0
  0
SPLINE
  5
13a
100
AcDbEntity
  8
Layer_1
 62
7
100
AcDbSpline
 70
8
 71
3
 72
8
 73
4
 74
0
 40
0
 40
0
 40
0
 40
0
 40
1
 40
1
 40
1
 40
1
 10
150.013464
 20
228.296810
 30
0.0
 10
150.277080
 20
228.407377
 30
0.0
 10
150.544563
 20
228.508488
 30
0.0
 10
150.815401
 20
228.599951
 30
0.0
  0
LWPOLYLINE
  5
13b
100
AcDbEntity
  8
Layer_1
 62
7
100
AcDbPolyline
 90
2
 70
0
 10
142.504290
 20
224.945345
 30
0.0
 10
146.020796
 20
226.609158
 30
0.0
  0
SPLINE
  5
13c
100
AcDbEntity
  8
Layer_1
 62
7
100
AcDbSpline
 70
8
 71
3
 72
8
 73
4
 74
0
 40
0
 40
0
 40
0
 40
0
 40
1
 40
1
 40
1
 40
1
 10
154.450553
 20
229.827538
 30
0.0
 10
154.791943
 20
229.942825
 30
0.0
 10
155.138352
 20
230.042677
 30
0.0
 10
155.488727
 20
230.126790
 30
0.0
  0
LWPOLYLINE
  5
13d
100
AcDbEntity
  8
Layer_1
 62
7
100
AcDbPolyline
 90
2
 70
0
 10
150.815401
 20
228.599951
 30
0.0
 10
154.450553
 20
229.827538
 30
0.0
  0
SPLINE
  5
13e
100
AcDbEntity
  8
Layer_1
 62
7
100
AcDbSpline
 70
8
 71
3
 72
8
 73
4
 74
0
 40
0
 40
0
 40
0
 40
0
 40
1
 40
1
 40
1
 40
1
 10
159.414695
 20
231.069279
 30
0.0
 10
159.794339
 20
231.160419
 30
0.0
 10
160.178205
 20
231.232976
 30
0.0
 10
160.564923
 20
231.286692
 30
0.0
  0
SPLINE
  5
13f
100
AcDbEntity
  8
Layer_1
 62
7
100
AcDbSpline
 70
8
 71
3
 72
8
 73
4
 74
0
 40
0
 40
0
 40
0
 40
0
 40
1
 40
1
 40
1
 40
1
 10
160.564923
 20
231.286692
 30
0.0
 10
160.564923
 20
231.286692
 30
0.0
 10
165.038069
 20
231.908021
 30
0.0
 10
165.038069
 20
231.908021
 30
0.0
  0
SPLINE
  5
140
100
AcDbEntity
  8
Layer_1
 62
7
100
AcDbSpline
 70
8
 71
3
 72
8
 73
4
 74
0
 40
0
 40
0
 40
0
 40
0
 40
1
 40
1
 40
1
 40
1
 10
165.038069
 20
231.908021
 30
0.0
 10
165.348816
 20
231.965023
 30
0.0
 10
165.664096
 20
231.993701
 30
0.0
 10
165.980028
 20
231.993701
 30
0.0
  0
LWPOLYLINE
  5
141
100
AcDbEntity
  8
Layer_1
 62
7
100
AcDbPolyline
 90
2
 70
0
 10
155.488727
 20
230.126790
 30
0.0
 10
159.414695
 20
231.069279
 30
0.0
  0
SPLINE
  5
142
100
AcDbEntity
  8
Layer_1
 62
7
100
AcDbSpline
 70
8
 71
3
 72
8
 73
4
 74
0
 40
0
 40
0
 40
0
 40
0
 40
1
 40
1
 40
1
 40
1
 10
171.790888
 20
232.231922
 30
0.0
 10
174.464122
 20
232.455665
 30
0.0
 10
176.485459
 20
234.747471
 30
0.0
 10
176.373494
 20
237.427714
 30
0.0
  0
SPLINE
  5
143
100
AcDbEntity
  8
Layer_1
 62
7
100
AcDbSpline
 70
8
 71
3
 72
8
 73
4
 74
0
 40
0
 40
0
 40
0
 40
0
 40
1
 40
1
 40
1
 40
1
 10
176.373494
 20
237.427714
 30
0.0
 10
176.261530
 20
240.107958
 30
0.0
 10
174.056093
 20
242.223195
 30
0.0
 10
171.373512
 20
242.223204
 30
0.0
  0
SPLINE
  5
144
100
AcDbEntity
  8
Layer_1
 62
7
100
AcDbSpline
 70
8
 71
3
 72
8
 73
4
 74
0
 40
0
 40
0
 40
0
 40
0
 40
1
 40
1
 40
1
 40
1
 10
171.373512
 20
242.223204
 30
0.0
 10
171.373512
 20
242.223204
 30
0.0
 10
166.084182
 20
241.998132
 30
0.0
 10
166.084182
 20
241.998132
 30
0.0
  0
SPLINE
  5
145
100
AcDbEntity
  8
Layer_1
 62
7
100
AcDbSpline
 70
8
 71
3
 72
8
 73
4
 74
0
 40
0
 40
0
 40
0
 40
0
 40
1
 40
1
 40
1
 40
1
 10
166.084182
 20
241.998132
 30
0.0
 10
165.702486
 20
241.981890
 30
0.0
 10
165.321784
 20
241.947430
 30
0.0
 10
164.943375
 20
241.894869
 30
0.0
  0
SPLINE
  5
146
100
AcDbEntity
  8
Layer_1
 62
7
100
AcDbSpline
 70
8
 71
3
 72
8
 73
4
 74
0
 40
0
 40
0
 40
0
 40
0
 40
1
 40
1
 40
1
 40
1
 10
164.943375
 20
241.894869
 30
0.0
 10
164.943375
 20
241.894869
 30
0.0
 10
160.564923
 20
241.286692
 30
0.0
 10
160.564923
 20
241.286692
 30
0.0
  0
SPLINE
  5
147
100
AcDbEntity
  8
Layer_1
 62
7
100
AcDbSpline
 70
8
 71
3
 72
8
 73
4
 74
0
 40
0
 40
0
 40
0
 40
0
 40
1
 40
1
 40
1
 40
1
 10
160.564923
 20
241.286692
 30
0.0
 10
160.178205
 20
241.232976
 30
0.0
 10
159.794339
 20
241.160419
 30
0.0
 10
159.414695
 20
241.069279
 30
0.0
  0
LWPOLYLINE
  5
148
100
AcDbEntity
  8
Layer_1
 62
7
100
AcDbPolyline
 90
2
 70
0
 10
165.980028
 20
231.993701
 30
0.0
 10
171.790888
 20
232.231922
 30
0.0
  0
SPLINE
  5
149
100
AcDbEntity
  8
Layer_1
 62
7
100
AcDbSpline
 70
8
 71
3
 72
8
 73
4
 74
0
 40
0
 40
0
 40
0
 40
0
 40
1
 40
1
 40
1
 40
1
 10
155.488727
 20
240.126790
 30
0.0
 10
155.138352
 20
240.042677
 30
0.0
 10
154.791943
 20
239.942825
 30
0.0
 10
154.450553
 20
239.827538
 30
0.0
  0
SPLINE
  5
14a
100
AcDbEntity
  8
Layer_1
 62
7
100
AcDbSpline
 70
8
 71
3
 72
8
 73
4
 74
0
 40
0
 40
0
 40
0
 40
0
 40
1
 40
1
 40
1
 40
1
 10
154.450553
 20
239.827538
 30
0.0
 10
154.450553
 20
239.827538
 30
0.0
 10
150.815401
 20
238.599950
 30
0.0
 10
150.815401
 20
238.599950
 30
0.0
  0
SPLINE
  5
14b
100
AcDbEntity
  8
Layer_1
 62
7
100
AcDbSpline
 70
8
 71
3
 72
8
 73
4
 74
0
 40
0
 40
0
 40
0
 40
0
 40
1
 40
1
 40
1
 40
1
 10
150.815401
 20
238.599950
 30
0.0
 10
150.544563
 20
238.508489
 30
0.0
 10
150.277080
 20
238.407378
 30
0.0
 10
150.013464
 20
238.296813
 30
0.0
  0
LWPOLYLINE
  5
14c
100
AcDbEntity
  8
Layer_1
 62
7
100
AcDbPolyline
 90
2
 70
0
 10
159.414695
 20
241.069279
 30
0.0
 10
155.488727
 20
240.126790
 30
0.0
  0
SPLINE
  5
14d
100
AcDbEntity
  8
Layer_1
 62
7
100
AcDbSpline
 70
8
 71
3
 72
8
 73
4
 74
0
 40
0
 40
0
 40
0
 40
0
 40
1
 40
1
 40
1
 40
1
 10
146.511727
 20
236.828120
 30
0.0
 10
146.346469
 20
236.758807
 30
0.0
 10
146.182784
 20
236.685802
 30
0.0
 10
146.020796
 20
236.609158
 30
0.0
  0
LWPOLYLINE
  5
14e
100
AcDbEntity
  8
Layer_1
 62
7
100
AcDbPolyline
 90
2
 70
0
 10
150.013464
 20
238.296813
 30
0.0
 10
146.511727
 20
236.828120
 30
0.0
  0
SPLINE
  5
14f
100
AcDbEntity
  8
Layer_1
 62
7
100
AcDbSpline
 70
8
 71
3
 72
8
 73
4
 74
0
 40
0
 40
0
 40
0
 40
0
 40
1
 40
1
 40
1
 40
1
 10
142.504290
 20
234.945345
 30
0.0
 10
142.449531
 20
234.919436
 30
0.0
 10
142.394969
 20
234.893114
 30
0.0
 10
142.340609
 20
234.866379
 30
0.0
  0
LWPOLYLINE
  5
150
100
AcDbEntity
  8
Layer_1
 62
7
100
AcDbPolyline
 90
2
 70
0
 10
146.020796
 20
236.609158
 30
0.0
 10
142.504290
 20
234.945345
 30
0.0
  0
SPLINE
  5
151
100
AcDbEntity
  8
Layer_1
 62
7
100
AcDbSpline
 70
8
 71
3
 72
8
 73
4
 74
0
 40
0
 40
0
 40
0
 40
0
 40
1
 40
1
 40
1
 40
1
 10
80.726988
 20
214.823746
 30
0.0
 10
80.726988
 20
214.022933
 30
0.0
 10
80.077801
 20
213.373746
 30
0.0
 10
79.276988
 20
213.373746
 30
0.0
  0
SPLINE
  5
152
100
AcDbEntity
  8
Layer_1
 62
7
100
AcDbSpline
 70
8
 71
3
 72
8
 73
4
 74
0
 40
0
 40
0
 40
0
 40
0
 40
1
 40
1
 40
1
 40
1
 10
79.276988
 20
213.373746
 30
0.0
 10
78.476175
 20
213.373746
 30
0.0
 10
77.826988
 20
214.022933
 30
0.0
 10
77.826988
 20
214.823746
 30
0.0
  0
SPLINE
  5
153
100
AcDbEntity
  8
Layer_1
 62
7
100
AcDbSpline
 70
8
 71
3
 72
8
 73
4
 74
0
 40
0
 40
0
 40
0
 40
0
 40
1
 40
1
 40
1
 40
1
 10
77.826988
 20
214.823746
 30
0.0
 10
77.826988
 20
215.624559
 30
0.0
 10
78.476175
 20
216.273747
 30
0.0
 10
79.276988
 20
216.273747
 30
0.0
  0
SPLINE
  5
154
100
AcDbEntity
  8
Layer_1
 62
7
100
AcDbSpline
 70
8
 71
3
 72
8
 73
4
 74
0
 40
0
 40
0
 40
0
 40
0
 40
1
 40
1
 40
1
 40
1
 10
79.276988
 20
216.273747
 30
0.0
 10
80.077801
 20
216.273747
 30
0.0
 10
80.726988
 20
215.624559
 30
0.0
 10
80.726988
 20
214.823746
 30
0.0
  0
LWPOLYLINE
  5
155
100
AcDbEntity
  8
Layer_1
 62
7
100
AcDbPolyline
 90
2
 70
0
 10
142.340609
 20
234.866379
 30
0.0
 10
138.737642
 20
233.094390
 30
0.0
  0
SPLINE
  5
156
100
AcDbEntity
  8
Layer_1
 62
7
100
AcDbSpline
 70
8
 71
3
 72
8
 73
4
 74
0
 40
0
 40
0
 40
0
 40
0
 40
1
 40
1
 40
1
 40
1
 10
207.569085
 20
150.054132
 30
0.0
 10
201.171234
 20
150.054132
 30
0.0
 10
195.825497
 20
143.901120
 30
0.0
 10
195.221863
 20
139.003368
 30
0.0
  0
SPLINE
  5
157
100
AcDbEntity
  8
Layer_1
 62
7
100
AcDbSpline
 70
8
 71
3
 72
8
 73
4
 74
0
 40
0
 40
0
 40
0
 40
0
 40
1
 40
1
 40
1
 40
1
 10
195.221863
 20
139.003368
 30
0.0
 10
194.618229
 20
134.105616
 30
0.0
 10
194.034190
 20
132.794386
 30
0.0
 10
196.015613
 20
133.059063
 30
0.0
  0
SPLINE
  5
158
100
AcDbEntity
  8
Layer_1
 62
7
100
AcDbSpline
 70
8
 71
3
 72
8
 73
4
 74
0
 40
0
 40
0
 40
0
 40
0
 40
1
 40
1
 40
1
 40
1
 10
196.015613
 20
133.059063
 30
0.0
 10
219.916307
 20
136.251702
 30
0.0
 10
219.916307
 20
136.251702
 30
0.0
 10
219.916307
 20
136.251702
 30
0.0
  0
LWPOLYLINE
  5
159
100
AcDbEntity
  8
Layer_1
 62
7
100
AcDbPolyline
 90
2
 70
0
 10
80.726988
 20
214.823746
 30
0.0
 10
80.726988
 20
214.823746
 30
0.0
  0
SPLINE
  5
15a
100
AcDbEntity
  8
Layer_1
 62
7
100
AcDbSpline
 70
8
 71
3
 72
8
 73
4
 74
0
 40
0
 40
0
 40
0
 40
0
 40
1
 40
1
 40
1
 40
1
 10
235.173946
 20
138.288993
 30
0.0
 10
236.821300
 20
138.509146
 30
0.0
 10
237.978196
 20
140.010667
 30
0.0
 10
237.758043
 20
141.658021
 30
0.0
  0
SPLINE
  5
15b
100
AcDbEntity
  8
Layer_1
 62
7
100
AcDbSpline
 70
8
 71
3
 72
8
 73
4
 74
0
 40
0
 40
0
 40
0
 40
0
 40
1
 40
1
 40
1
 40
1
 10
237.758043
 20
141.658021
 30
0.0
 10
237.537890
 20
143.305375
 30
0.0
 10
236.027550
 20
144.453452
 30
0.0
 10
234.380196
 20
144.233299
 30
0.0
  0
LWPOLYLINE
  5
15c
100
AcDbEntity
  8
Layer_1
 62
7
100
AcDbPolyline
 90
2
 70
0
 10
219.916307
 20
136.251702
 30
0.0
 10
235.173946
 20
138.288993
 30
0.0
  0
SPLINE
  5
15d
100
AcDbEntity
  8
Layer_1
 62
7
100
AcDbSpline
 70
8
 71
3
 72
8
 73
4
 74
0
 40
0
 40
0
 40
0
 40
0
 40
1
 40
1
 40
1
 40
1
 10
219.131377
 20
142.196007
 30
0.0
 10
217.309646
 20
146.796181
 30
0.0
 10
212.817470
 20
150.054132
 30
0.0
 10
207.569085
 20
150.054132
 30
0.0
  0
LWPOLYLINE
  5
15e
100
AcDbEntity
  8
Layer_1
 62
7
100
AcDbPolyline
 90
2
 70
0
 10
234.380196
 20
144.233299
 30
0.0
 10
219.131377
 20
142.196007
 30
0.0
  0
SPLINE
  5
15f
100
AcDbEntity
  8
Layer_1
 62
7
100
AcDbSpline
 70
8
 71
3
 72
8
 73
4
 74
0
 40
0
 40
0
 40
0
 40
0
 40
1
 40
1
 40
1
 40
1
 10
209.010061
 20
137.817182
 30
0.0
 10
209.116139
 20
137.023424
 30
0.0
 10
208.558664
 20
136.293969
 30
0.0
 10
207.764908
 20
136.187891
 30
0.0
  0
SPLINE
  5
160
100
AcDbEntity
  8
Layer_1
 62
7
100
AcDbSpline
 70
8
 71
3
 72
8
 73
4
 74
0
 40
0
 40
0
 40
0
 40
0
 40
1
 40
1
 40
1
 40
1
 10
207.764908
 20
136.187891
 30
0.0
 10
206.971152
 20
136.081814
 30
0.0
 10
206.241693
 20
136.639284
 30
0.0
 10
206.135616
 20
137.433042
 30
0.0
  0
SPLINE
  5
161
100
AcDbEntity
  8
Layer_1
 62
7
100
AcDbSpline
 70
8
 71
3
 72
8
 73
4
 74
0
 40
0
 40
0
 40
0
 40
0
 40
1
 40
1
 40
1
 40
1
 10
206.135616
 20
137.433042
 30
0.0
 10
206.029538
 20
138.226800
 30
0.0
 10
206.587012
 20
138.956256
 30
0.0
 10
207.380769
 20
139.062333
 30
0.0
  0
SPLINE
  5
162
100
AcDbEntity
  8
Layer_1
 62
7
100
AcDbSpline
 70
8
 71
3
 72
8
 73
4
 74
0
 40
0
 40
0
 40
0
 40
0
 40
1
 40
1
 40
1
 40
1
 10
207.380769
 20
139.062333
 30
0.0
 10
208.174525
 20
139.168410
 30
0.0
 10
208.903984
 20
138.610940
 30
0.0
 10
209.010061
 20
137.817182
 30
0.0
  0
LWPOLYLINE
  5
163
100
AcDbEntity
  8
Layer_1
 62
7
100
AcDbPolyline
 90
2
 70
0
 10
207.569085
 20
150.054132
 30
0.0
 10
207.569085
 20
150.054132
 30
0.0
  0
SPLINE
  5
164
100
AcDbEntity
  8
Layer_1
 62
7
100
AcDbSpline
 70
8
 71
3
 72
8
 73
4
 74
0
 40
0
 40
0
 40
0
 40
0
 40
1
 40
1
 40
1
 40
1
 10
212.517384
 20
146.933093
 30
0.0
 10
212.517384
 20
146.132280
 30
0.0
 10
211.868196
 20
145.483093
 30
0.0
 10
211.067384
 20
145.483093
 30
0.0
  0
SPLINE
  5
165
100
AcDbEntity
  8
Layer_1
 62
7
100
AcDbSpline
 70
8
 71
3
 72
8
 73
4
 74
0
 40
0
 40
0
 40
0
 40
0
 40
1
 40
1
 40
1
 40
1
 10
211.067384
 20
145.483093
 30
0.0
 10
210.266571
 20
145.483093
 30
0.0
 10
209.617384
 20
146.132280
 30
0.0
 10
209.617384
 20
146.933093
 30
0.0
  0
SPLINE
  5
166
100
AcDbEntity
  8
Layer_1
 62
7
100
AcDbSpline
 70
8
 71
3
 72
8
 73
4
 74
0
 40
0
 40
0
 40
0
 40
0
 40
1
 40
1
 40
1
 40
1
 10
209.617384
 20
146.933093
 30
0.0
 10
209.617384
 20
147.733907
 30
0.0
 10
210.266571
 20
148.383093
 30
0.0
 10
211.067384
 20
148.383093
 30
0.0
  0
SPLINE
  5
167
100
AcDbEntity
  8
Layer_1
 62
7
100
AcDbSpline
 70
8
 71
3
 72
8
 73
4
 74
0
 40
0
 40
0
 40
0
 40
0
 40
1
 40
1
 40
1
 40
1
 10
211.067384
 20
148.383093
 30
0.0
 10
211.868196
 20
148.383093
 30
0.0
 10
212.517384
 20
147.733907
 30
0.0
 10
212.517384
 20
146.933093
 30
0.0
  0
LWPOLYLINE
  5
168
100
AcDbEntity
  8
Layer_1
 62
7
100
AcDbPolyline
 90
2
 70
0
 10
209.010061
 20
137.817182
 30
0.0
 10
209.010061
 20
137.817182
 30
0.0
  0
SPLINE
  5
169
100
AcDbEntity
  8
Layer_1
 62
7
100
AcDbSpline
 70
8
 71
3
 72
8
 73
4
 74
0
 40
0
 40
0
 40
0
 40
0
 40
1
 40
1
 40
1
 40
1
 10
209.022835
 20
147.719915
 30
0.0
 10
209.022835
 20
146.919101
 30
0.0
 10
208.373647
 20
146.269915
 30
0.0
 10
207.572835
 20
146.269915
 30
0.0
  0
SPLINE
  5
16a
100
AcDbEntity
  8
Layer_1
 62
7
100
AcDbSpline
 70
8
 71
3
 72
8
 73
4
 74
0
 40
0
 40
0
 40
0
 40
0
 40
1
 40
1
 40
1
 40
1
 10
207.572835
 20
146.269915
 30
0.0
 10
206.772022
 20
146.269915
 30
0.0
 10
206.122835
 20
146.919101
 30
0.0
 10
206.122835
 20
147.719915
 30
0.0
  0
SPLINE
  5
16b
100
AcDbEntity
  8
Layer_1
 62
7
100
AcDbSpline
 70
8
 71
3
 72
8
 73
4
 74
0
 40
0
 40
0
 40
0
 40
0
 40
1
 40
1
 40
1
 40
1
 10
206.122835
 20
147.719915
 30
0.0
 10
206.122835
 20
148.520728
 30
0.0
 10
206.772022
 20
149.169915
 30
0.0
 10
207.572835
 20
149.169915
 30
0.0
  0
SPLINE
  5
16c
100
AcDbEntity
  8
Layer_1
 62
7
100
AcDbSpline
 70
8
 71
3
 72
8
 73
4
 74
0
 40
0
 40
0
 40
0
 40
0
 40
1
 40
1
 40
1
 40
1
 10
207.572835
 20
149.169915
 30
0.0
 10
208.373647
 20
149.169915
 30
0.0
 10
209.022835
 20
148.520728
 30
0.0
 10
209.022835
 20
147.719915
 30
0.0
  0
LWPOLYLINE
  5
16d
100
AcDbEntity
  8
Layer_1
 62
7
100
AcDbPolyline
 90
2
 70
0
 10
212.517384
 20
146.933093
 30
0.0
 10
212.517384
 20
146.933093
 30
0.0
  0
SPLINE
  5
16e
100
AcDbEntity
  8
Layer_1
 62
7
100
AcDbSpline
 70
8
 71
3
 72
8
 73
4
 74
0
 40
0
 40
0
 40
0
 40
0
 40
1
 40
1
 40
1
 40
1
 10
205.484136
 20
146.916391
 30
0.0
 10
205.484136
 20
146.115578
 30
0.0
 10
204.834948
 20
145.466392
 30
0.0
 10
204.034136
 20
145.466392
 30
0.0
  0
SPLINE
  5
16f
100
AcDbEntity
  8
Layer_1
 62
7
100
AcDbSpline
 70
8
 71
3
 72
8
 73
4
 74
0
 40
0
 40
0
 40
0
 40
0
 40
1
 40
1
 40
1
 40
1
 10
204.034136
 20
145.466392
 30
0.0
 10
203.233322
 20
145.466392
 30
0.0
 10
202.584136
 20
146.115578
 30
0.0
 10
202.584136
 20
146.916391
 30
0.0
  0
SPLINE
  5
170
100
AcDbEntity
  8
Layer_1
 62
7
100
AcDbSpline
 70
8
 71
3
 72
8
 73
4
 74
0
 40
0
 40
0
 40
0
 40
0
 40
1
 40
1
 40
1
 40
1
 10
202.584136
 20
146.916391
 30
0.0
 10
202.584136
 20
147.717205
 30
0.0
 10
203.233322
 20
148.366391
 30
0.0
 10
204.034136
 20
148.366391
 30
0.0
  0
SPLINE
  5
171
100
AcDbEntity
  8
Layer_1
 62
7
100
AcDbSpline
 70
8
 71
3
 72
8
 73
4
 74
0
 40
0
 40
0
 40
0
 40
0
 40
1
 40
1
 40
1
 40
1
 10
204.034136
 20
148.366391
 30
0.0
 10
204.834948
 20
148.366391
 30
0.0
 10
205.484136
 20
147.717205
 30
0.0
 10
205.484136
 20
146.916391
 30
0.0
  0
LWPOLYLINE
  5
172
100
AcDbEntity
  8
Layer_1
 62
7
100
AcDbPolyline
 90
2
 70
0
 10
209.022835
 20
147.719915
 30
0.0
 10
209.022835
 20
147.719915
 30
0.0
  0
SPLINE
  5
173
100
AcDbEntity
  8
Layer_1
 62
7
100
AcDbSpline
 70
8
 71
3
 72
8
 73
4
 74
0
 40
0
 40
0
 40
0
 40
0
 40
1
 40
1
 40
1
 40
1
 10
202.484136
 20
145.200294
 30
0.0
 10
202.484136
 20
144.399480
 30
0.0
 10
201.834948
 20
143.750294
 30
0.0
 10
201.034136
 20
143.750294
 30
0.0
  0
SPLINE
  5
174
100
AcDbEntity
  8
Layer_1
 62
7
100
AcDbSpline
 70
8
 71
3
 72
8
 73
4
 74
0
 40
0
 40
0
 40
0
 40
0
 40
1
 40
1
 40
1
 40
1
 10
201.034136
 20
143.750294
 30
0.0
 10
200.233323
 20
143.750294
 30
0.0
 10
199.584136
 20
144.399480
 30
0.0
 10
199.584136
 20
145.200294
 30
0.0
  0
SPLINE
  5
175
100
AcDbEntity
  8
Layer_1
 62
7
100
AcDbSpline
 70
8
 71
3
 72
8
 73
4
 74
0
 40
0
 40
0
 40
0
 40
0
 40
1
 40
1
 40
1
 40
1
 10
199.584136
 20
145.200294
 30
0.0
 10
199.584136
 20
146.001108
 30
0.0
 10
200.233323
 20
146.650294
 30
0.0
 10
201.034136
 20
146.650294
 30
0.0
  0
SPLINE
  5
176
100
AcDbEntity
  8
Layer_1
 62
7
100
AcDbSpline
 70
8
 71
3
 72
8
 73
4
 74
0
 40
0
 40
0
 40
0
 40
0
 40
1
 40
1
 40
1
 40
1
 10
201.034136
 20
146.650294
 30
0.0
 10
201.834948
 20
146.650294
 30
0.0
 10
202.484136
 20
146.001108
 30
0.0
 10
202.484136
 20
145.200294
 30
0.0
  0
LWPOLYLINE
  5
177
100
AcDbEntity
  8
Layer_1
 62
7
100
AcDbPolyline
 90
2
 70
0
 10
205.484136
 20
146.916391
 30
0.0
 10
205.484136
 20
146.916391
 30
0.0
  0
SPLINE
  5
178
100
AcDbEntity
  8
Layer_1
 62
7
100
AcDbSpline
 70
8
 71
3
 72
8
 73
4
 74
0
 40
0
 40
0
 40
0
 40
0
 40
1
 40
1
 40
1
 40
1
 10
200.181544
 20
142.404482
 30
0.0
 10
200.181544
 20
141.603669
 30
0.0
 10
199.532356
 20
140.954482
 30
0.0
 10
198.731544
 20
140.954482
 30
0.0
  0
SPLINE
  5
179
100
AcDbEntity
  8
Layer_1
 62
7
100
AcDbSpline
 70
8
 71
3
 72
8
 73
4
 74
0
 40
0
 40
0
 40
0
 40
0
 40
1
 40
1
 40
1
 40
1
 10
198.731544
 20
140.954482
 30
0.0
 10
197.930731
 20
140.954482
 30
0.0
 10
197.281544
 20
141.603669
 30
0.0
 10
197.281544
 20
142.404482
 30
0.0
  0
SPLINE
  5
17a
100
AcDbEntity
  8
Layer_1
 62
7
100
AcDbSpline
 70
8
 71
3
 72
8
 73
4
 74
0
 40
0
 40
0
 40
0
 40
0
 40
1
 40
1
 40
1
 40
1
 10
197.281544
 20
142.404482
 30
0.0
 10
197.281544
 20
143.205296
 30
0.0
 10
197.930731
 20
143.854482
 30
0.0
 10
198.731544
 20
143.854482
 30
0.0
  0
SPLINE
  5
17b
100
AcDbEntity
  8
Layer_1
 62
7
100
AcDbSpline
 70
8
 71
3
 72
8
 73
4
 74
0
 40
0
 40
0
 40
0
 40
0
 40
1
 40
1
 40
1
 40
1
 10
198.731544
 20
143.854482
 30
0.0
 10
199.532356
 20
143.854482
 30
0.0
 10
200.181544
 20
143.205296
 30
0.0
 10
200.181544
 20
142.404482
 30
0.0
  0
LWPOLYLINE
  5
17c
100
AcDbEntity
  8
Layer_1
 62
7
100
AcDbPolyline
 90
2
 70
0
 10
202.484136
 20
145.200294
 30
0.0
 10
202.484136
 20
145.200294
 30
0.0
  0
LWPOLYLINE
  5
17d
100
AcDbEntity
  8
Layer_1
 62
7
100
AcDbPolyline
 90
2
 70
0
 10
200.181544
 20
142.404482
 30
0.0
 10
200.181544
 20
142.404482
 30
0.0
  0
SPLINE
  5
17e
100
AcDbEntity
  8
Layer_1
 62
7
100
AcDbSpline
 70
8
 71
3
 72
8
 73
4
 74
0
 40
0
 40
0
 40
0
 40
0
 40
1
 40
1
 40
1
 40
1
 10
112.316360
 20
120.859280
 30
0.0
 10
112.316360
 20
120.472681
 30
0.0
 10
112.002959
 20
120.159281
 30
0.0
 10
111.616360
 20
120.159281
 30
0.0
  0
SPLINE
  5
17f
100
AcDbEntity
  8
Layer_1
 62
7
100
AcDbSpline
 70
8
 71
3
 72
8
 73
4
 74
0
 40
0
 40
0
 40
0
 40
0
 40
1
 40
1
 40
1
 40
1
 10
111.616360
 20
120.159281
 30
0.0
 10
111.229760
 20
120.159281
 30
0.0
 10
110.916360
 20
120.472681
 30
0.0
 10
110.916360
 20
120.859280
 30
0.0
  0
SPLINE
  5
180
100
AcDbEntity
  8
Layer_1
 62
7
100
AcDbSpline
 70
8
 71
3
 72
8
 73
4
 74
0
 40
0
 40
0
 40
0
 40
0
 40
1
 40
1
 40
1
 40
1
 10
110.916360
 20
120.859280
 30
0.0
 10
110.916360
 20
121.245880
 30
0.0
 10
111.229760
 20
121.559280
 30
0.0
 10
111.616360
 20
121.559280
 30
0.0
  0
SPLINE
  5
181
100
AcDbEntity
  8
Layer_1
 62
7
100
AcDbSpline
 70
8
 71
3
 72
8
 73
4
 74
0
 40
0
 40
0
 40
0
 40
0
 40
1
 40
1
 40
1
 40
1
 10
111.616360
 20
121.559280
 30
0.0
 10
112.002959
 20
121.559280
 30
0.0
 10
112.316360
 20
121.245880
 30
0.0
 10
112.316360
 20
120.859280
 30
0.0
  0
LWPOLYLINE
  5
182
100
AcDbEntity
  8
Layer_1
 62
7
100
AcDbPolyline
 90
5
 70
0
 10
221.154506
 20
117.956932
 30
0.0
 10
109.267939
 20
117.761653
 30
0.0
 10
109.257467
 20
123.761643
 30
0.0
 10
221.144034
 20
123.956923
 30
0.0
 10
221.154506
 20
117.956932
 30
0.0
  0
SPLINE
  5
183
100
AcDbEntity
  8
Layer_1
 62
7
100
AcDbSpline
 70
8
 71
3
 72
8
 73
4
 74
0
 40
0
 40
0
 40
0
 40
0
 40
1
 40
1
 40
1
 40
1
 10
213.665939
 20
120.859277
 30
0.0
 10
213.665939
 20
120.058464
 30
0.0
 10
213.016752
 20
119.409277
 30
0.0
 10
212.215939
 20
119.409277
 30
0.0
  0
SPLINE
  5
184
100
AcDbEntity
  8
Layer_1
 62
7
100
AcDbSpline
 70
8
 71
3
 72
8
 73
4
 74
0
 40
0
 40
0
 40
0
 40
0
 40
1
 40
1
 40
1
 40
1
 10
212.215939
 20
119.409277
 30
0.0
 10
211.415126
 20
119.409277
 30
0.0
 10
210.765939
 20
120.058464
 30
0.0
 10
210.765939
 20
120.859277
 30
0.0
  0
SPLINE
  5
185
100
AcDbEntity
  8
Layer_1
 62
7
100
AcDbSpline
 70
8
 71
3
 72
8
 73
4
 74
0
 40
0
 40
0
 40
0
 40
0
 40
1
 40
1
 40
1
 40
1
 10
210.765939
 20
120.859277
 30
0.0
 10
210.765939
 20
121.660090
 30
0.0
 10
211.415126
 20
122.309276
 30
0.0
 10
212.215939
 20
122.309276
 30
0.0
  0
SPLINE
  5
186
100
AcDbEntity
  8
Layer_1
 62
7
100
AcDbSpline
 70
8
 71
3
 72
8
 73
4
 74
0
 40
0
 40
0
 40
0
 40
0
 40
1
 40
1
 40
1
 40
1
 10
212.215939
 20
122.309276
 30
0.0
 10
213.016752
 20
122.309276
 30
0.0
 10
213.665939
 20
121.660090
 30
0.0
 10
213.665939
 20
120.859277
 30
0.0
  0
LWPOLYLINE
  5
187
100
AcDbEntity
  8
Layer_1
 62
7
100
AcDbPolyline
 90
2
 70
0
 10
112.316360
 20
120.859280
 30
0.0
 10
112.316360
 20
120.859280
 30
0.0
  0
SPLINE
  5
188
100
AcDbEntity
  8
Layer_1
 62
7
100
AcDbSpline
 70
8
 71
3
 72
8
 73
4
 74
0
 40
0
 40
0
 40
0
 40
0
 40
1
 40
1
 40
1
 40
1
 10
209.665939
 20
120.859277
 30
0.0
 10
209.665939
 20
120.058464
 30
0.0
 10
209.016751
 20
119.409277
 30
0.0
 10
208.215939
 20
119.409277
 30
0.0
  0
SPLINE
  5
189
100
AcDbEntity
  8
Layer_1
 62
7
100
AcDbSpline
 70
8
 71
3
 72
8
 73
4
 74
0
 40
0
 40
0
 40
0
 40
0
 40
1
 40
1
 40
1
 40
1
 10
208.215939
 20
119.409277
 30
0.0
 10
207.415125
 20
119.409277
 30
0.0
 10
206.765939
 20
120.058464
 30
0.0
 10
206.765939
 20
120.859277
 30
0.0
  0
SPLINE
  5
18a
100
AcDbEntity
  8
Layer_1
 62
7
100
AcDbSpline
 70
8
 71
3
 72
8
 73
4
 74
0
 40
0
 40
0
 40
0
 40
0
 40
1
 40
1
 40
1
 40
1
 10
206.765939
 20
120.859277
 30
0.0
 10
206.765939
 20
121.660090
 30
0.0
 10
207.415125
 20
122.309276
 30
0.0
 10
208.215939
 20
122.309276
 30
0.0
  0
SPLINE
  5
18b
100
AcDbEntity
  8
Layer_1
 62
7
100
AcDbSpline
 70
8
 71
3
 72
8
 73
4
 74
0
 40
0
 40
0
 40
0
 40
0
 40
1
 40
1
 40
1
 40
1
 10
208.215939
 20
122.309276
 30
0.0
 10
209.016751
 20
122.309276
 30
0.0
 10
209.665939
 20
121.660090
 30
0.0
 10
209.665939
 20
120.859277
 30
0.0
  0
LWPOLYLINE
  5
18c
100
AcDbEntity
  8
Layer_1
 62
7
100
AcDbPolyline
 90
2
 70
0
 10
213.665939
 20
120.859277
 30
0.0
 10
213.665939
 20
120.859277
 30
0.0
  0
SPLINE
  5
18d
100
AcDbEntity
  8
Layer_1
 62
7
100
AcDbSpline
 70
8
 71
3
 72
8
 73
4
 74
0
 40
0
 40
0
 40
0
 40
0
 40
1
 40
1
 40
1
 40
1
 10
217.665940
 20
120.859277
 30
0.0
 10
217.665940
 20
120.058464
 30
0.0
 10
217.016752
 20
119.409277
 30
0.0
 10
216.215940
 20
119.409277
 30
0.0
  0
SPLINE
  5
18e
100
AcDbEntity
  8
Layer_1
 62
7
100
AcDbSpline
 70
8
 71
3
 72
8
 73
4
 74
0
 40
0
 40
0
 40
0
 40
0
 40
1
 40
1
 40
1
 40
1
 10
216.215940
 20
119.409277
 30
0.0
 10
215.415126
 20
119.409277
 30
0.0
 10
214.765940
 20
120.058464
 30
0.0
 10
214.765940
 20
120.859277
 30
0.0
  0
SPLINE
  5
18f
100
AcDbEntity
  8
Layer_1
 62
7
100
AcDbSpline
 70
8
 71
3
 72
8
 73
4
 74
0
 40
0
 40
0
 40
0
 40
0
 40
1
 40
1
 40
1
 40
1
 10
214.765940
 20
120.859277
 30
0.0
 10
214.765940
 20
121.660090
 30
0.0
 10
215.415126
 20
122.309276
 30
0.0
 10
216.215940
 20
122.309276
 30
0.0
  0
SPLINE
  5
190
100
AcDbEntity
  8
Layer_1
 62
7
100
AcDbSpline
 70
8
 71
3
 72
8
 73
4
 74
0
 40
0
 40
0
 40
0
 40
0
 40
1
 40
1
 40
1
 40
1
 10
216.215940
 20
122.309276
 30
0.0
 10
217.016752
 20
122.309276
 30
0.0
 10
217.665940
 20
121.660090
 30
0.0
 10
217.665940
 20
120.859277
 30
0.0
  0
LWPOLYLINE
  5
191
100
AcDbEntity
  8
Layer_1
 62
7
100
AcDbPolyline
 90
2
 70
0
 10
209.665939
 20
120.859277
 30
0.0
 10
209.665939
 20
120.859277
 30
0.0
  0
LWPOLYLINE
  5
192
100
AcDbEntity
  8
Layer_1
 62
7
100
AcDbPolyline
 90
2
 70
0
 10
217.665940
 20
120.859277
 30
0.0
 10
217.665940
 20
120.859277
 30
0.0
  0
SPLINE
  5
193
100
AcDbEntity
  8
Layer_1
 62
7
100
AcDbSpline
 70
8
 71
3
 72
8
 73
4
 74
0
 40
0
 40
0
 40
0
 40
0
 40
1
 40
1
 40
1
 40
1
 10
201.643152
 20
173.119295
 30
0.0
 10
201.643152
 20
173.119295
 30
0.0
 10
229.643153
 20
173.119295
 30
0.0
 10
229.643153
 20
173.119295
 30
0.0
  0
SPLINE
  5
194
100
AcDbEntity
  8
Layer_1
 62
7
100
AcDbSpline
 70
8
 71
3
 72
8
 73
4
 74
0
 40
0
 40
0
 40
0
 40
0
 40
1
 40
1
 40
1
 40
1
 10
229.643153
 20
173.119295
 30
0.0
 10
232.400690
 20
173.124776
 30
0.0
 10
234.633214
 20
175.361742
 30
0.0
 10
234.633214
 20
178.119285
 30
0.0
  0
SPLINE
  5
195
100
AcDbEntity
  8
Layer_1
 62
7
100
AcDbSpline
 70
8
 71
3
 72
8
 73
4
 74
0
 40
0
 40
0
 40
0
 40
0
 40
1
 40
1
 40
1
 40
1
 10
234.633214
 20
178.119285
 30
0.0
 10
234.633214
 20
180.876828
 30
0.0
 10
232.400690
 20
183.113794
 30
0.0
 10
229.643153
 20
183.119275
 30
0.0
  0
LWPOLYLINE
  5
196
100
AcDbEntity
  8
Layer_1
 62
7
100
AcDbPolyline
 90
7
 70
0
 10
229.643153
 20
183.119275
 30
0.0
 10
201.643152
 20
183.119275
 30
0.0
 10
201.643152
 20
179.619296
 30
0.0
 10
216.821882
 20
179.619296
 30
0.0
 10
216.821882
 20
176.619274
 30
0.0
 10
201.643152
 20
176.619274
 30
0.0
 10
201.643152
 20
173.119295
 30
0.0
  0
LWPOLYLINE
  5
197
100
AcDbEntity
  8
Layer_1
 62
7
100
AcDbPolyline
 90
2
 70
0
 10
229.643153
 20
183.119275
 30
0.0
 10
229.643153
 20
183.119275
 30
0.0
  0
SPLINE
  5
198
100
AcDbEntity
  8
Layer_1
 62
7
100
AcDbSpline
 70
8
 71
3
 72
8
 73
4
 74
0
 40
0
 40
0
 40
0
 40
0
 40
1
 40
1
 40
1
 40
1
 10
229.701290
 20
160.080487
 30
0.0
 10
231.487620
 20
160.080487
 30
0.0
 10
233.138256
 20
161.033483
 30
0.0
 10
234.031421
 20
162.580489
 30
0.0
  0
SPLINE
  5
199
100
AcDbEntity
  8
Layer_1
 62
7
100
AcDbSpline
 70
8
 71
3
 72
8
 73
4
 74
0
 40
0
 40
0
 40
0
 40
0
 40
1
 40
1
 40
1
 40
1
 10
234.031421
 20
162.580489
 30
0.0
 10
234.924586
 20
164.127496
 30
0.0
 10
234.924586
 20
166.033487
 30
0.0
 10
234.031421
 20
167.580493
 30
0.0
  0
SPLINE
  5
19a
100
AcDbEntity
  8
Layer_1
 62
7
100
AcDbSpline
 70
8
 71
3
 72
8
 73
4
 74
0
 40
0
 40
0
 40
0
 40
0
 40
1
 40
1
 40
1
 40
1
 10
234.031421
 20
167.580493
 30
0.0
 10
233.138256
 20
169.127500
 30
0.0
 10
231.487620
 20
170.080495
 30
0.0
 10
229.701290
 20
170.080495
 30
0.0
  0
LWPOLYLINE
  5
19b
100
AcDbEntity
  8
Layer_1
 62
7
100
AcDbPolyline
 90
8
 70
0
 10
229.701290
 20
170.080495
 30
0.0
 10
201.701290
 20
170.080495
 30
0.0
 10
201.701290
 20
166.580488
 30
0.0
 10
216.879991
 20
166.580488
 30
0.0
 10
216.879991
 20
163.580494
 30
0.0
 10
201.701290
 20
163.580494
 30
0.0
 10
201.701290
 20
160.080487
 30
0.0
 10
229.701290
 20
160.080487
 30
0.0
  0
LWPOLYLINE
  5
19c
100
AcDbEntity
  8
Layer_1
 62
7
100
AcDbPolyline
 90
2
 70
0
 10
229.701290
 20
170.080495
 30
0.0
 10
229.701290
 20
170.080495
 30
0.0
  0
SPLINE
  5
19d
100
AcDbEntity
  8
Layer_1
 62
7
100
AcDbSpline
 70
8
 71
3
 72
8
 73
4
 74
0
 40
0
 40
0
 40
0
 40
0
 40
1
 40
1
 40
1
 40
1
 10
174.089842
 20
205.691645
 30
0.0
 10
174.744918
 20
207.774657
 30
0.0
 10
176.675950
 20
209.191647
 30
0.0
 10
178.859538
 20
209.191647
 30
0.0
  0
LWPOLYLINE
  5
19e
100
AcDbEntity
  8
Layer_1
 62
7
100
AcDbPolyline
 90
2
 70
0
 10
191.680838
 20
205.691645
 30
0.0
 10
174.089842
 20
205.691645
 30
0.0
  0
SPLINE
  5
19f
100
AcDbEntity
  8
Layer_1
 62
7
100
AcDbSpline
 70
8
 71
3
 72
8
 73
4
 74
0
 40
0
 40
0
 40
0
 40
0
 40
1
 40
1
 40
1
 40
1
 10
209.859589
 20
209.170590
 30
0.0
 10
238.198772
 20
208.374856
 30
0.0
 10
260.985130
 20
185.588493
 30
0.0
 10
261.780858
 20
157.249310
 30
0.0
  0
LWPOLYLINE
  5
1a0
100
AcDbEntity
  8
Layer_1
 62
7
100
AcDbPolyline
 90
5
 70
0
 10
178.859538
 20
209.191647
 30
0.0
 10
206.859567
 20
209.191647
 30
0.0
 10
206.859567
 20
204.191643
 30
0.0
 10
209.859589
 20
204.191643
 30
0.0
 10
209.859589
 20
209.170590
 30
0.0
  0
SPLINE
  5
1a1
100
AcDbEntity
  8
Layer_1
 62
7
100
AcDbSpline
 70
8
 71
3
 72
8
 73
4
 74
0
 40
0
 40
0
 40
0
 40
0
 40
1
 40
1
 40
1
 40
1
 10
256.511572
 20
154.249308
 30
0.0
 10
256.511572
 20
154.249308
 30
0.0
 10
261.780858
 20
154.249308
 30
0.0
 10
261.780858
 20
154.249308
 30
0.0
  0
SPLINE
  5
1a2
100
AcDbEntity
  8
Layer_1
 62
7
100
AcDbSpline
 70
8
 71
3
 72
8
 73
4
 74
0
 40
0
 40
0
 40
0
 40
0
 40
1
 40
1
 40
1
 40
1
 10
261.780858
 20
154.249308
 30
0.0
 10
260.985132
 20
125.910124
 30
0.0
 10
238.198773
 20
103.123759
 30
0.0
 10
209.859589
 20
102.328025
 30
0.0
  0
LWPOLYLINE
  5
1a3
100
AcDbEntity
  8
Layer_1
 62
7
100
AcDbPolyline
 90
3
 70
0
 10
261.780858
 20
157.249310
 30
0.0
 10
256.511572
 20
157.249310
 30
0.0
 10
256.511572
 20
154.249308
 30
0.0
  0
SPLINE
  5
1a4
100
AcDbEntity
  8
Layer_1
 62
7
100
AcDbSpline
 70
8
 71
3
 72
8
 73
4
 74
0
 40
0
 40
0
 40
0
 40
0
 40
1
 40
1
 40
1
 40
1
 10
206.859567
 20
102.306971
 30
0.0
 10
206.859567
 20
102.306971
 30
0.0
 10
178.859538
 20
102.306971
 30
0.0
 10
178.859538
 20
102.306971
 30
0.0
  0
SPLINE
  5
1a5
100
AcDbEntity
  8
Layer_1
 62
7
100
AcDbSpline
 70
8
 71
3
 72
8
 73
4
 74
0
 40
0
 40
0
 40
0
 40
0
 40
1
 40
1
 40
1
 40
1
 10
178.859538
 20
102.306971
 30
0.0
 10
176.675950
 20
102.306971
 30
0.0
 10
174.744918
 20
103.723961
 30
0.0
 10
174.089842
 20
105.806972
 30
0.0
  0
LWPOLYLINE
  5
1a6
100
AcDbEntity
  8
Layer_1
 62
7
100
AcDbPolyline
 90
4
 70
0
 10
209.859589
 20
102.328025
 30
0.0
 10
209.859589
 20
107.306972
 30
0.0
 10
206.859567
 20
107.306972
 30
0.0
 10
206.859567
 20
102.306971
 30
0.0
  0
SPLINE
  5
1a7
100
AcDbEntity
  8
Layer_1
 62
7
100
AcDbSpline
 70
8
 71
3
 72
8
 73
4
 74
0
 40
0
 40
0
 40
0
 40
0
 40
1
 40
1
 40
1
 40
1
 10
174.089842
 20
108.806975
 30
0.0
 10
174.744920
 20
110.889984
 30
0.0
 10
176.675951
 20
112.306972
 30
0.0
 10
178.859538
 20
112.306971
 30
0.0
  0
SPLINE
  5
1a8
100
AcDbEntity
  8
Layer_1
 62
7
100
AcDbSpline
 70
8
 71
3
 72
8
 73
4
 74
0
 40
0
 40
0
 40
0
 40
0
 40
1
 40
1
 40
1
 40
1
 10
178.859538
 20
112.306971
 30
0.0
 10
178.859538
 20
112.306971
 30
0.0
 10
208.359578
 20
112.306971
 30
0.0
 10
208.359578
 20
112.306971
 30
0.0
  0
SPLINE
  5
1a9
100
AcDbEntity
  8
Layer_1
 62
7
100
AcDbSpline
 70
8
 71
3
 72
8
 73
4
 74
0
 40
0
 40
0
 40
0
 40
0
 40
1
 40
1
 40
1
 40
1
 10
208.359578
 20
112.306971
 30
0.0
 10
232.352118
 20
112.306971
 30
0.0
 10
251.801914
 20
131.756768
 30
0.0
 10
251.801914
 20
155.749307
 30
0.0
  0
SPLINE
  5
1aa
100
AcDbEntity
  8
Layer_1
 62
7
100
AcDbSpline
 70
8
 71
3
 72
8
 73
4
 74
0
 40
0
 40
0
 40
0
 40
0
 40
1
 40
1
 40
1
 40
1
 10
251.801914
 20
155.749307
 30
0.0
 10
251.801914
 20
179.741847
 30
0.0
 10
232.352118
 20
199.191644
 30
0.0
 10
208.359578
 20
199.191644
 30
0.0
  0
SPLINE
  5
1ab
100
AcDbEntity
  8
Layer_1
 62
7
100
AcDbSpline
 70
8
 71
3
 72
8
 73
4
 74
0
 40
0
 40
0
 40
0
 40
0
 40
1
 40
1
 40
1
 40
1
 10
208.359578
 20
199.191644
 30
0.0
 10
208.359578
 20
199.191644
 30
0.0
 10
178.859538
 20
199.191644
 30
0.0
 10
178.859538
 20
199.191644
 30
0.0
  0
SPLINE
  5
1ac
100
AcDbEntity
  8
Layer_1
 62
7
100
AcDbSpline
 70
8
 71
3
 72
8
 73
4
 74
0
 40
0
 40
0
 40
0
 40
0
 40
1
 40
1
 40
1
 40
1
 10
178.859538
 20
199.191644
 30
0.0
 10
176.675950
 20
199.191644
 30
0.0
 10
174.744919
 20
200.608633
 30
0.0
 10
174.089842
 20
202.691643
 30
0.0
  0
LWPOLYLINE
  5
1ad
100
AcDbEntity
  8
Layer_1
 62
7
100
AcDbPolyline
 90
4
 70
0
 10
174.089842
 20
105.806972
 30
0.0
 10
191.680838
 20
105.806972
 30
0.0
 10
191.680838
 20
108.806975
 30
0.0
 10
174.089842
 20
108.806975
 30
0.0
  0
LWPOLYLINE
  5
1ae
100
AcDbEntity
  8
Layer_1
 62
7
100
AcDbPolyline
 90
4
 70
0
 10
174.089842
 20
202.691643
 30
0.0
 10
191.680838
 20
202.691643
 30
0.0
 10
191.680838
 20
205.691645
 30
0.0
 10
191.680838
 20
205.691645
 30
0.0
  0
LWPOLYLINE
  5
1af
100
AcDbEntity
  8
Layer_1
 62
7
100
AcDbPolyline
 90
2
 70
0
 10
124.705766
 20
107.000829
 30
0.0
 10
124.705766
 20
112.555606
 30
0.0
  0
LWPOLYLINE
  5
1b0
100
AcDbEntity
  8
Layer_1
 62
7
100
AcDbPolyline
 90
2
 70
0
 10
127.705766
 20
107.000829
 30
0.0
 10
124.705766
 20
107.000829
 30
0.0
  0
LWPOLYLINE
  5
1b1
100
AcDbEntity
  8
Layer_1
 62
7
100
AcDbPolyline
 90
2
 70
0
 10
127.705766
 20
112.000830
 30
0.0
 10
127.705766
 20
107.000829
 30
0.0
  0
LWPOLYLINE
  5
1b2
100
AcDbEntity
  8
Layer_1
 62
7
100
AcDbPolyline
 90
2
 70
0
 10
134.989921
 20
110.372577
 30
0.0
 10
127.705766
 20
112.000830
 30
0.0
  0
LWPOLYLINE
  5
1b3
100
AcDbEntity
  8
Layer_1
 62
7
100
AcDbPolyline
 90
2
 70
0
 10
140.955289
 20
108.668968
 30
0.0
 10
134.989921
 20
110.372577
 30
0.0
  0
LWPOLYLINE
  5
1b4
100
AcDbEntity
  8
Layer_1
 62
7
100
AcDbPolyline
 90
2
 70
0
 10
145.574519
 20
107.010484
 30
0.0
 10
140.955289
 20
108.668968
 30
0.0
  0
LWPOLYLINE
  5
1b5
100
AcDbEntity
  8
Layer_1
 62
7
100
AcDbPolyline
 90
2
 70
0
 10
149.474774
 20
105.332531
 30
0.0
 10
145.574519
 20
107.010484
 30
0.0
  0
LWPOLYLINE
  5
1b6
100
AcDbEntity
  8
Layer_1
 62
7
100
AcDbPolyline
 90
2
 70
0
 10
153.162594
 20
103.576500
 30
0.0
 10
149.474774
 20
105.332531
 30
0.0
  0
LWPOLYLINE
  5
1b7
100
AcDbEntity
  8
Layer_1
 62
7
100
AcDbPolyline
 90
2
 70
0
 10
156.779150
 20
101.797828
 30
0.0
 10
153.162594
 20
103.576500
 30
0.0
  0
LWPOLYLINE
  5
1b8
100
AcDbEntity
  8
Layer_1
 62
7
100
AcDbPolyline
 90
2
 70
0
 10
153.162594
 20
93.576511
 30
0.0
 10
156.779150
 20
91.797834
 30
0.0
  0
LWPOLYLINE
  5
1b9
100
AcDbEntity
  8
Layer_1
 62
7
100
AcDbPolyline
 90
2
 70
0
 10
149.474774
 20
95.332526
 30
0.0
 10
153.162594
 20
93.576511
 30
0.0
  0
LWPOLYLINE
  5
1ba
100
AcDbEntity
  8
Layer_1
 62
7
100
AcDbPolyline
 90
2
 70
0
 10
145.574519
 20
97.010484
 30
0.0
 10
149.474774
 20
95.332526
 30
0.0
  0
LWPOLYLINE
  5
1bb
100
AcDbEntity
  8
Layer_1
 62
7
100
AcDbPolyline
 90
2
 70
0
 10
140.955289
 20
98.668968
 30
0.0
 10
145.574519
 20
97.010484
 30
0.0
  0
LWPOLYLINE
  5
1bc
100
AcDbEntity
  8
Layer_1
 62
7
100
AcDbPolyline
 90
2
 70
0
 10
134.989921
 20
100.372577
 30
0.0
 10
140.955289
 20
98.668968
 30
0.0
  0
LWPOLYLINE
  5
1bd
100
AcDbEntity
  8
Layer_1
 62
7
100
AcDbPolyline
 90
2
 70
0
 10
127.112159
 20
102.133520
 30
0.0
 10
134.989921
 20
100.372577
 30
0.0
  0
LWPOLYLINE
  5
1be
100
AcDbEntity
  8
Layer_1
 62
7
100
AcDbPolyline
 90
2
 70
0
 10
116.824409
 20
103.938009
 30
0.0
 10
127.112159
 20
102.133520
 30
0.0
  0
LWPOLYLINE
  5
1bf
100
AcDbEntity
  8
Layer_1
 62
7
100
AcDbPolyline
 90
2
 70
0
 10
103.660887
 20
105.770244
 30
0.0
 10
116.824409
 20
103.938009
 30
0.0
  0
LWPOLYLINE
  5
1c0
100
AcDbEntity
  8
Layer_1
 62
7
100
AcDbPolyline
 90
2
 70
0
 10
87.163245
 20
107.619093
 30
0.0
 10
103.660887
 20
105.770244
 30
0.0
  0
LWPOLYLINE
  5
1c1
100
AcDbEntity
  8
Layer_1
 62
7
100
AcDbPolyline
 90
2
 70
0
 10
66.793634
 20
109.484853
 30
0.0
 10
87.163245
 20
107.619093
 30
0.0
  0
LWPOLYLINE
  5
1c2
100
AcDbEntity
  8
Layer_1
 62
7
100
AcDbPolyline
 90
2
 70
0
 10
87.163245
 20
203.267238
 30
0.0
 10
66.793634
 20
201.401478
 30
0.0
  0
LWPOLYLINE
  5
1c3
100
AcDbEntity
  8
Layer_1
 62
7
100
AcDbPolyline
 90
2
 70
0
 10
103.660887
 20
205.116087
 30
0.0
 10
87.163245
 20
203.267238
 30
0.0
  0
LWPOLYLINE
  5
1c4
100
AcDbEntity
  8
Layer_1
 62
7
100
AcDbPolyline
 90
2
 70
0
 10
116.824409
 20
206.948322
 30
0.0
 10
103.660887
 20
205.116087
 30
0.0
  0
LWPOLYLINE
  5
1c5
100
AcDbEntity
  8
Layer_1
 62
7
100
AcDbPolyline
 90
2
 70
0
 10
127.112159
 20
208.752811
 30
0.0
 10
116.824409
 20
206.948322
 30
0.0
  0
LWPOLYLINE
  5
1c6
100
AcDbEntity
  8
Layer_1
 62
7
100
AcDbPolyline
 90
2
 70
0
 10
134.989921
 20
210.513754
 30
0.0
 10
127.112159
 20
208.752811
 30
0.0
  0
LWPOLYLINE
  5
1c7
100
AcDbEntity
  8
Layer_1
 62
7
100
AcDbPolyline
 90
2
 70
0
 10
140.955289
 20
212.217363
 30
0.0
 10
134.989921
 20
210.513754
 30
0.0
  0
LWPOLYLINE
  5
1c8
100
AcDbEntity
  8
Layer_1
 62
7
100
AcDbPolyline
 90
2
 70
0
 10
145.574519
 20
213.875847
 30
0.0
 10
140.955289
 20
212.217363
 30
0.0
  0
LWPOLYLINE
  5
1c9
100
AcDbEntity
  8
Layer_1
 62
7
100
AcDbPolyline
 90
2
 70
0
 10
149.474774
 20
215.553799
 30
0.0
 10
145.574519
 20
213.875847
 30
0.0
  0
LWPOLYLINE
  5
1ca
100
AcDbEntity
  8
Layer_1
 62
7
100
AcDbPolyline
 90
2
 70
0
 10
153.162594
 20
217.309831
 30
0.0
 10
149.474774
 20
215.553799
 30
0.0
  0
LWPOLYLINE
  5
1cb
100
AcDbEntity
  8
Layer_1
 62
7
100
AcDbPolyline
 90
2
 70
0
 10
156.779150
 20
219.088503
 30
0.0
 10
153.162594
 20
217.309831
 30
0.0
  0
LWPOLYLINE
  5
1cc
100
AcDbEntity
  8
Layer_1
 62
7
100
AcDbPolyline
 90
2
 70
0
 10
153.162594
 20
207.309831
 30
0.0
 10
156.779150
 20
209.088503
 30
0.0
  0
LWPOLYLINE
  5
1cd
100
AcDbEntity
  8
Layer_1
 62
7
100
AcDbPolyline
 90
2
 70
0
 10
149.474774
 20
205.553800
 30
0.0
 10
153.162594
 20
207.309831
 30
0.0
  0
LWPOLYLINE
  5
1ce
100
AcDbEntity
  8
Layer_1
 62
7
100
AcDbPolyline
 90
2
 70
0
 10
145.574519
 20
203.875847
 30
0.0
 10
149.474774
 20
205.553800
 30
0.0
  0
LWPOLYLINE
  5
1cf
100
AcDbEntity
  8
Layer_1
 62
7
100
AcDbPolyline
 90
2
 70
0
 10
140.955289
 20
202.217363
 30
0.0
 10
145.574519
 20
203.875847
 30
0.0
  0
LWPOLYLINE
  5
1d0
100
AcDbEntity
  8
Layer_1
 62
7
100
AcDbPolyline
 90
2
 70
0
 10
134.989921
 20
200.513754
 30
0.0
 10
140.955289
 20
202.217363
 30
0.0
  0
LWPOLYLINE
  5
1d1
100
AcDbEntity
  8
Layer_1
 62
7
100
AcDbPolyline
 90
2
 70
0
 10
127.705766
 20
198.885501
 30
0.0
 10
134.989921
 20
200.513754
 30
0.0
  0
LWPOLYLINE
  5
1d2
100
AcDbEntity
  8
Layer_1
 62
7
100
AcDbPolyline
 90
2
 70
0
 10
127.705766
 20
203.885502
 30
0.0
 10
127.705766
 20
198.885501
 30
0.0
  0
LWPOLYLINE
  5
1d3
100
AcDbEntity
  8
Layer_1
 62
7
100
AcDbPolyline
 90
2
 70
0
 10
124.705766
 20
203.885502
 30
0.0
 10
127.705766
 20
203.885502
 30
0.0
  0
LWPOLYLINE
  5
1d4
100
AcDbEntity
  8
Layer_1
 62
7
100
AcDbPolyline
 90
2
 70
0
 10
124.705766
 20
198.330725
 30
0.0
 10
124.705766
 20
203.885502
 30
0.0
  0
LWPOLYLINE
  5
1d5
100
AcDbEntity
  8
Layer_1
 62
7
100
AcDbPolyline
 90
2
 70
0
 10
116.824409
 20
196.948322
 30
0.0
 10
124.705766
 20
198.330725
 30
0.0
  0
LWPOLYLINE
  5
1d6
100
AcDbEntity
  8
Layer_1
 62
7
100
AcDbPolyline
 90
2
 70
0
 10
103.660887
 20
195.116087
 30
0.0
 10
116.824409
 20
196.948322
 30
0.0
  0
LWPOLYLINE
  5
1d7
100
AcDbEntity
  8
Layer_1
 62
7
100
AcDbPolyline
 90
2
 70
0
 10
87.163245
 20
193.267238
 30
0.0
 10
103.660887
 20
195.116087
 30
0.0
  0
LWPOLYLINE
  5
1d8
100
AcDbEntity
  8
Layer_1
 62
7
100
AcDbPolyline
 90
2
 70
0
 10
64.668071
 20
191.314774
 30
0.0
 10
87.163245
 20
193.267238
 30
0.0
  0
LWPOLYLINE
  5
1d9
100
AcDbEntity
  8
Layer_1
 62
7
100
AcDbPolyline
 90
2
 70
0
 10
26.772290
 20
156.943164
 30
0.0
 10
31.737030
 20
156.943164
 30
0.0
  0
LWPOLYLINE
  5
1da
100
AcDbEntity
  8
Layer_1
 62
7
100
AcDbPolyline
 90
2
 70
0
 10
26.772290
 20
153.943164
 30
0.0
 10
26.772290
 20
156.943164
 30
0.0
  0
LWPOLYLINE
  5
1db
100
AcDbEntity
  8
Layer_1
 62
7
100
AcDbPolyline
 90
2
 70
0
 10
31.737030
 20
153.943164
 30
0.0
 10
26.772290
 20
153.943164
 30
0.0
  0
LWPOLYLINE
  5
1dc
100
AcDbEntity
  8
Layer_1
 62
7
100
AcDbPolyline
 90
2
 70
0
 10
87.163245
 20
117.619093
 30
0.0
 10
64.668071
 20
119.571554
 30
0.0
  0
LWPOLYLINE
  5
1dd
100
AcDbEntity
  8
Layer_1
 62
7
100
AcDbPolyline
 90
2
 70
0
 10
103.660887
 20
115.770244
 30
0.0
 10
87.163245
 20
117.619093
 30
0.0
  0
LWPOLYLINE
  5
1de
100
AcDbEntity
  8
Layer_1
 62
7
100
AcDbPolyline
 90
2
 70
0
 10
116.824409
 20
113.938009
 30
0.0
 10
103.660887
 20
115.770244
 30
0.0
  0
LWPOLYLINE
  5
1df
100
AcDbEntity
  8
Layer_1
 62
7
100
AcDbPolyline
 90
2
 70
0
 10
124.705766
 20
112.555606
 30
0.0
 10
116.824409
 20
113.938009
 30
0.0
  0
LWPOLYLINE
  5
1e0
100
AcDbEntity
  8
Layer_1
 62
7
100
AcDbPolyline
 90
2
 70
0
 10
53.997207
 20
198.849278
 30
0.0
 10
63.997206
 20
198.849278
 30
0.0
  0
LWPOLYLINE
  5
1e1
100
AcDbEntity
  8
Layer_1
 62
7
100
AcDbPolyline
 90
2
 70
0
 10
53.997207
 20
195.849278
 30
0.0
 10
53.997207
 20
198.849278
 30
0.0
  0
LWPOLYLINE
  5
1e2
100
AcDbEntity
  8
Layer_1
 62
7
100
AcDbPolyline
 90
2
 70
0
 10
63.997206
 20
195.849278
 30
0.0
 10
53.997207
 20
195.849278
 30
0.0
  0
LWPOLYLINE
  5
1e3
100
AcDbEntity
  8
Layer_1
 62
7
100
AcDbPolyline
 90
2
 70
0
 10
63.997206
 20
198.849278
 30
0.0
 10
63.997206
 20
195.849278
 30
0.0
  0
LWPOLYLINE
  5
1e4
100
AcDbEntity
  8
Layer_1
 62
7
100
AcDbPolyline
 90
2
 70
0
 10
97.136640
 20
195.849278
 30
0.0
 10
87.136640
 20
195.849278
 30
0.0
  0
LWPOLYLINE
  5
1e5
100
AcDbEntity
  8
Layer_1
 62
7
100
AcDbPolyline
 90
2
 70
0
 10
97.136640
 20
198.849278
 30
0.0
 10
97.136640
 20
195.849278
 30
0.0
  0
LWPOLYLINE
  5
1e6
100
AcDbEntity
  8
Layer_1
 62
7
100
AcDbPolyline
 90
2
 70
0
 10
87.136640
 20
198.849278
 30
0.0
 10
97.136640
 20
198.849278
 30
0.0
  0
LWPOLYLINE
  5
1e7
100
AcDbEntity
  8
Layer_1
 62
7
100
AcDbPolyline
 90
2
 70
0
 10
87.136640
 20
195.849278
 30
0.0
 10
87.136640
 20
198.849278
 30
0.0
  0
LWPOLYLINE
  5
1e8
100
AcDbEntity
  8
Layer_1
 62
7
100
AcDbPolyline
 90
2
 70
0
 10
80.566922
 20
195.849278
 30
0.0
 10
70.566922
 20
195.849278
 30
0.0
  0
LWPOLYLINE
  5
1e9
100
AcDbEntity
  8
Layer_1
 62
7
100
AcDbPolyline
 90
2
 70
0
 10
80.566922
 20
198.849278
 30
0.0
 10
80.566922
 20
195.849278
 30
0.0
  0
LWPOLYLINE
  5
1ea
100
AcDbEntity
  8
Layer_1
 62
7
100
AcDbPolyline
 90
2
 70
0
 10
70.566922
 20
198.849278
 30
0.0
 10
80.566922
 20
198.849278
 30
0.0
  0
LWPOLYLINE
  5
1eb
100
AcDbEntity
  8
Layer_1
 62
7
100
AcDbPolyline
 90
2
 70
0
 10
70.566922
 20
195.849278
 30
0.0
 10
70.566922
 20
198.849278
 30
0.0
  0
LWPOLYLINE
  5
1ec
100
AcDbEntity
  8
Layer_1
 62
7
100
AcDbPolyline
 90
2
 70
0
 10
53.997207
 20
115.037053
 30
0.0
 10
63.997206
 20
115.037053
 30
0.0
  0
LWPOLYLINE
  5
1ed
100
AcDbEntity
  8
Layer_1
 62
7
100
AcDbPolyline
 90
2
 70
0
 10
53.997207
 20
112.037051
 30
0.0
 10
53.997207
 20
115.037053
 30
0.0
  0
LWPOLYLINE
  5
1ee
100
AcDbEntity
  8
Layer_1
 62
7
100
AcDbPolyline
 90
2
 70
0
 10
63.997206
 20
112.037051
 30
0.0
 10
53.997207
 20
112.037051
 30
0.0
  0
LWPOLYLINE
  5
1ef
100
AcDbEntity
  8
Layer_1
 62
7
100
AcDbPolyline
 90
2
 70
0
 10
63.997206
 20
115.037053
 30
0.0
 10
63.997206
 20
112.037051
 30
0.0
  0
LWPOLYLINE
  5
1f0
100
AcDbEntity
  8
Layer_1
 62
7
100
AcDbPolyline
 90
2
 70
0
 10
97.136640
 20
112.037051
 30
0.0
 10
87.136640
 20
112.037051
 30
0.0
  0
LWPOLYLINE
  5
1f1
100
AcDbEntity
  8
Layer_1
 62
7
100
AcDbPolyline
 90
2
 70
0
 10
97.136640
 20
115.037053
 30
0.0
 10
97.136640
 20
112.037051
 30
0.0
  0
LWPOLYLINE
  5
1f2
100
AcDbEntity
  8
Layer_1
 62
7
100
AcDbPolyline
 90
2
 70
0
 10
87.136640
 20
115.037053
 30
0.0
 10
97.136640
 20
115.037053
 30
0.0
  0
LWPOLYLINE
  5
1f3
100
AcDbEntity
  8
Layer_1
 62
7
100
AcDbPolyline
 90
2
 70
0
 10
87.136640
 20
112.037051
 30
0.0
 10
87.136640
 20
115.037053
 30
0.0
  0
LWPOLYLINE
  5
1f4
100
AcDbEntity
  8
Layer_1
 62
7
100
AcDbPolyline
 90
2
 70
0
 10
80.566922
 20
112.037051
 30
0.0
 10
70.566922
 20
112.037051
 30
0.0
  0
LWPOLYLINE
  5
1f5
100
AcDbEntity
  8
Layer_1
 62
7
100
AcDbPolyline
 90
2
 70
0
 10
80.566922
 20
115.037053
 30
0.0
 10
80.566922
 20
112.037051
 30
0.0
  0
LWPOLYLINE
  5
1f6
100
AcDbEntity
  8
Layer_1
 62
7
100
AcDbPolyline
 90
2
 70
0
 10
70.566922
 20
115.037053
 30
0.0
 10
80.566922
 20
115.037053
 30
0.0
  0
SPLINE
  5
1f7
100
AcDbEntity
  8
Layer_1
 62
7
100
AcDbSpline
 70
8
 71
3
 72
8
 73
4
 74
0
 40
0
 40
0
 40
0
 40
0
 40
1
 40
1
 40
1
 40
1
 10
64.668071
 20
191.314774
 30
0.0
 10
55.681508
 20
191.314774
 30
0.0
 10
47.084563
 20
187.645543
 30
0.0
 10
40.867541
 20
181.156557
 30
0.0
  0
SPLINE
  5
1f8
100
AcDbEntity
  8
Layer_1
 62
7
100
AcDbSpline
 70
8
 71
3
 72
8
 73
4
 74
0
 40
0
 40
0
 40
0
 40
0
 40
1
 40
1
 40
1
 40
1
 10
40.867541
 20
181.156557
 30
0.0
 10
34.650518
 20
174.667571
 30
0.0
 10
31.352504
 20
165.921496
 30
0.0
 10
31.737030
 20
156.943164
 30
0.0
  0
SPLINE
  5
1f9
100
AcDbEntity
  8
Layer_1
 62
7
100
AcDbSpline
 70
8
 71
3
 72
8
 73
4
 74
0
 40
0
 40
0
 40
0
 40
0
 40
1
 40
1
 40
1
 40
1
 10
66.793634
 20
201.401478
 30
0.0
 10
41.416006
 20
201.395189
 30
0.0
 10
20.846708
 20
180.820794
 30
0.0
 10
20.846708
 20
155.443166
 30
0.0
  0
SPLINE
  5
1fa
100
AcDbEntity
  8
Layer_1
 62
7
100
AcDbSpline
 70
8
 71
3
 72
8
 73
4
 74
0
 40
0
 40
0
 40
0
 40
0
 40
1
 40
1
 40
1
 40
1
 10
20.846708
 20
155.443166
 30
0.0
 10
20.846708
 20
130.065537
 30
0.0
 10
41.416006
 20
109.491142
 30
0.0
 10
66.793634
 20
109.484853
 30
0.0
  0
SPLINE
  5
1fb
100
AcDbEntity
  8
Layer_1
 62
7
100
AcDbSpline
 70
8
 71
3
 72
8
 73
4
 74
0
 40
0
 40
0
 40
0
 40
0
 40
1
 40
1
 40
1
 40
1
 10
31.737030
 20
153.943164
 30
0.0
 10
31.352504
 20
144.964832
 30
0.0
 10
34.650518
 20
136.218758
 30
0.0
 10
40.867541
 20
129.729771
 30
0.0
  0
SPLINE
  5
1fc
100
AcDbEntity
  8
Layer_1
 62
7
100
AcDbSpline
 70
8
 71
3
 72
8
 73
4
 74
0
 40
0
 40
0
 40
0
 40
0
 40
1
 40
1
 40
1
 40
1
 10
40.867541
 20
129.729771
 30
0.0
 10
47.084563
 20
123.240785
 30
0.0
 10
55.681508
 20
119.571554
 30
0.0
 10
64.668071
 20
119.571554
 30
0.0
  0
LWPOLYLINE
  5
1fd
100
AcDbEntity
  8
Layer_1
 62
7
100
AcDbPolyline
 90
2
 70
0
 10
70.566922
 20
112.037051
 30
0.0
 10
70.566922
 20
115.037053
 30
0.0
  0
SPLINE
  5
1fe
100
AcDbEntity
  8
Layer_1
 62
7
100
AcDbSpline
 70
8
 71
3
 72
8
 73
4
 74
0
 40
0
 40
0
 40
0
 40
0
 40
1
 40
1
 40
1
 40
1
 10
156.765561
 20
209.081817
 30
0.0
 10
156.819922
 20
209.108553
 30
0.0
 10
156.874483
 20
209.134877
 30
0.0
 10
156.929242
 20
209.160786
 30
0.0
  0
SPLINE
  5
1ff
100
AcDbEntity
  8
Layer_1
 62
7
100
AcDbSpline
 70
8
 71
3
 72
8
 73
4
 74
0
 40
0
 40
0
 40
0
 40
0
 40
1
 40
1
 40
1
 40
1
 10
156.929242
 20
209.160786
 30
0.0
 10
156.929242
 20
209.160786
 30
0.0
 10
160.445748
 20
210.824599
 30
0.0
 10
160.445748
 20
210.824599
 30
0.0
  0
SPLINE
  5
200
100
AcDbEntity
  8
Layer_1
 62
7
100
AcDbSpline
 70
8
 71
3
 72
8
 73
4
 74
0
 40
0
 40
0
 40
0
 40
0
 40
1
 40
1
 40
1
 40
1
 10
160.445748
 20
210.824599
 30
0.0
 10
160.607736
 20
210.901243
 30
0.0
 10
160.771421
 20
210.974248
 30
0.0
 10
160.936679
 20
211.043561
 30
0.0
  0
LWPOLYLINE
  5
201
100
AcDbEntity
  8
Layer_1
 62
7
100
AcDbPolyline
 90
2
 70
0
 10
153.162594
 20
207.309831
 30
0.0
 10
156.765561
 20
209.081817
 30
0.0
  0
SPLINE
  5
202
100
AcDbEntity
  8
Layer_1
 62
7
100
AcDbSpline
 70
8
 71
3
 72
8
 73
4
 74
0
 40
0
 40
0
 40
0
 40
0
 40
1
 40
1
 40
1
 40
1
 10
164.438416
 20
212.512251
 30
0.0
 10
164.702032
 20
212.622817
 30
0.0
 10
164.969516
 20
212.723927
 30
0.0
 10
165.240353
 20
212.815389
 30
0.0
  0
LWPOLYLINE
  5
203
100
AcDbEntity
  8
Layer_1
 62
7
100
AcDbPolyline
 90
2
 70
0
 10
160.936679
 20
211.043561
 30
0.0
 10
164.438416
 20
212.512251
 30
0.0
  0
SPLINE
  5
204
100
AcDbEntity
  8
Layer_1
 62
7
100
AcDbSpline
 70
8
 71
3
 72
8
 73
4
 74
0
 40
0
 40
0
 40
0
 40
0
 40
1
 40
1
 40
1
 40
1
 10
168.875505
 20
214.042976
 30
0.0
 10
169.216895
 20
214.158263
 30
0.0
 10
169.563304
 20
214.258115
 30
0.0
 10
169.913680
 20
214.342228
 30
0.0
  0
LWPOLYLINE
  5
205
100
AcDbEntity
  8
Layer_1
 62
7
100
AcDbPolyline
 90
2
 70
0
 10
165.240353
 20
212.815389
 30
0.0
 10
168.875505
 20
214.042976
 30
0.0
  0
SPLINE
  5
206
100
AcDbEntity
  8
Layer_1
 62
7
100
AcDbSpline
 70
8
 71
3
 72
8
 73
4
 74
0
 40
0
 40
0
 40
0
 40
0
 40
1
 40
1
 40
1
 40
1
 10
173.839648
 20
215.284720
 30
0.0
 10
174.219292
 20
215.375860
 30
0.0
 10
174.603157
 20
215.448417
 30
0.0
 10
174.989875
 20
215.502133
 30
0.0
  0
LWPOLYLINE
  5
207
100
AcDbEntity
  8
Layer_1
 62
7
100
AcDbPolyline
 90
2
 70
0
 10
169.913680
 20
214.342228
 30
0.0
 10
173.839648
 20
215.284720
 30
0.0
  0
SPLINE
  5
208
100
AcDbEntity
  8
Layer_1
 62
7
100
AcDbSpline
 70
8
 71
3
 72
8
 73
4
 74
0
 40
0
 40
0
 40
0
 40
0
 40
1
 40
1
 40
1
 40
1
 10
179.463021
 20
216.123462
 30
0.0
 10
179.773768
 20
216.180463
 30
0.0
 10
180.089046
 20
216.209140
 30
0.0
 10
180.404977
 20
216.209139
 30
0.0
  0
SPLINE
  5
209
100
AcDbEntity
  8
Layer_1
 62
7
100
AcDbSpline
 70
8
 71
3
 72
8
 73
4
 74
0
 40
0
 40
0
 40
0
 40
0
 40
1
 40
1
 40
1
 40
1
 10
180.404977
 20
216.209139
 30
0.0
 10
180.404977
 20
216.209139
 30
0.0
 10
186.215840
 20
216.447363
 30
0.0
 10
186.215840
 20
216.447363
 30
0.0
  0
SPLINE
  5
20a
100
AcDbEntity
  8
Layer_1
 62
7
100
AcDbSpline
 70
8
 71
3
 72
8
 73
4
 74
0
 40
0
 40
0
 40
0
 40
0
 40
1
 40
1
 40
1
 40
1
 10
186.215840
 20
216.447363
 30
0.0
 10
188.889074
 20
216.671105
 30
0.0
 10
190.910411
 20
218.962912
 30
0.0
 10
190.798446
 20
221.643155
 30
0.0
  0
SPLINE
  5
20b
100
AcDbEntity
  8
Layer_1
 62
7
100
AcDbSpline
 70
8
 71
3
 72
8
 73
4
 74
0
 40
0
 40
0
 40
0
 40
0
 40
1
 40
1
 40
1
 40
1
 10
190.798446
 20
221.643155
 30
0.0
 10
190.686482
 20
224.323399
 30
0.0
 10
188.481045
 20
226.438636
 30
0.0
 10
185.798464
 20
226.438645
 30
0.0
  0
LWPOLYLINE
  5
20c
100
AcDbEntity
  8
Layer_1
 62
7
100
AcDbPolyline
 90
2
 70
0
 10
174.989875
 20
215.502133
 30
0.0
 10
179.463021
 20
216.123462
 30
0.0
  0
SPLINE
  5
20d
100
AcDbEntity
  8
Layer_1
 62
7
100
AcDbSpline
 70
8
 71
3
 72
8
 73
4
 74
0
 40
0
 40
0
 40
0
 40
0
 40
1
 40
1
 40
1
 40
1
 10
180.509134
 20
226.213573
 30
0.0
 10
180.127438
 20
226.197330
 30
0.0
 10
179.746736
 20
226.162869
 30
0.0
 10
179.368327
 20
226.110308
 30
0.0
  0
LWPOLYLINE
  5
20e
100
AcDbEntity
  8
Layer_1
 62
7
100
AcDbPolyline
 90
2
 70
0
 10
185.798464
 20
226.438645
 30
0.0
 10
180.509134
 20
226.213573
 30
0.0
  0
SPLINE
  5
20f
100
AcDbEntity
  8
Layer_1
 62
7
100
AcDbSpline
 70
8
 71
3
 72
8
 73
4
 74
0
 40
0
 40
0
 40
0
 40
0
 40
1
 40
1
 40
1
 40
1
 10
174.989875
 20
225.502133
 30
0.0
 10
174.603157
 20
225.448417
 30
0.0
 10
174.219292
 20
225.375860
 30
0.0
 10
173.839648
 20
225.284720
 30
0.0
  0
SPLINE
  5
210
100
AcDbEntity
  8
Layer_1
 62
7
100
AcDbSpline
 70
8
 71
3
 72
8
 73
4
 74
0
 40
0
 40
0
 40
0
 40
0
 40
1
 40
1
 40
1
 40
1
 10
173.839648
 20
225.284720
 30
0.0
 10
173.839648
 20
225.284720
 30
0.0
 10
169.913680
 20
224.342228
 30
0.0
 10
169.913680
 20
224.342228
 30
0.0
  0
SPLINE
  5
211
100
AcDbEntity
  8
Layer_1
 62
7
100
AcDbSpline
 70
8
 71
3
 72
8
 73
4
 74
0
 40
0
 40
0
 40
0
 40
0
 40
1
 40
1
 40
1
 40
1
 10
169.913680
 20
224.342228
 30
0.0
 10
169.563304
 20
224.258115
 30
0.0
 10
169.216895
 20
224.158263
 30
0.0
 10
168.875505
 20
224.042976
 30
0.0
  0
LWPOLYLINE
  5
212
100
AcDbEntity
  8
Layer_1
 62
7
100
AcDbPolyline
 90
2
 70
0
 10
179.368327
 20
226.110308
 30
0.0
 10
174.989875
 20
225.502133
 30
0.0
  0
SPLINE
  5
213
100
AcDbEntity
  8
Layer_1
 62
7
100
AcDbSpline
 70
8
 71
3
 72
8
 73
4
 74
0
 40
0
 40
0
 40
0
 40
0
 40
1
 40
1
 40
1
 40
1
 10
165.240353
 20
222.815388
 30
0.0
 10
164.969516
 20
222.723927
 30
0.0
 10
164.702032
 20
222.622816
 30
0.0
 10
164.438416
 20
222.512251
 30
0.0
  0
LWPOLYLINE
  5
214
100
AcDbEntity
  8
Layer_1
 62
7
100
AcDbPolyline
 90
2
 70
0
 10
168.875505
 20
224.042976
 30
0.0
 10
165.240353
 20
222.815388
 30
0.0
  0
SPLINE
  5
215
100
AcDbEntity
  8
Layer_1
 62
7
100
AcDbSpline
 70
8
 71
3
 72
8
 73
4
 74
0
 40
0
 40
0
 40
0
 40
0
 40
1
 40
1
 40
1
 40
1
 10
160.936679
 20
221.043561
 30
0.0
 10
160.771421
 20
220.974248
 30
0.0
 10
160.607736
 20
220.901243
 30
0.0
 10
160.445748
 20
220.824599
 30
0.0
  0
LWPOLYLINE
  5
216
100
AcDbEntity
  8
Layer_1
 62
7
100
AcDbPolyline
 90
2
 70
0
 10
164.438416
 20
222.512251
 30
0.0
 10
160.936679
 20
221.043561
 30
0.0
  0
SPLINE
  5
217
100
AcDbEntity
  8
Layer_1
 62
7
100
AcDbSpline
 70
8
 71
3
 72
8
 73
4
 74
0
 40
0
 40
0
 40
0
 40
0
 40
1
 40
1
 40
1
 40
1
 10
156.929242
 20
219.160786
 30
0.0
 10
156.874483
 20
219.134877
 30
0.0
 10
156.819922
 20
219.108555
 30
0.0
 10
156.765561
 20
219.081820
 30
0.0
  0
LWPOLYLINE
  5
218
100
AcDbEntity
  8
Layer_1
 62
7
100
AcDbPolyline
 90
2
 70
0
 10
160.445748
 20
220.824599
 30
0.0
 10
156.929242
 20
219.160786
 30
0.0
  0
SPLINE
  5
219
100
AcDbEntity
  8
Layer_1
 62
7
100
AcDbSpline
 70
8
 71
3
 72
8
 73
4
 74
0
 40
0
 40
0
 40
0
 40
0
 40
1
 40
1
 40
1
 40
1
 10
153.162594
 20
103.576500
 30
0.0
 10
153.162594
 20
103.576500
 30
0.0
 10
156.765561
 20
101.804511
 30
0.0
 10
156.765561
 20
101.804511
 30
0.0
  0
SPLINE
  5
21a
100
AcDbEntity
  8
Layer_1
 62
7
100
AcDbSpline
 70
8
 71
3
 72
8
 73
4
 74
0
 40
0
 40
0
 40
0
 40
0
 40
1
 40
1
 40
1
 40
1
 10
156.765561
 20
101.804511
 30
0.0
 10
156.819922
 20
101.777776
 30
0.0
 10
156.874483
 20
101.751454
 30
0.0
 10
156.929242
 20
101.725545
 30
0.0
  0
LWPOLYLINE
  5
21b
100
AcDbEntity
  8
Layer_1
 62
7
100
AcDbPolyline
 90
2
 70
0
 10
156.765561
 20
219.081820
 30
0.0
 10
153.162594
 20
217.309831
 30
0.0
  0
SPLINE
  5
21c
100
AcDbEntity
  8
Layer_1
 62
7
100
AcDbSpline
 70
8
 71
3
 72
8
 73
4
 74
0
 40
0
 40
0
 40
0
 40
0
 40
1
 40
1
 40
1
 40
1
 10
160.445748
 20
100.061732
 30
0.0
 10
160.607736
 20
99.985088
 30
0.0
 10
160.771421
 20
99.912083
 30
0.0
 10
160.936679
 20
99.842770
 30
0.0
  0
LWPOLYLINE
  5
21d
100
AcDbEntity
  8
Layer_1
 62
7
100
AcDbPolyline
 90
2
 70
0
 10
156.929242
 20
101.725545
 30
0.0
 10
160.445748
 20
100.061732
 30
0.0
  0
SPLINE
  5
21e
100
AcDbEntity
  8
Layer_1
 62
7
100
AcDbSpline
 70
8
 71
3
 72
8
 73
4
 74
0
 40
0
 40
0
 40
0
 40
0
 40
1
 40
1
 40
1
 40
1
 10
164.438416
 20
98.374080
 30
0.0
 10
164.702032
 20
98.263515
 30
0.0
 10
164.969516
 20
98.162404
 30
0.0
 10
165.240353
 20
98.070942
 30
0.0
  0
LWPOLYLINE
  5
21f
100
AcDbEntity
  8
Layer_1
 62
7
100
AcDbPolyline
 90
2
 70
0
 10
160.936679
 20
99.842770
 30
0.0
 10
164.438416
 20
98.374080
 30
0.0
  0
SPLINE
  5
220
100
AcDbEntity
  8
Layer_1
 62
7
100
AcDbSpline
 70
8
 71
3
 72
8
 73
4
 74
0
 40
0
 40
0
 40
0
 40
0
 40
1
 40
1
 40
1
 40
1
 10
168.875505
 20
96.843355
 30
0.0
 10
169.216895
 20
96.728067
 30
0.0
 10
169.563304
 20
96.628214
 30
0.0
 10
169.913680
 20
96.544100
 30
0.0
  0
SPLINE
  5
221
100
AcDbEntity
  8
Layer_1
 62
7
100
AcDbSpline
 70
8
 71
3
 72
8
 73
4
 74
0
 40
0
 40
0
 40
0
 40
0
 40
1
 40
1
 40
1
 40
1
 10
169.913680
 20
96.544100
 30
0.0
 10
169.913680
 20
96.544100
 30
0.0
 10
173.839648
 20
95.601611
 30
0.0
 10
173.839648
 20
95.601611
 30
0.0
  0
SPLINE
  5
222
100
AcDbEntity
  8
Layer_1
 62
7
100
AcDbSpline
 70
8
 71
3
 72
8
 73
4
 74
0
 40
0
 40
0
 40
0
 40
0
 40
1
 40
1
 40
1
 40
1
 10
173.839648
 20
95.601611
 30
0.0
 10
174.219292
 20
95.510472
 30
0.0
 10
174.603157
 20
95.437916
 30
0.0
 10
174.989875
 20
95.384201
 30
0.0
  0
LWPOLYLINE
  5
223
100
AcDbEntity
  8
Layer_1
 62
7
100
AcDbPolyline
 90
2
 70
0
 10
165.240353
 20
98.070942
 30
0.0
 10
168.875505
 20
96.843355
 30
0.0
  0
SPLINE
  5
224
100
AcDbEntity
  8
Layer_1
 62
7
100
AcDbSpline
 70
8
 71
3
 72
8
 73
4
 74
0
 40
0
 40
0
 40
0
 40
0
 40
1
 40
1
 40
1
 40
1
 10
179.463021
 20
94.762860
 30
0.0
 10
179.773767
 20
94.705858
 30
0.0
 10
180.089046
 20
94.677179
 30
0.0
 10
180.404977
 20
94.677178
 30
0.0
  0
SPLINE
  5
225
100
AcDbEntity
  8
Layer_1
 62
7
100
AcDbSpline
 70
8
 71
3
 72
8
 73
4
 74
0
 40
0
 40
0
 40
0
 40
0
 40
1
 40
1
 40
1
 40
1
 10
180.404977
 20
94.677178
 30
0.0
 10
180.404977
 20
94.677178
 30
0.0
 10
186.215840
 20
94.438982
 30
0.0
 10
186.215840
 20
94.438982
 30
0.0
  0
SPLINE
  5
226
100
AcDbEntity
  8
Layer_1
 62
7
100
AcDbSpline
 70
8
 71
3
 72
8
 73
4
 74
0
 40
0
 40
0
 40
0
 40
0
 40
1
 40
1
 40
1
 40
1
 10
186.215840
 20
94.438982
 30
0.0
 10
188.889103
 20
94.215274
 30
0.0
 10
190.910479
 20
91.923454
 30
0.0
 10
190.798514
 20
89.243184
 30
0.0
  0
SPLINE
  5
227
100
AcDbEntity
  8
Layer_1
 62
7
100
AcDbSpline
 70
8
 71
3
 72
8
 73
4
 74
0
 40
0
 40
0
 40
0
 40
0
 40
1
 40
1
 40
1
 40
1
 10
190.798514
 20
89.243184
 30
0.0
 10
190.686548
 20
86.562915
 30
0.0
 10
188.481071
 20
84.447667
 30
0.0
 10
185.798464
 20
84.447695
 30
0.0
  0
LWPOLYLINE
  5
228
100
AcDbEntity
  8
Layer_1
 62
7
100
AcDbPolyline
 90
2
 70
0
 10
174.989875
 20
95.384201
 30
0.0
 10
179.463021
 20
94.762860
 30
0.0
  0
SPLINE
  5
229
100
AcDbEntity
  8
Layer_1
 62
7
100
AcDbSpline
 70
8
 71
3
 72
8
 73
4
 74
0
 40
0
 40
0
 40
0
 40
0
 40
1
 40
1
 40
1
 40
1
 10
180.509134
 20
84.672767
 30
0.0
 10
180.127438
 20
84.689009
 30
0.0
 10
179.746736
 20
84.723470
 30
0.0
 10
179.368327
 20
84.776032
 30
0.0
  0
LWPOLYLINE
  5
22a
100
AcDbEntity
  8
Layer_1
 62
7
100
AcDbPolyline
 90
2
 70
0
 10
185.798464
 20
84.447695
 30
0.0
 10
180.509134
 20
84.672767
 30
0.0
  0
SPLINE
  5
22b
100
AcDbEntity
  8
Layer_1
 62
7
100
AcDbSpline
 70
8
 71
3
 72
8
 73
4
 74
0
 40
0
 40
0
 40
0
 40
0
 40
1
 40
1
 40
1
 40
1
 10
174.989875
 20
85.384193
 30
0.0
 10
174.603157
 20
85.437912
 30
0.0
 10
174.219291
 20
85.510473
 30
0.0
 10
173.839648
 20
85.601617
 30
0.0
  0
LWPOLYLINE
  5
22c
100
AcDbEntity
  8
Layer_1
 62
7
100
AcDbPolyline
 90
2
 70
0
 10
179.368327
 20
84.776032
 30
0.0
 10
174.989875
 20
85.384193
 30
0.0
  0
SPLINE
  5
22d
100
AcDbEntity
  8
Layer_1
 62
7
100
AcDbSpline
 70
8
 71
3
 72
8
 73
4
 74
0
 40
0
 40
0
 40
0
 40
0
 40
1
 40
1
 40
1
 40
1
 10
169.913680
 20
86.544098
 30
0.0
 10
169.563304
 20
86.628216
 30
0.0
 10
169.216895
 20
86.728074
 30
0.0
 10
168.875505
 20
86.843366
 30
0.0
  0
LWPOLYLINE
  5
22e
100
AcDbEntity
  8
Layer_1
 62
7
100
AcDbPolyline
 90
2
 70
0
 10
173.839648
 20
85.601617
 30
0.0
 10
169.913680
 20
86.544098
 30
0.0
  0
SPLINE
  5
22f
100
AcDbEntity
  8
Layer_1
 62
7
100
AcDbSpline
 70
8
 71
3
 72
8
 73
4
 74
0
 40
0
 40
0
 40
0
 40
0
 40
1
 40
1
 40
1
 40
1
 10
165.240353
 20
88.070948
 30
0.0
 10
164.969516
 20
88.162409
 30
0.0
 10
164.702033
 20
88.263519
 30
0.0
 10
164.438416
 20
88.374083
 30
0.0
  0
SPLINE
  5
230
100
AcDbEntity
  8
Layer_1
 62
7
100
AcDbSpline
 70
8
 71
3
 72
8
 73
4
 74
0
 40
0
 40
0
 40
0
 40
0
 40
1
 40
1
 40
1
 40
1
 10
164.438416
 20
88.374083
 30
0.0
 10
164.438416
 20
88.374083
 30
0.0
 10
160.936679
 20
89.842768
 30
0.0
 10
160.936679
 20
89.842768
 30
0.0
  0
SPLINE
  5
231
100
AcDbEntity
  8
Layer_1
 62
7
100
AcDbSpline
 70
8
 71
3
 72
8
 73
4
 74
0
 40
0
 40
0
 40
0
 40
0
 40
1
 40
1
 40
1
 40
1
 10
160.936679
 20
89.842768
 30
0.0
 10
160.771421
 20
89.912085
 30
0.0
 10
160.607736
 20
89.985095
 30
0.0
 10
160.445748
 20
90.061744
 30
0.0
  0
LWPOLYLINE
  5
232
100
AcDbEntity
  8
Layer_1
 62
7
100
AcDbPolyline
 90
2
 70
0
 10
168.875505
 20
86.843366
 30
0.0
 10
165.240353
 20
88.070948
 30
0.0
  0
SPLINE
  5
233
100
AcDbEntity
  8
Layer_1
 62
7
100
AcDbSpline
 70
8
 71
3
 72
8
 73
4
 74
0
 40
0
 40
0
 40
0
 40
0
 40
1
 40
1
 40
1
 40
1
 10
156.929242
 20
91.725557
 30
0.0
 10
156.874483
 20
91.751465
 30
0.0
 10
156.819922
 20
91.777788
 30
0.0
 10
156.765561
 20
91.804522
 30
0.0
  0
LWPOLYLINE
  5
234
100
AcDbEntity
  8
Layer_1
 62
7
100
AcDbPolyline
 90
2
 70
0
 10
160.445748
 20
90.061744
 30
0.0
 10
156.929242
 20
91.725557
 30
0.0
  0
SPLINE
  5
235
100
AcDbEntity
  8
Layer_1
 62
7
100
AcDbSpline
 70
8
 71
3
 72
8
 73
4
 74
0
 40
0
 40
0
 40
0
 40
0
 40
1
 40
1
 40
1
 40
1
 10
73.852502
 20
153.826935
 30
0.0
 10
67.225980
 20
153.823867
 30
0.0
 10
61.856255
 20
148.450193
 30
0.0
 10
61.858058
 20
141.823671
 30
0.0
  0
LWPOLYLINE
  5
236
100
AcDbEntity
  8
Layer_1
 62
7
100
AcDbPolyline
 90
2
 70
0
 10
156.765561
 20
91.804522
 30
0.0
 10
153.162594
 20
93.576511
 30
0.0
  0
SPLINE
  5
237
100
AcDbEntity
  8
Layer_1
 62
7
100
AcDbSpline
 70
8
 71
3
 72
8
 73
4
 74
0
 40
0
 40
0
 40
0
 40
0
 40
1
 40
1
 40
1
 40
1
 10
131.857988
 20
138.825060
 30
0.0
 10
134.616455
 20
138.820539
 30
0.0
 10
136.850142
 20
136.582906
 30
0.0
 10
136.849794
 20
133.824435
 30
0.0
  0
LWPOLYLINE
  5
238
100
AcDbEntity
  8
Layer_1
 62
7
100
AcDbPolyline
 90
10
 70
0
 10
61.858058
 20
141.823671
 30
0.0
 10
61.858058
 20
138.825060
 30
0.0
 10
61.858058
 20
135.826449
 30
0.0
 10
72.511947
 20
135.826449
 30
0.0
 10
72.511947
 20
138.825060
 30
0.0
 10
87.505002
 20
138.825060
 30
0.0
 10
87.505002
 20
135.826449
 30
0.0
 10
98.167710
 20
135.826449
 30
0.0
 10
98.167710
 20
138.825060
 30
0.0
 10
131.857988
 20
138.825060
 30
0.0
  0
SPLINE
  5
239
100
AcDbEntity
  8
Layer_1
 62
7
100
AcDbSpline
 70
8
 71
3
 72
8
 73
4
 74
0
 40
0
 40
0
 40
0
 40
0
 40
1
 40
1
 40
1
 40
1
 10
189.995766
 20
129.820407
 30
0.0
 10
189.995766
 20
129.820407
 30
0.0
 10
189.995766
 20
134.873949
 30
0.0
 10
189.995766
 20
134.873949
 30
0.0
  0
SPLINE
  5
23a
100
AcDbEntity
  8
Layer_1
 62
7
100
AcDbSpline
 70
8
 71
3
 72
8
 73
4
 74
0
 40
0
 40
0
 40
0
 40
0
 40
1
 40
1
 40
1
 40
1
 10
189.995766
 20
134.873949
 30
0.0
 10
189.993303
 20
137.188561
 30
0.0
 10
188.402531
 20
139.198917
 30
0.0
 10
186.150488
 20
139.733463
 30
0.0
  0
LWPOLYLINE
  5
23b
100
AcDbEntity
  8
Layer_1
 62
7
100
AcDbPolyline
 90
13
 70
0
 10
136.849794
 20
133.824435
 30
0.0
 10
136.849794
 20
126.821796
 30
0.0
 10
146.851044
 20
126.821796
 30
0.0
 10
146.851044
 20
129.820407
 30
0.0
 10
153.421530
 20
129.820407
 30
0.0
 10
153.421530
 20
126.821796
 30
0.0
 10
163.422780
 20
126.821796
 30
0.0
 10
163.422780
 20
129.820407
 30
0.0
 10
169.993266
 20
129.820407
 30
0.0
 10
169.993266
 20
126.821796
 30
0.0
 10
179.994516
 20
126.821796
 30
0.0
 10
179.994516
 20
129.820407
 30
0.0
 10
189.995766
 20
129.820407
 30
0.0
  0
SPLINE
  5
23c
100
AcDbEntity
  8
Layer_1
 62
7
100
AcDbSpline
 70
8
 71
3
 72
8
 73
4
 74
0
 40
0
 40
0
 40
0
 40
0
 40
1
 40
1
 40
1
 40
1
 10
127.421808
 20
153.685824
 30
0.0
 10
127.043499
 20
153.777678
 30
0.0
 10
126.655756
 20
153.825036
 30
0.0
 10
126.266460
 20
153.826935
 30
0.0
  0
LWPOLYLINE
  5
23d
100
AcDbEntity
  8
Layer_1
 62
7
100
AcDbPolyline
 90
2
 70
0
 10
186.150488
 20
139.733463
 30
0.0
 10
127.421808
 20
153.685824
 30
0.0
  0
LWPOLYLINE
  5
23e
100
AcDbEntity
  8
Layer_1
 62
7
100
AcDbPolyline
 90
3
 70
0
 10
126.266460
 20
153.826935
 30
0.0
 10
73.852502
 20
153.826935
 30
0.0
 10
73.852502
 20
153.826935
 30
0.0
  0
LWPOLYLINE
  5
23f
100
AcDbEntity
  8
Layer_1
 62
7
100
AcDbPolyline
 90
5
 70
0
 10
89.664671
 20
141.822903
 30
0.0
 10
95.664671
 20
141.822903
 30
0.0
 10
95.664671
 20
138.823592
 30
0.0
 10
89.664671
 20
138.823592
 30
0.0
 10
89.664671
 20
141.822903
 30
0.0
  0
SPLINE
  5
240
100
AcDbEntity
  8
Layer_1
 62
7
100
AcDbSpline
 70
8
 71
3
 72
8
 73
4
 74
0
 40
0
 40
0
 40
0
 40
0
 40
1
 40
1
 40
1
 40
1
 10
76.273035
 20
159.918667
 30
0.0
 10
69.646513
 20
159.921734
 30
0.0
 10
64.276787
 20
165.295408
 30
0.0
 10
64.278590
 20
171.921931
 30
0.0
  0
LWPOLYLINE
  5
241
100
AcDbEntity
  8
Layer_1
 62
7
100
AcDbPolyline
 90
5
 70
0
 10
64.334899
 20
141.822903
 30
0.0
 10
70.334899
 20
141.822903
 30
0.0
 10
70.334899
 20
138.823592
 30
0.0
 10
64.334899
 20
138.823592
 30
0.0
 10
64.334899
 20
141.822903
 30
0.0
  0
SPLINE
  5
242
100
AcDbEntity
  8
Layer_1
 62
7
100
AcDbSpline
 70
8
 71
3
 72
8
 73
4
 74
0
 40
0
 40
0
 40
0
 40
0
 40
1
 40
1
 40
1
 40
1
 10
134.278521
 20
174.920542
 30
0.0
 10
137.036988
 20
174.925062
 30
0.0
 10
139.270675
 20
177.162696
 30
0.0
 10
139.270326
 20
179.921167
 30
0.0
  0
LWPOLYLINE
  5
243
100
AcDbEntity
  8
Layer_1
 62
7
100
AcDbPolyline
 90
10
 70
0
 10
64.278590
 20
171.921931
 30
0.0
 10
64.278590
 20
174.920542
 30
0.0
 10
64.278590
 20
177.919153
 30
0.0
 10
74.932479
 20
177.919153
 30
0.0
 10
74.932479
 20
174.920542
 30
0.0
 10
89.925535
 20
174.920542
 30
0.0
 10
89.925535
 20
177.919153
 30
0.0
 10
100.588243
 20
177.919153
 30
0.0
 10
100.588243
 20
174.920542
 30
0.0
 10
134.278521
 20
174.920542
 30
0.0
  0
SPLINE
  5
244
100
AcDbEntity
  8
Layer_1
 62
7
100
AcDbSpline
 70
8
 71
3
 72
8
 73
4
 74
0
 40
0
 40
0
 40
0
 40
0
 40
1
 40
1
 40
1
 40
1
 10
192.416298
 20
183.925194
 30
0.0
 10
192.416298
 20
183.925194
 30
0.0
 10
192.416298
 20
178.871653
 30
0.0
 10
192.416298
 20
178.871653
 30
0.0
  0
SPLINE
  5
245
100
AcDbEntity
  8
Layer_1
 62
7
100
AcDbSpline
 70
8
 71
3
 72
8
 73
4
 74
0
 40
0
 40
0
 40
0
 40
0
 40
1
 40
1
 40
1
 40
1
 10
192.416298
 20
178.871653
 30
0.0
 10
192.413835
 20
176.557041
 30
0.0
 10
190.823063
 20
174.546685
 30
0.0
 10
188.571021
 20
174.012139
 30
0.0
  0
LWPOLYLINE
  5
246
100
AcDbEntity
  8
Layer_1
 62
7
100
AcDbPolyline
 90
13
 70
0
 10
139.270326
 20
179.921167
 30
0.0
 10
139.270326
 20
186.923806
 30
0.0
 10
149.271576
 20
186.923806
 30
0.0
 10
149.271576
 20
183.925194
 30
0.0
 10
155.842062
 20
183.925194
 30
0.0
 10
155.842062
 20
186.923806
 30
0.0
 10
165.843312
 20
186.923806
 30
0.0
 10
165.843312
 20
183.925194
 30
0.0
 10
172.413798
 20
183.925194
 30
0.0
 10
172.413798
 20
186.923806
 30
0.0
 10
182.415048
 20
186.923806
 30
0.0
 10
182.415048
 20
183.925194
 30
0.0
 10
192.416298
 20
183.925194
 30
0.0
  0
SPLINE
  5
247
100
AcDbEntity
  8
Layer_1
 62
7
100
AcDbSpline
 70
8
 71
3
 72
8
 73
4
 74
0
 40
0
 40
0
 40
0
 40
0
 40
1
 40
1
 40
1
 40
1
 10
129.842340
 20
160.059778
 30
0.0
 10
129.464031
 20
159.967923
 30
0.0
 10
129.076289
 20
159.920566
 30
0.0
 10
128.686993
 20
159.918667
 30
0.0
  0
LWPOLYLINE
  5
248
100
AcDbEntity
  8
Layer_1
 62
7
100
AcDbPolyline
 90
2
 70
0
 10
188.571021
 20
174.012139
 30
0.0
 10
129.842340
 20
160.059778
 30
0.0
  0
LWPOLYLINE
  5
249
100
AcDbEntity
  8
Layer_1
 62
7
100
AcDbPolyline
 90
3
 70
0
 10
128.686993
 20
159.918667
 30
0.0
 10
76.273035
 20
159.918667
 30
0.0
 10
76.273035
 20
159.918667
 30
0.0
  0
LWPOLYLINE
  5
24a
100
AcDbEntity
  8
Layer_1
 62
7
100
AcDbPolyline
 90
5
 70
0
 10
92.085203
 20
171.922698
 30
0.0
 10
98.085203
 20
171.922698
 30
0.0
 10
98.085203
 20
174.922010
 30
0.0
 10
92.085203
 20
174.922010
 30
0.0
 10
92.085203
 20
171.922698
 30
0.0
  0
LWPOLYLINE
  5
24b
100
AcDbEntity
  8
Layer_1
 62
7
100
AcDbPolyline
 90
5
 70
0
 10
66.755432
 20
171.922698
 30
0.0
 10
72.755431
 20
171.922698
 30
0.0
 10
72.755431
 20
174.922010
 30
0.0
 10
66.755432
 20
174.922010
 30
0.0
 10
66.755432
 20
171.922698
 30
0.0
  0
SPLINE
  5
24c
100
AcDbEntity
  8
Layer_1
 62
7
100
AcDbSpline
 70
8
 71
3
 72
8
 73
4
 74
0
 40
0
 40
0
 40
0
 40
0
 40
1
 40
1
 40
1
 40
1
 10
86.734971
 20
64.026614
 30
0.0
 10
86.734971
 20
63.603529
 30
0.0
 10
87.026141
 20
63.461290
 30
0.0
 10
87.449321
 20
63.461290
 30
0.0
  0
SPLINE
  5
24d
100
AcDbEntity
  8
Layer_1
 62
7
100
AcDbSpline
 70
8
 71
3
 72
8
 73
4
 74
0
 40
0
 40
0
 40
0
 40
0
 40
1
 40
1
 40
1
 40
1
 10
87.449321
 20
63.461290
 30
0.0
 10
87.706652
 20
63.461290
 30
0.0
 10
87.896208
 20
63.528873
 30
0.0
 10
88.028219
 20
63.711834
 30
0.0
  0
LWPOLYLINE
  5
24e
100
AcDbEntity
  8
Layer_1
 62
7
100
AcDbPolyline
 90
3
 70
0
 10
87.080341
 20
65.197984
 30
0.0
 10
86.734971
 20
65.197984
 30
0.0
 10
86.734971
 20
64.026614
 30
0.0
  0
SPLINE
  5
24f
100
AcDbEntity
  8
Layer_1
 62
7
100
AcDbSpline
 70
8
 71
3
 72
8
 73
4
 74
0
 40
0
 40
0
 40
0
 40
0
 40
1
 40
1
 40
1
 40
1
 10
87.757410
 20
63.918310
 30
0.0
 10
87.696519
 20
63.820138
 30
0.0
 10
87.611826
 20
63.786108
 30
0.0
 10
87.432402
 20
63.786108
 30
0.0
  0
SPLINE
  5
250
100
AcDbEntity
  8
Layer_1
 62
7
100
AcDbSpline
 70
8
 71
3
 72
8
 73
4
 74
0
 40
0
 40
0
 40
0
 40
0
 40
1
 40
1
 40
1
 40
1
 10
87.432402
 20
63.786108
 30
0.0
 10
87.185299
 20
63.786108
 30
0.0
 10
87.080341
 20
63.843845
 30
0.0
 10
87.080341
 20
64.006253
 30
0.0
  0
LWPOLYLINE
  5
251
100
AcDbEntity
  8
Layer_1
 62
7
100
AcDbPolyline
 90
2
 70
0
 10
88.028219
 20
63.711834
 30
0.0
 10
87.757410
 20
63.918310
 30
0.0
  0
SPLINE
  5
252
100
AcDbEntity
  8
Layer_1
 62
7
100
AcDbSpline
 70
8
 71
3
 72
8
 73
4
 74
0
 40
0
 40
0
 40
0
 40
0
 40
1
 40
1
 40
1
 40
1
 10
87.557721
 20
64.185677
 30
0.0
 10
87.926702
 20
64.185677
 30
0.0
 10
88.116258
 20
64.419397
 30
0.0
 10
88.116258
 20
64.693551
 30
0.0
  0
SPLINE
  5
253
100
AcDbEntity
  8
Layer_1
 62
7
100
AcDbSpline
 70
8
 71
3
 72
8
 73
4
 74
0
 40
0
 40
0
 40
0
 40
0
 40
1
 40
1
 40
1
 40
1
 10
88.116258
 20
64.693551
 30
0.0
 10
88.116258
 20
64.991508
 30
0.0
 10
87.892863
 20
65.218345
 30
0.0
 10
87.510308
 20
65.218345
 30
0.0
  0
SPLINE
  5
254
100
AcDbEntity
  8
Layer_1
 62
7
100
AcDbSpline
 70
8
 71
3
 72
8
 73
4
 74
0
 40
0
 40
0
 40
0
 40
0
 40
1
 40
1
 40
1
 40
1
 10
87.510308
 20
65.218345
 30
0.0
 10
87.276684
 20
65.218345
 30
0.0
 10
87.158152
 20
65.164241
 30
0.0
 10
87.087128
 20
65.045612
 30
0.0
  0
LWPOLYLINE
  5
255
100
AcDbEntity
  8
Layer_1
 62
7
100
AcDbPolyline
 90
3
 70
0
 10
87.080341
 20
64.006253
 30
0.0
 10
87.080341
 20
64.185677
 30
0.0
 10
87.557721
 20
64.185677
 30
0.0
  0
SPLINE
  5
256
100
AcDbEntity
  8
Layer_1
 62
7
100
AcDbSpline
 70
8
 71
3
 72
8
 73
4
 74
0
 40
0
 40
0
 40
0
 40
0
 40
1
 40
1
 40
1
 40
1
 10
87.080341
 20
64.595284
 30
0.0
 10
87.080341
 20
64.862843
 30
0.0
 10
87.178512
 20
64.893241
 30
0.0
 10
87.466241
 20
64.893241
 30
0.0
  0
SPLINE
  5
257
100
AcDbEntity
  8
Layer_1
 62
7
100
AcDbSpline
 70
8
 71
3
 72
8
 73
4
 74
0
 40
0
 40
0
 40
0
 40
0
 40
1
 40
1
 40
1
 40
1
 10
87.466241
 20
64.893241
 30
0.0
 10
87.699865
 20
64.893241
 30
0.0
 10
87.791345
 20
64.791628
 30
0.0
 10
87.791345
 20
64.676632
 30
0.0
  0
SPLINE
  5
258
100
AcDbEntity
  8
Layer_1
 62
7
100
AcDbSpline
 70
8
 71
3
 72
8
 73
4
 74
0
 40
0
 40
0
 40
0
 40
0
 40
1
 40
1
 40
1
 40
1
 10
87.791345
 20
64.676632
 30
0.0
 10
87.791345
 20
64.551312
 30
0.0
 10
87.696519
 20
64.469964
 30
0.0
 10
87.493293
 20
64.469964
 30
0.0
  0
LWPOLYLINE
  5
259
100
AcDbEntity
  8
Layer_1
 62
7
100
AcDbPolyline
 90
4
 70
0
 10
87.087128
 20
65.045612
 30
0.0
 10
87.080341
 20
65.045612
 30
0.0
 10
87.080341
 20
65.197984
 30
0.0
 10
87.080341
 20
65.197984
 30
0.0
  0
LWPOLYLINE
  5
25a
100
AcDbEntity
  8
Layer_1
 62
7
100
AcDbPolyline
 90
4
 70
0
 10
87.493293
 20
64.469964
 30
0.0
 10
87.080341
 20
64.469964
 30
0.0
 10
87.080341
 20
64.595284
 30
0.0
 10
87.080341
 20
64.595284
 30
0.0
  0
SPLINE
  5
25b
100
AcDbEntity
  8
Layer_1
 62
7
100
AcDbSpline
 70
8
 71
3
 72
8
 73
4
 74
0
 40
0
 40
0
 40
0
 40
0
 40
1
 40
1
 40
1
 40
1
 10
86.010393
 20
64.165316
 30
0.0
 10
86.010393
 20
63.914964
 30
0.0
 10
85.844447
 20
63.806469
 30
0.0
 10
85.675156
 20
63.806469
 30
0.0
  0
SPLINE
  5
25c
100
AcDbEntity
  8
Layer_1
 62
7
100
AcDbSpline
 70
8
 71
3
 72
8
 73
4
 74
0
 40
0
 40
0
 40
0
 40
0
 40
1
 40
1
 40
1
 40
1
 10
85.675156
 20
63.806469
 30
0.0
 10
85.587116
 20
63.806469
 30
0.0
 10
85.529571
 20
63.830175
 30
0.0
 10
85.448319
 20
63.891258
 30
0.0
  0
LWPOLYLINE
  5
25d
100
AcDbEntity
  8
Layer_1
 62
7
100
AcDbPolyline
 90
3
 70
0
 10
86.355667
 20
65.197984
 30
0.0
 10
86.010393
 20
65.197984
 30
0.0
 10
86.010393
 20
64.165316
 30
0.0
  0
SPLINE
  5
25e
100
AcDbEntity
  8
Layer_1
 62
7
100
AcDbSpline
 70
8
 71
3
 72
8
 73
4
 74
0
 40
0
 40
0
 40
0
 40
0
 40
1
 40
1
 40
1
 40
1
 10
85.197871
 20
63.593301
 30
0.0
 10
85.302829
 20
63.512049
 30
0.0
 10
85.417825
 20
63.461290
 30
0.0
 10
85.556719
 20
63.461290
 30
0.0
  0
SPLINE
  5
25f
100
AcDbEntity
  8
Layer_1
 62
7
100
AcDbSpline
 70
8
 71
3
 72
8
 73
4
 74
0
 40
0
 40
0
 40
0
 40
0
 40
1
 40
1
 40
1
 40
1
 10
85.556719
 20
63.461290
 30
0.0
 10
85.739488
 20
63.461290
 30
0.0
 10
85.895301
 20
63.529064
 30
0.0
 10
86.003606
 20
63.664421
 30
0.0
  0
LWPOLYLINE
  5
260
100
AcDbEntity
  8
Layer_1
 62
7
100
AcDbPolyline
 90
2
 70
0
 10
85.448319
 20
63.891258
 30
0.0
 10
85.197871
 20
63.593301
 30
0.0
  0
LWPOLYLINE
  5
261
100
AcDbEntity
  8
Layer_1
 62
7
100
AcDbPolyline
 90
6
 70
0
 10
86.003606
 20
63.664421
 30
0.0
 10
86.010393
 20
63.664421
 30
0.0
 10
86.010393
 20
63.481651
 30
0.0
 10
86.355667
 20
63.481651
 30
0.0
 10
86.355667
 20
65.197984
 30
0.0
 10
86.355667
 20
65.197984
 30
0.0
  0
SPLINE
  5
262
100
AcDbEntity
  8
Layer_1
 62
7
100
AcDbSpline
 70
8
 71
3
 72
8
 73
4
 74
0
 40
0
 40
0
 40
0
 40
0
 40
1
 40
1
 40
1
 40
1
 10
84.165012
 20
63.664421
 30
0.0
 10
84.293677
 20
63.542542
 30
0.0
 10
84.432475
 20
63.461290
 30
0.0
 10
84.608553
 20
63.461290
 30
0.0
  0
SPLINE
  5
263
100
AcDbEntity
  8
Layer_1
 62
7
100
AcDbSpline
 70
8
 71
3
 72
8
 73
4
 74
0
 40
0
 40
0
 40
0
 40
0
 40
1
 40
1
 40
1
 40
1
 10
84.608553
 20
63.461290
 30
0.0
 10
84.818471
 20
63.461290
 30
0.0
 10
84.970747
 20
63.555925
 30
0.0
 10
85.068919
 20
63.684781
 30
0.0
  0
SPLINE
  5
264
100
AcDbEntity
  8
Layer_1
 62
7
100
AcDbSpline
 70
8
 71
3
 72
8
 73
4
 74
0
 40
0
 40
0
 40
0
 40
0
 40
1
 40
1
 40
1
 40
1
 10
85.068919
 20
63.684781
 30
0.0
 10
85.163745
 20
63.806469
 30
0.0
 10
85.190797
 20
63.918119
 30
0.0
 10
85.190797
 20
64.338240
 30
0.0
  0
SPLINE
  5
265
100
AcDbEntity
  8
Layer_1
 62
7
100
AcDbSpline
 70
8
 71
3
 72
8
 73
4
 74
0
 40
0
 40
0
 40
0
 40
0
 40
1
 40
1
 40
1
 40
1
 10
85.190797
 20
64.338240
 30
0.0
 10
85.190797
 20
64.761325
 30
0.0
 10
85.163745
 20
64.872975
 30
0.0
 10
85.068919
 20
64.994854
 30
0.0
  0
SPLINE
  5
266
100
AcDbEntity
  8
Layer_1
 62
7
100
AcDbSpline
 70
8
 71
3
 72
8
 73
4
 74
0
 40
0
 40
0
 40
0
 40
0
 40
1
 40
1
 40
1
 40
1
 10
85.068919
 20
64.994854
 30
0.0
 10
84.970747
 20
65.123519
 30
0.0
 10
84.818471
 20
65.218345
 30
0.0
 10
84.608553
 20
65.218345
 30
0.0
  0
SPLINE
  5
267
100
AcDbEntity
  8
Layer_1
 62
7
100
AcDbSpline
 70
8
 71
3
 72
8
 73
4
 74
0
 40
0
 40
0
 40
0
 40
0
 40
1
 40
1
 40
1
 40
1
 10
84.608553
 20
65.218345
 30
0.0
 10
84.432475
 20
65.218345
 30
0.0
 10
84.273316
 20
65.136902
 30
0.0
 10
84.165012
 20
65.018560
 30
0.0
  0
LWPOLYLINE
  5
268
100
AcDbEntity
  8
Layer_1
 62
7
100
AcDbPolyline
 90
5
 70
0
 10
84.165012
 20
65.197984
 30
0.0
 10
83.819738
 20
65.197984
 30
0.0
 10
83.819738
 20
62.787470
 30
0.0
 10
84.165012
 20
62.787470
 30
0.0
 10
84.165012
 20
63.664421
 30
0.0
  0
SPLINE
  5
269
100
AcDbEntity
  8
Layer_1
 62
7
100
AcDbSpline
 70
8
 71
3
 72
8
 73
4
 74
0
 40
0
 40
0
 40
0
 40
0
 40
1
 40
1
 40
1
 40
1
 10
84.503595
 20
63.806469
 30
0.0
 10
84.181931
 20
63.806469
 30
0.0
 10
84.165012
 20
64.091042
 30
0.0
 10
84.165012
 20
64.338240
 30
0.0
  0
SPLINE
  5
26a
100
AcDbEntity
  8
Layer_1
 62
7
100
AcDbSpline
 70
8
 71
3
 72
8
 73
4
 74
0
 40
0
 40
0
 40
0
 40
0
 40
1
 40
1
 40
1
 40
1
 10
84.165012
 20
64.338240
 30
0.0
 10
84.165012
 20
64.588784
 30
0.0
 10
84.181931
 20
64.872975
 30
0.0
 10
84.503595
 20
64.872975
 30
0.0
  0
SPLINE
  5
26b
100
AcDbEntity
  8
Layer_1
 62
7
100
AcDbSpline
 70
8
 71
3
 72
8
 73
4
 74
0
 40
0
 40
0
 40
0
 40
0
 40
1
 40
1
 40
1
 40
1
 10
84.503595
 20
64.872975
 30
0.0
 10
84.828603
 20
64.872975
 30
0.0
 10
84.845523
 20
64.605608
 30
0.0
 10
84.845523
 20
64.338240
 30
0.0
  0
SPLINE
  5
26c
100
AcDbEntity
  8
Layer_1
 62
7
100
AcDbSpline
 70
8
 71
3
 72
8
 73
4
 74
0
 40
0
 40
0
 40
0
 40
0
 40
1
 40
1
 40
1
 40
1
 10
84.845523
 20
64.338240
 30
0.0
 10
84.845523
 20
64.074027
 30
0.0
 10
84.828603
 20
63.806469
 30
0.0
 10
84.503595
 20
63.806469
 30
0.0
  0
LWPOLYLINE
  5
26d
100
AcDbEntity
  8
Layer_1
 62
7
100
AcDbPolyline
 90
3
 70
0
 10
84.165012
 20
65.018560
 30
0.0
 10
84.165012
 20
65.197984
 30
0.0
 10
84.165012
 20
65.197984
 30
0.0
  0
SPLINE
  5
26e
100
AcDbEntity
  8
Layer_1
 62
7
100
AcDbSpline
 70
8
 71
3
 72
8
 73
4
 74
0
 40
0
 40
0
 40
0
 40
0
 40
1
 40
1
 40
1
 40
1
 10
79.796129
 20
64.026614
 30
0.0
 10
79.796129
 20
63.603529
 30
0.0
 10
80.087394
 20
63.461290
 30
0.0
 10
80.510479
 20
63.461290
 30
0.0
  0
SPLINE
  5
26f
100
AcDbEntity
  8
Layer_1
 62
7
100
AcDbSpline
 70
8
 71
3
 72
8
 73
4
 74
0
 40
0
 40
0
 40
0
 40
0
 40
1
 40
1
 40
1
 40
1
 10
80.510479
 20
63.461290
 30
0.0
 10
80.767714
 20
63.461290
 30
0.0
 10
80.957462
 20
63.528873
 30
0.0
 10
81.089473
 20
63.711834
 30
0.0
  0
LWPOLYLINE
  5
270
100
AcDbEntity
  8
Layer_1
 62
7
100
AcDbPolyline
 90
3
 70
0
 10
80.141499
 20
65.197984
 30
0.0
 10
79.796129
 20
65.197984
 30
0.0
 10
79.796129
 20
64.026614
 30
0.0
  0
SPLINE
  5
271
100
AcDbEntity
  8
Layer_1
 62
7
100
AcDbSpline
 70
8
 71
3
 72
8
 73
4
 74
0
 40
0
 40
0
 40
0
 40
0
 40
1
 40
1
 40
1
 40
1
 10
80.818568
 20
63.918310
 30
0.0
 10
80.757677
 20
63.820138
 30
0.0
 10
80.673175
 20
63.786108
 30
0.0
 10
80.493751
 20
63.786108
 30
0.0
  0
SPLINE
  5
272
100
AcDbEntity
  8
Layer_1
 62
7
100
AcDbSpline
 70
8
 71
3
 72
8
 73
4
 74
0
 40
0
 40
0
 40
0
 40
0
 40
1
 40
1
 40
1
 40
1
 10
80.493751
 20
63.786108
 30
0.0
 10
80.246553
 20
63.786108
 30
0.0
 10
80.141594
 20
63.843845
 30
0.0
 10
80.141594
 20
64.006253
 30
0.0
  0
LWPOLYLINE
  5
273
100
AcDbEntity
  8
Layer_1
 62
7
100
AcDbPolyline
 90
2
 70
0
 10
81.089473
 20
63.711834
 30
0.0
 10
80.818568
 20
63.918310
 30
0.0
  0
SPLINE
  5
274
100
AcDbEntity
  8
Layer_1
 62
7
100
AcDbSpline
 70
8
 71
3
 72
8
 73
4
 74
0
 40
0
 40
0
 40
0
 40
0
 40
1
 40
1
 40
1
 40
1
 10
80.618975
 20
64.185677
 30
0.0
 10
80.987860
 20
64.185677
 30
0.0
 10
81.177608
 20
64.419397
 30
0.0
 10
81.177608
 20
64.693551
 30
0.0
  0
SPLINE
  5
275
100
AcDbEntity
  8
Layer_1
 62
7
100
AcDbSpline
 70
8
 71
3
 72
8
 73
4
 74
0
 40
0
 40
0
 40
0
 40
0
 40
1
 40
1
 40
1
 40
1
 10
81.177608
 20
64.693551
 30
0.0
 10
81.177608
 20
64.991508
 30
0.0
 10
80.954116
 20
65.218345
 30
0.0
 10
80.571562
 20
65.218345
 30
0.0
  0
SPLINE
  5
276
100
AcDbEntity
  8
Layer_1
 62
7
100
AcDbSpline
 70
8
 71
3
 72
8
 73
4
 74
0
 40
0
 40
0
 40
0
 40
0
 40
1
 40
1
 40
1
 40
1
 10
80.571562
 20
65.218345
 30
0.0
 10
80.338033
 20
65.218345
 30
0.0
 10
80.219405
 20
65.164241
 30
0.0
 10
80.148286
 20
65.045612
 30
0.0
  0
LWPOLYLINE
  5
277
100
AcDbEntity
  8
Layer_1
 62
7
100
AcDbPolyline
 90
3
 70
0
 10
80.141594
 20
64.006253
 30
0.0
 10
80.141594
 20
64.185677
 30
0.0
 10
80.618975
 20
64.185677
 30
0.0
  0
SPLINE
  5
278
100
AcDbEntity
  8
Layer_1
 62
7
100
AcDbSpline
 70
8
 71
3
 72
8
 73
4
 74
0
 40
0
 40
0
 40
0
 40
0
 40
1
 40
1
 40
1
 40
1
 10
80.141499
 20
64.595284
 30
0.0
 10
80.141499
 20
64.862843
 30
0.0
 10
80.239670
 20
64.893241
 30
0.0
 10
80.527399
 20
64.893241
 30
0.0
  0
SPLINE
  5
279
100
AcDbEntity
  8
Layer_1
 62
7
100
AcDbSpline
 70
8
 71
3
 72
8
 73
4
 74
0
 40
0
 40
0
 40
0
 40
0
 40
1
 40
1
 40
1
 40
1
 10
80.527399
 20
64.893241
 30
0.0
 10
80.760927
 20
64.893241
 30
0.0
 10
80.852408
 20
64.791628
 30
0.0
 10
80.852408
 20
64.676632
 30
0.0
  0
SPLINE
  5
27a
100
AcDbEntity
  8
Layer_1
 62
7
100
AcDbSpline
 70
8
 71
3
 72
8
 73
4
 74
0
 40
0
 40
0
 40
0
 40
0
 40
1
 40
1
 40
1
 40
1
 10
80.852408
 20
64.676632
 30
0.0
 10
80.852408
 20
64.551312
 30
0.0
 10
80.757581
 20
64.469964
 30
0.0
 10
80.554451
 20
64.469964
 30
0.0
  0
LWPOLYLINE
  5
27b
100
AcDbEntity
  8
Layer_1
 62
7
100
AcDbPolyline
 90
4
 70
0
 10
80.148286
 20
65.045612
 30
0.0
 10
80.141594
 20
65.045612
 30
0.0
 10
80.141594
 20
65.197984
 30
0.0
 10
80.141499
 20
65.197984
 30
0.0
  0
LWPOLYLINE
  5
27c
100
AcDbEntity
  8
Layer_1
 62
7
100
AcDbPolyline
 90
4
 70
0
 10
80.554451
 20
64.469964
 30
0.0
 10
80.141499
 20
64.469964
 30
0.0
 10
80.141499
 20
64.595284
 30
0.0
 10
80.141499
 20
64.595284
 30
0.0
  0
SPLINE
  5
27d
100
AcDbEntity
  8
Layer_1
 62
7
100
AcDbSpline
 70
8
 71
3
 72
8
 73
4
 74
0
 40
0
 40
0
 40
0
 40
0
 40
1
 40
1
 40
1
 40
1
 10
79.071551
 20
64.165316
 30
0.0
 10
79.071551
 20
63.914964
 30
0.0
 10
78.905796
 20
63.806469
 30
0.0
 10
78.736409
 20
63.806469
 30
0.0
  0
SPLINE
  5
27e
100
AcDbEntity
  8
Layer_1
 62
7
100
AcDbSpline
 70
8
 71
3
 72
8
 73
4
 74
0
 40
0
 40
0
 40
0
 40
0
 40
1
 40
1
 40
1
 40
1
 10
78.736409
 20
63.806469
 30
0.0
 10
78.648274
 20
63.806469
 30
0.0
 10
78.590824
 20
63.830175
 30
0.0
 10
78.509572
 20
63.891258
 30
0.0
  0
LWPOLYLINE
  5
27f
100
AcDbEntity
  8
Layer_1
 62
7
100
AcDbPolyline
 90
3
 70
0
 10
79.416729
 20
65.197984
 30
0.0
 10
79.071551
 20
65.197984
 30
0.0
 10
79.071551
 20
64.165316
 30
0.0
  0
SPLINE
  5
280
100
AcDbEntity
  8
Layer_1
 62
7
100
AcDbSpline
 70
8
 71
3
 72
8
 73
4
 74
0
 40
0
 40
0
 40
0
 40
0
 40
1
 40
1
 40
1
 40
1
 10
78.259029
 20
63.593301
 30
0.0
 10
78.363987
 20
63.512049
 30
0.0
 10
78.479174
 20
63.461290
 30
0.0
 10
78.617877
 20
63.461290
 30
0.0
  0
SPLINE
  5
281
100
AcDbEntity
  8
Layer_1
 62
7
100
AcDbSpline
 70
8
 71
3
 72
8
 73
4
 74
0
 40
0
 40
0
 40
0
 40
0
 40
1
 40
1
 40
1
 40
1
 10
78.617877
 20
63.461290
 30
0.0
 10
78.800646
 20
63.461290
 30
0.0
 10
78.956364
 20
63.529064
 30
0.0
 10
79.064668
 20
63.664421
 30
0.0
  0
LWPOLYLINE
  5
282
100
AcDbEntity
  8
Layer_1
 62
7
100
AcDbPolyline
 90
2
 70
0
 10
78.509572
 20
63.891258
 30
0.0
 10
78.259029
 20
63.593301
 30
0.0
  0
LWPOLYLINE
  5
283
100
AcDbEntity
  8
Layer_1
 62
7
100
AcDbPolyline
 90
6
 70
0
 10
79.064668
 20
63.664421
 30
0.0
 10
79.071551
 20
63.664421
 30
0.0
 10
79.071551
 20
63.481651
 30
0.0
 10
79.416729
 20
63.481651
 30
0.0
 10
79.416729
 20
65.197984
 30
0.0
 10
79.416729
 20
65.197984
 30
0.0
  0
SPLINE
  5
284
100
AcDbEntity
  8
Layer_1
 62
7
100
AcDbSpline
 70
8
 71
3
 72
8
 73
4
 74
0
 40
0
 40
0
 40
0
 40
0
 40
1
 40
1
 40
1
 40
1
 10
76.837689
 20
64.185582
 30
0.0
 10
76.837689
 20
63.742136
 30
0.0
 10
77.165948
 20
63.461194
 30
0.0
 10
77.545061
 20
63.461194
 30
0.0
  0
SPLINE
  5
285
100
AcDbEntity
  8
Layer_1
 62
7
100
AcDbSpline
 70
8
 71
3
 72
8
 73
4
 74
0
 40
0
 40
0
 40
0
 40
0
 40
1
 40
1
 40
1
 40
1
 10
77.545061
 20
63.461194
 30
0.0
 10
77.876857
 20
63.461194
 30
0.0
 10
78.252624
 20
63.677803
 30
0.0
 10
78.252624
 20
64.344645
 30
0.0
  0
SPLINE
  5
286
100
AcDbEntity
  8
Layer_1
 62
7
100
AcDbSpline
 70
8
 71
3
 72
8
 73
4
 74
0
 40
0
 40
0
 40
0
 40
0
 40
1
 40
1
 40
1
 40
1
 10
78.252624
 20
64.344645
 30
0.0
 10
78.252624
 20
65.048862
 30
0.0
 10
77.843017
 20
65.218249
 30
0.0
 10
77.490861
 20
65.218249
 30
0.0
  0
SPLINE
  5
287
100
AcDbEntity
  8
Layer_1
 62
7
100
AcDbSpline
 70
8
 71
3
 72
8
 73
4
 74
0
 40
0
 40
0
 40
0
 40
0
 40
1
 40
1
 40
1
 40
1
 10
77.490861
 20
65.218249
 30
0.0
 10
77.260678
 20
65.218249
 30
0.0
 10
77.040724
 20
65.136997
 30
0.0
 10
76.871432
 20
64.940654
 30
0.0
  0
LWPOLYLINE
  5
288
100
AcDbEntity
  8
Layer_1
 62
7
100
AcDbPolyline
 90
2
 70
0
 10
76.837689
 20
64.470156
 30
0.0
 10
76.837689
 20
64.185582
 30
0.0
  0
SPLINE
  5
289
100
AcDbEntity
  8
Layer_1
 62
7
100
AcDbSpline
 70
8
 71
3
 72
8
 73
4
 74
0
 40
0
 40
0
 40
0
 40
0
 40
1
 40
1
 40
1
 40
1
 10
77.121976
 20
64.727295
 30
0.0
 10
77.223589
 20
64.832445
 30
0.0
 10
77.365828
 20
64.893241
 30
0.0
 10
77.497648
 20
64.893241
 30
0.0
  0
SPLINE
  5
28a
100
AcDbEntity
  8
Layer_1
 62
7
100
AcDbSpline
 70
8
 71
3
 72
8
 73
4
 74
0
 40
0
 40
0
 40
0
 40
0
 40
1
 40
1
 40
1
 40
1
 10
77.497648
 20
64.893241
 30
0.0
 10
77.734713
 20
64.893241
 30
0.0
 10
77.907254
 20
64.751001
 30
0.0
 10
77.907254
 20
64.470156
 30
0.0
  0
LWPOLYLINE
  5
28b
100
AcDbEntity
  8
Layer_1
 62
7
100
AcDbPolyline
 90
2
 70
0
 10
76.871432
 20
64.940654
 30
0.0
 10
77.121976
 20
64.727295
 30
0.0
  0
SPLINE
  5
28c
100
AcDbEntity
  8
Layer_1
 62
7
100
AcDbSpline
 70
8
 71
3
 72
8
 73
4
 74
0
 40
0
 40
0
 40
0
 40
0
 40
1
 40
1
 40
1
 40
1
 10
77.907254
 20
64.185677
 30
0.0
 10
77.900563
 20
63.925001
 30
0.0
 10
77.748191
 20
63.786108
 30
0.0
 10
77.545061
 20
63.786108
 30
0.0
  0
SPLINE
  5
28d
100
AcDbEntity
  8
Layer_1
 62
7
100
AcDbSpline
 70
8
 71
3
 72
8
 73
4
 74
0
 40
0
 40
0
 40
0
 40
0
 40
1
 40
1
 40
1
 40
1
 10
77.545061
 20
63.786108
 30
0.0
 10
77.341930
 20
63.786108
 30
0.0
 10
77.192904
 20
63.925001
 30
0.0
 10
77.182867
 20
64.185677
 30
0.0
  0
LWPOLYLINE
  5
28e
100
AcDbEntity
  8
Layer_1
 62
7
100
AcDbPolyline
 90
3
 70
0
 10
77.907254
 20
64.470156
 30
0.0
 10
76.837689
 20
64.470156
 30
0.0
 10
76.837689
 20
64.470156
 30
0.0
  0
SPLINE
  5
28f
100
AcDbEntity
  8
Layer_1
 62
7
100
AcDbSpline
 70
8
 71
3
 72
8
 73
4
 74
0
 40
0
 40
0
 40
0
 40
0
 40
1
 40
1
 40
1
 40
1
 10
91.438995
 20
61.627093
 30
0.0
 10
91.438995
 20
61.999420
 30
0.0
 10
91.384891
 20
62.141659
 30
0.0
 10
91.252880
 20
62.287244
 30
0.0
  0
SPLINE
  5
290
100
AcDbEntity
  8
Layer_1
 62
7
100
AcDbSpline
 70
8
 71
3
 72
8
 73
4
 74
0
 40
0
 40
0
 40
0
 40
0
 40
1
 40
1
 40
1
 40
1
 10
91.252880
 20
62.287244
 30
0.0
 10
91.158054
 20
62.392202
 30
0.0
 10
90.998895
 20
62.507198
 30
0.0
 10
90.731432
 20
62.507198
 30
0.0
  0
SPLINE
  5
291
100
AcDbEntity
  8
Layer_1
 62
7
100
AcDbSpline
 70
8
 71
3
 72
8
 73
4
 74
0
 40
0
 40
0
 40
0
 40
0
 40
1
 40
1
 40
1
 40
1
 10
90.731432
 20
62.507198
 30
0.0
 10
90.464065
 20
62.507198
 30
0.0
 10
90.304906
 20
62.392202
 30
0.0
 10
90.210080
 20
62.287244
 30
0.0
  0
SPLINE
  5
292
100
AcDbEntity
  8
Layer_1
 62
7
100
AcDbSpline
 70
8
 71
3
 72
8
 73
4
 74
0
 40
0
 40
0
 40
0
 40
0
 40
1
 40
1
 40
1
 40
1
 10
90.210080
 20
62.287244
 30
0.0
 10
90.078069
 20
62.141659
 30
0.0
 10
90.023869
 20
61.999324
 30
0.0
 10
90.023869
 20
61.627093
 30
0.0
  0
SPLINE
  5
293
100
AcDbEntity
  8
Layer_1
 62
7
100
AcDbSpline
 70
8
 71
3
 72
8
 73
4
 74
0
 40
0
 40
0
 40
0
 40
0
 40
1
 40
1
 40
1
 40
1
 10
90.023869
 20
61.627093
 30
0.0
 10
90.023869
 20
61.258017
 30
0.0
 10
90.078069
 20
61.115874
 30
0.0
 10
90.210080
 20
60.970289
 30
0.0
  0
SPLINE
  5
294
100
AcDbEntity
  8
Layer_1
 62
7
100
AcDbSpline
 70
8
 71
3
 72
8
 73
4
 74
0
 40
0
 40
0
 40
0
 40
0
 40
1
 40
1
 40
1
 40
1
 10
90.210080
 20
60.970289
 30
0.0
 10
90.304906
 20
60.865330
 30
0.0
 10
90.464065
 20
60.750143
 30
0.0
 10
90.731432
 20
60.750143
 30
0.0
  0
SPLINE
  5
295
100
AcDbEntity
  8
Layer_1
 62
7
100
AcDbSpline
 70
8
 71
3
 72
8
 73
4
 74
0
 40
0
 40
0
 40
0
 40
0
 40
1
 40
1
 40
1
 40
1
 10
90.731432
 20
60.750143
 30
0.0
 10
90.998895
 20
60.750143
 30
0.0
 10
91.158054
 20
60.865330
 30
0.0
 10
91.252880
 20
60.970289
 30
0.0
  0
SPLINE
  5
296
100
AcDbEntity
  8
Layer_1
 62
7
100
AcDbSpline
 70
8
 71
3
 72
8
 73
4
 74
0
 40
0
 40
0
 40
0
 40
0
 40
1
 40
1
 40
1
 40
1
 10
91.252880
 20
60.970289
 30
0.0
 10
91.384891
 20
61.115969
 30
0.0
 10
91.438995
 20
61.258017
 30
0.0
 10
91.438995
 20
61.627093
 30
0.0
  0
SPLINE
  5
297
100
AcDbEntity
  8
Layer_1
 62
7
100
AcDbSpline
 70
8
 71
3
 72
8
 73
4
 74
0
 40
0
 40
0
 40
0
 40
0
 40
1
 40
1
 40
1
 40
1
 10
90.369238
 20
61.630439
 30
0.0
 10
90.369238
 20
61.877637
 30
0.0
 10
90.389504
 20
61.945220
 30
0.0
 10
90.453836
 20
62.036700
 30
0.0
  0
SPLINE
  5
298
100
AcDbEntity
  8
Layer_1
 62
7
100
AcDbSpline
 70
8
 71
3
 72
8
 73
4
 74
0
 40
0
 40
0
 40
0
 40
0
 40
1
 40
1
 40
1
 40
1
 10
90.453836
 20
62.036700
 30
0.0
 10
90.504691
 20
62.107820
 30
0.0
 10
90.612995
 20
62.162020
 30
0.0
 10
90.731432
 20
62.162020
 30
0.0
  0
SPLINE
  5
299
100
AcDbEntity
  8
Layer_1
 62
7
100
AcDbSpline
 70
8
 71
3
 72
8
 73
4
 74
0
 40
0
 40
0
 40
0
 40
0
 40
1
 40
1
 40
1
 40
1
 10
90.731432
 20
62.162020
 30
0.0
 10
90.849965
 20
62.162020
 30
0.0
 10
90.958269
 20
62.107915
 30
0.0
 10
91.009028
 20
62.036700
 30
0.0
  0
SPLINE
  5
29a
100
AcDbEntity
  8
Layer_1
 62
7
100
AcDbSpline
 70
8
 71
3
 72
8
 73
4
 74
0
 40
0
 40
0
 40
0
 40
0
 40
1
 40
1
 40
1
 40
1
 10
91.009028
 20
62.036700
 30
0.0
 10
91.073360
 20
61.945220
 30
0.0
 10
91.093721
 20
61.877637
 30
0.0
 10
91.093721
 20
61.627093
 30
0.0
  0
SPLINE
  5
29b
100
AcDbEntity
  8
Layer_1
 62
7
100
AcDbSpline
 70
8
 71
3
 72
8
 73
4
 74
0
 40
0
 40
0
 40
0
 40
0
 40
1
 40
1
 40
1
 40
1
 10
91.093721
 20
61.627093
 30
0.0
 10
91.093721
 20
61.379896
 30
0.0
 10
91.073360
 20
61.312122
 30
0.0
 10
91.009028
 20
61.220832
 30
0.0
  0
SPLINE
  5
29c
100
AcDbEntity
  8
Layer_1
 62
7
100
AcDbSpline
 70
8
 71
3
 72
8
 73
4
 74
0
 40
0
 40
0
 40
0
 40
0
 40
1
 40
1
 40
1
 40
1
 10
91.009028
 20
61.220832
 30
0.0
 10
90.958269
 20
61.149713
 30
0.0
 10
90.849965
 20
61.095513
 30
0.0
 10
90.731432
 20
61.095513
 30
0.0
  0
SPLINE
  5
29d
100
AcDbEntity
  8
Layer_1
 62
7
100
AcDbSpline
 70
8
 71
3
 72
8
 73
4
 74
0
 40
0
 40
0
 40
0
 40
0
 40
1
 40
1
 40
1
 40
1
 10
90.731432
 20
61.095513
 30
0.0
 10
90.612995
 20
61.095513
 30
0.0
 10
90.504691
 20
61.149617
 30
0.0
 10
90.453836
 20
61.220832
 30
0.0
  0
SPLINE
  5
29e
100
AcDbEntity
  8
Layer_1
 62
7
100
AcDbSpline
 70
8
 71
3
 72
8
 73
4
 74
0
 40
0
 40
0
 40
0
 40
0
 40
1
 40
1
 40
1
 40
1
 10
90.453836
 20
61.220832
 30
0.0
 10
90.389504
 20
61.312122
 30
0.0
 10
90.369238
 20
61.379896
 30
0.0
 10
90.369238
 20
61.630439
 30
0.0
  0
LWPOLYLINE
  5
29f
100
AcDbEntity
  8
Layer_1
 62
7
100
AcDbPolyline
 90
3
 70
0
 10
77.182867
 20
64.185677
 30
0.0
 10
77.907254
 20
64.185677
 30
0.0
 10
77.907254
 20
64.185677
 30
0.0
  0
SPLINE
  5
2a0
100
AcDbEntity
  8
Layer_1
 62
7
100
AcDbSpline
 70
8
 71
3
 72
8
 73
4
 74
0
 40
0
 40
0
 40
0
 40
0
 40
1
 40
1
 40
1
 40
1
 10
86.710213
 20
61.474722
 30
0.0
 10
86.710213
 20
61.031085
 30
0.0
 10
87.038567
 20
60.750143
 30
0.0
 10
87.417681
 20
60.750143
 30
0.0
  0
SPLINE
  5
2a1
100
AcDbEntity
  8
Layer_1
 62
7
100
AcDbSpline
 70
8
 71
3
 72
8
 73
4
 74
0
 40
0
 40
0
 40
0
 40
0
 40
1
 40
1
 40
1
 40
1
 10
87.417681
 20
60.750143
 30
0.0
 10
87.749572
 20
60.750143
 30
0.0
 10
88.125244
 20
60.966943
 30
0.0
 10
88.125244
 20
61.633785
 30
0.0
  0
SPLINE
  5
2a2
100
AcDbEntity
  8
Layer_1
 62
7
100
AcDbSpline
 70
8
 71
3
 72
8
 73
4
 74
0
 40
0
 40
0
 40
0
 40
0
 40
1
 40
1
 40
1
 40
1
 10
88.125244
 20
61.633785
 30
0.0
 10
88.125244
 20
62.337811
 30
0.0
 10
87.715637
 20
62.507198
 30
0.0
 10
87.363576
 20
62.507198
 30
0.0
  0
SPLINE
  5
2a3
100
AcDbEntity
  8
Layer_1
 62
7
100
AcDbSpline
 70
8
 71
3
 72
8
 73
4
 74
0
 40
0
 40
0
 40
0
 40
0
 40
1
 40
1
 40
1
 40
1
 10
87.363576
 20
62.507198
 30
0.0
 10
87.133298
 20
62.507198
 30
0.0
 10
86.913344
 20
62.425946
 30
0.0
 10
86.744052
 20
62.229602
 30
0.0
  0
LWPOLYLINE
  5
2a4
100
AcDbEntity
  8
Layer_1
 62
7
100
AcDbPolyline
 90
2
 70
0
 10
86.710213
 20
61.759104
 30
0.0
 10
86.710213
 20
61.474722
 30
0.0
  0
SPLINE
  5
2a5
100
AcDbEntity
  8
Layer_1
 62
7
100
AcDbSpline
 70
8
 71
3
 72
8
 73
4
 74
0
 40
0
 40
0
 40
0
 40
0
 40
1
 40
1
 40
1
 40
1
 10
86.994596
 20
62.016435
 30
0.0
 10
87.096113
 20
62.121394
 30
0.0
 10
87.238257
 20
62.182380
 30
0.0
 10
87.370268
 20
62.182380
 30
0.0
  0
SPLINE
  5
2a6
100
AcDbEntity
  8
Layer_1
 62
7
100
AcDbSpline
 70
8
 71
3
 72
8
 73
4
 74
0
 40
0
 40
0
 40
0
 40
0
 40
1
 40
1
 40
1
 40
1
 10
87.370268
 20
62.182380
 30
0.0
 10
87.607333
 20
62.182380
 30
0.0
 10
87.779970
 20
62.040141
 30
0.0
 10
87.779970
 20
61.759104
 30
0.0
  0
LWPOLYLINE
  5
2a7
100
AcDbEntity
  8
Layer_1
 62
7
100
AcDbPolyline
 90
2
 70
0
 10
86.744052
 20
62.229602
 30
0.0
 10
86.994596
 20
62.016435
 30
0.0
  0
SPLINE
  5
2a8
100
AcDbEntity
  8
Layer_1
 62
7
100
AcDbSpline
 70
8
 71
3
 72
8
 73
4
 74
0
 40
0
 40
0
 40
0
 40
0
 40
1
 40
1
 40
1
 40
1
 10
87.779970
 20
61.474817
 30
0.0
 10
87.773183
 20
61.213950
 30
0.0
 10
87.620811
 20
61.075248
 30
0.0
 10
87.417681
 20
61.075248
 30
0.0
  0
SPLINE
  5
2a9
100
AcDbEntity
  8
Layer_1
 62
7
100
AcDbSpline
 70
8
 71
3
 72
8
 73
4
 74
0
 40
0
 40
0
 40
0
 40
0
 40
1
 40
1
 40
1
 40
1
 10
87.417681
 20
61.075248
 30
0.0
 10
87.214550
 20
61.075248
 30
0.0
 10
87.065620
 20
61.213950
 30
0.0
 10
87.055487
 20
61.474817
 30
0.0
  0
LWPOLYLINE
  5
2aa
100
AcDbEntity
  8
Layer_1
 62
7
100
AcDbPolyline
 90
3
 70
0
 10
87.779970
 20
61.759104
 30
0.0
 10
86.710213
 20
61.759104
 30
0.0
 10
86.710213
 20
61.759104
 30
0.0
  0
LWPOLYLINE
  5
2ab
100
AcDbEntity
  8
Layer_1
 62
7
100
AcDbPolyline
 90
3
 70
0
 10
87.055487
 20
61.474817
 30
0.0
 10
87.779970
 20
61.474817
 30
0.0
 10
87.779970
 20
61.474817
 30
0.0
  0
SPLINE
  5
2ac
100
AcDbEntity
  8
Layer_1
 62
7
100
AcDbSpline
 70
8
 71
3
 72
8
 73
4
 74
0
 40
0
 40
0
 40
0
 40
0
 40
1
 40
1
 40
1
 40
1
 10
86.070232
 20
61.464685
 30
0.0
 10
86.070232
 20
61.230965
 30
0.0
 10
85.924648
 20
61.095608
 30
0.0
 10
85.728304
 20
61.095608
 30
0.0
  0
SPLINE
  5
2ad
100
AcDbEntity
  8
Layer_1
 62
7
100
AcDbSpline
 70
8
 71
3
 72
8
 73
4
 74
0
 40
0
 40
0
 40
0
 40
0
 40
1
 40
1
 40
1
 40
1
 10
85.728304
 20
61.095608
 30
0.0
 10
85.535306
 20
61.095608
 30
0.0
 10
85.389721
 20
61.230965
 30
0.0
 10
85.389721
 20
61.464685
 30
0.0
  0
LWPOLYLINE
  5
2ae
100
AcDbEntity
  8
Layer_1
 62
7
100
AcDbPolyline
 90
3
 70
0
 10
86.415507
 20
62.486837
 30
0.0
 10
86.070232
 20
62.486837
 30
0.0
 10
86.070232
 20
61.464685
 30
0.0
  0
SPLINE
  5
2af
100
AcDbEntity
  8
Layer_1
 62
7
100
AcDbSpline
 70
8
 71
3
 72
8
 73
4
 74
0
 40
0
 40
0
 40
0
 40
0
 40
1
 40
1
 40
1
 40
1
 10
85.044447
 20
61.346056
 30
0.0
 10
85.044447
 20
60.956619
 30
0.0
 10
85.349095
 20
60.750143
 30
0.0
 10
85.616558
 20
60.750143
 30
0.0
  0
SPLINE
  5
2b0
100
AcDbEntity
  8
Layer_1
 62
7
100
AcDbSpline
 70
8
 71
3
 72
8
 73
4
 74
0
 40
0
 40
0
 40
0
 40
0
 40
1
 40
1
 40
1
 40
1
 10
85.616558
 20
60.750143
 30
0.0
 10
85.799328
 20
60.750143
 30
0.0
 10
85.955141
 20
60.817917
 30
0.0
 10
86.063350
 20
60.953274
 30
0.0
  0
LWPOLYLINE
  5
2b1
100
AcDbEntity
  8
Layer_1
 62
7
100
AcDbPolyline
 90
4
 70
0
 10
85.389721
 20
61.464685
 30
0.0
 10
85.389721
 20
62.486837
 30
0.0
 10
85.044447
 20
62.486837
 30
0.0
 10
85.044447
 20
61.346056
 30
0.0
  0
SPLINE
  5
2b2
100
AcDbEntity
  8
Layer_1
 62
7
100
AcDbSpline
 70
8
 71
3
 72
8
 73
4
 74
0
 40
0
 40
0
 40
0
 40
0
 40
1
 40
1
 40
1
 40
1
 10
84.110812
 20
62.199204
 30
0.0
 10
83.890762
 20
62.405681
 30
0.0
 10
83.633431
 20
62.507294
 30
0.0
 10
83.355836
 20
62.507294
 30
0.0
  0
SPLINE
  5
2b3
100
AcDbEntity
  8
Layer_1
 62
7
100
AcDbSpline
 70
8
 71
3
 72
8
 73
4
 74
0
 40
0
 40
0
 40
0
 40
0
 40
1
 40
1
 40
1
 40
1
 10
83.355836
 20
62.507294
 30
0.0
 10
82.956362
 20
62.507294
 30
0.0
 10
82.644927
 20
62.314391
 30
0.0
 10
82.644927
 20
61.979154
 30
0.0
  0
SPLINE
  5
2b4
100
AcDbEntity
  8
Layer_1
 62
7
100
AcDbSpline
 70
8
 71
3
 72
8
 73
4
 74
0
 40
0
 40
0
 40
0
 40
0
 40
1
 40
1
 40
1
 40
1
 10
82.644927
 20
61.979154
 30
0.0
 10
82.644927
 20
61.705096
 30
0.0
 10
82.786975
 20
61.488296
 30
0.0
 10
83.142572
 20
61.464589
 30
0.0
  0
LWPOLYLINE
  5
2b5
100
AcDbEntity
  8
Layer_1
 62
7
100
AcDbPolyline
 90
6
 70
0
 10
86.063350
 20
60.953274
 30
0.0
 10
86.070232
 20
60.953274
 30
0.0
 10
86.070232
 20
60.770504
 30
0.0
 10
86.415507
 20
60.770504
 30
0.0
 10
86.415507
 20
62.486837
 30
0.0
 10
86.415507
 20
62.486837
 30
0.0
  0
SPLINE
  5
2b6
100
AcDbEntity
  8
Layer_1
 62
7
100
AcDbSpline
 70
8
 71
3
 72
8
 73
4
 74
0
 40
0
 40
0
 40
0
 40
0
 40
1
 40
1
 40
1
 40
1
 10
83.426955
 20
61.444419
 30
0.0
 10
83.599592
 20
61.430750
 30
0.0
 10
83.653697
 20
61.356285
 30
0.0
 10
83.653697
 20
61.281819
 30
0.0
  0
SPLINE
  5
2b7
100
AcDbEntity
  8
Layer_1
 62
7
100
AcDbSpline
 70
8
 71
3
 72
8
 73
4
 74
0
 40
0
 40
0
 40
0
 40
0
 40
1
 40
1
 40
1
 40
1
 10
83.653697
 20
61.281819
 30
0.0
 10
83.653697
 20
61.163478
 30
0.0
 10
83.579231
 20
61.075343
 30
0.0
 10
83.359277
 20
61.075343
 30
0.0
  0
SPLINE
  5
2b8
100
AcDbEntity
  8
Layer_1
 62
7
100
AcDbSpline
 70
8
 71
3
 72
8
 73
4
 74
0
 40
0
 40
0
 40
0
 40
0
 40
1
 40
1
 40
1
 40
1
 10
83.359277
 20
61.075343
 30
0.0
 10
83.172970
 20
61.075343
 30
0.0
 10
83.034077
 20
61.139771
 30
0.0
 10
82.898720
 20
61.234406
 30
0.0
  0
LWPOLYLINE
  5
2b9
100
AcDbEntity
  8
Layer_1
 62
7
100
AcDbPolyline
 90
2
 70
0
 10
83.142572
 20
61.464589
 30
0.0
 10
83.426955
 20
61.444419
 30
0.0
  0
SPLINE
  5
2ba
100
AcDbEntity
  8
Layer_1
 62
7
100
AcDbSpline
 70
8
 71
3
 72
8
 73
4
 74
0
 40
0
 40
0
 40
0
 40
0
 40
1
 40
1
 40
1
 40
1
 10
82.685553
 20
60.984054
 30
0.0
 10
82.854844
 20
60.841815
 30
0.0
 10
83.057879
 20
60.750334
 30
0.0
 10
83.359372
 20
60.750334
 30
0.0
  0
SPLINE
  5
2bb
100
AcDbEntity
  8
Layer_1
 62
7
100
AcDbSpline
 70
8
 71
3
 72
8
 73
4
 74
0
 40
0
 40
0
 40
0
 40
0
 40
1
 40
1
 40
1
 40
1
 10
83.359372
 20
60.750334
 30
0.0
 10
83.721566
 20
60.750334
 30
0.0
 10
83.999162
 20
60.929758
 30
0.0
 10
83.999162
 20
61.278474
 30
0.0
  0
SPLINE
  5
2bc
100
AcDbEntity
  8
Layer_1
 62
7
100
AcDbSpline
 70
8
 71
3
 72
8
 73
4
 74
0
 40
0
 40
0
 40
0
 40
0
 40
1
 40
1
 40
1
 40
1
 10
83.999162
 20
61.278474
 30
0.0
 10
83.999162
 20
61.572893
 30
0.0
 10
83.789244
 20
61.742280
 30
0.0
 10
83.504957
 20
61.765987
 30
0.0
  0
LWPOLYLINE
  5
2bd
100
AcDbEntity
  8
Layer_1
 62
7
100
AcDbPolyline
 90
2
 70
0
 10
82.898720
 20
61.234406
 30
0.0
 10
82.685553
 20
60.984054
 30
0.0
  0
SPLINE
  5
2be
100
AcDbEntity
  8
Layer_1
 62
7
100
AcDbSpline
 70
8
 71
3
 72
8
 73
4
 74
0
 40
0
 40
0
 40
0
 40
0
 40
1
 40
1
 40
1
 40
1
 10
83.200214
 20
61.793039
 30
0.0
 10
83.081585
 20
61.803076
 30
0.0
 10
82.990296
 20
61.840452
 30
0.0
 10
82.990296
 20
61.962330
 30
0.0
  0
SPLINE
  5
2bf
100
AcDbEntity
  8
Layer_1
 62
7
100
AcDbSpline
 70
8
 71
3
 72
8
 73
4
 74
0
 40
0
 40
0
 40
0
 40
0
 40
1
 40
1
 40
1
 40
1
 10
82.990296
 20
61.962330
 30
0.0
 10
82.990296
 20
62.107915
 30
0.0
 10
83.132631
 20
62.182285
 30
0.0
 10
83.328879
 20
62.182285
 30
0.0
  0
SPLINE
  5
2c0
100
AcDbEntity
  8
Layer_1
 62
7
100
AcDbSpline
 70
8
 71
3
 72
8
 73
4
 74
0
 40
0
 40
0
 40
0
 40
0
 40
1
 40
1
 40
1
 40
1
 10
83.328879
 20
62.182285
 30
0.0
 10
83.559062
 20
62.182285
 30
0.0
 10
83.721566
 20
62.108011
 30
0.0
 10
83.870497
 20
61.962330
 30
0.0
  0
LWPOLYLINE
  5
2c1
100
AcDbEntity
  8
Layer_1
 62
7
100
AcDbPolyline
 90
2
 70
0
 10
83.504957
 20
61.765987
 30
0.0
 10
83.200214
 20
61.793039
 30
0.0
  0
SPLINE
  5
2c2
100
AcDbEntity
  8
Layer_1
 62
7
100
AcDbSpline
 70
8
 71
3
 72
8
 73
4
 74
0
 40
0
 40
0
 40
0
 40
0
 40
1
 40
1
 40
1
 40
1
 10
82.448583
 20
61.627093
 30
0.0
 10
82.448583
 20
61.999420
 30
0.0
 10
82.394287
 20
62.141659
 30
0.0
 10
82.262277
 20
62.287244
 30
0.0
  0
SPLINE
  5
2c3
100
AcDbEntity
  8
Layer_1
 62
7
100
AcDbSpline
 70
8
 71
3
 72
8
 73
4
 74
0
 40
0
 40
0
 40
0
 40
0
 40
1
 40
1
 40
1
 40
1
 10
82.262277
 20
62.287244
 30
0.0
 10
82.167450
 20
62.392202
 30
0.0
 10
82.008387
 20
62.507198
 30
0.0
 10
81.741020
 20
62.507198
 30
0.0
  0
SPLINE
  5
2c4
100
AcDbEntity
  8
Layer_1
 62
7
100
AcDbSpline
 70
8
 71
3
 72
8
 73
4
 74
0
 40
0
 40
0
 40
0
 40
0
 40
1
 40
1
 40
1
 40
1
 10
81.741020
 20
62.507198
 30
0.0
 10
81.473461
 20
62.507198
 30
0.0
 10
81.314398
 20
62.392202
 30
0.0
 10
81.219572
 20
62.287244
 30
0.0
  0
SPLINE
  5
2c5
100
AcDbEntity
  8
Layer_1
 62
7
100
AcDbSpline
 70
8
 71
3
 72
8
 73
4
 74
0
 40
0
 40
0
 40
0
 40
0
 40
1
 40
1
 40
1
 40
1
 10
81.219572
 20
62.287244
 30
0.0
 10
81.087561
 20
62.141659
 30
0.0
 10
81.033457
 20
61.999324
 30
0.0
 10
81.033457
 20
61.627093
 30
0.0
  0
SPLINE
  5
2c6
100
AcDbEntity
  8
Layer_1
 62
7
100
AcDbSpline
 70
8
 71
3
 72
8
 73
4
 74
0
 40
0
 40
0
 40
0
 40
0
 40
1
 40
1
 40
1
 40
1
 10
81.033457
 20
61.627093
 30
0.0
 10
81.033457
 20
61.258017
 30
0.0
 10
81.087561
 20
61.115874
 30
0.0
 10
81.219572
 20
60.970289
 30
0.0
  0
SPLINE
  5
2c7
100
AcDbEntity
  8
Layer_1
 62
7
100
AcDbSpline
 70
8
 71
3
 72
8
 73
4
 74
0
 40
0
 40
0
 40
0
 40
0
 40
1
 40
1
 40
1
 40
1
 10
81.219572
 20
60.970289
 30
0.0
 10
81.314398
 20
60.865330
 30
0.0
 10
81.473461
 20
60.750143
 30
0.0
 10
81.741020
 20
60.750143
 30
0.0
  0
SPLINE
  5
2c8
100
AcDbEntity
  8
Layer_1
 62
7
100
AcDbSpline
 70
8
 71
3
 72
8
 73
4
 74
0
 40
0
 40
0
 40
0
 40
0
 40
1
 40
1
 40
1
 40
1
 10
81.741020
 20
60.750143
 30
0.0
 10
82.008387
 20
60.750143
 30
0.0
 10
82.167450
 20
60.865330
 30
0.0
 10
82.262277
 20
60.970289
 30
0.0
  0
SPLINE
  5
2c9
100
AcDbEntity
  8
Layer_1
 62
7
100
AcDbSpline
 70
8
 71
3
 72
8
 73
4
 74
0
 40
0
 40
0
 40
0
 40
0
 40
1
 40
1
 40
1
 40
1
 10
82.262277
 20
60.970289
 30
0.0
 10
82.394287
 20
61.115969
 30
0.0
 10
82.448583
 20
61.258017
 30
0.0
 10
82.448583
 20
61.627093
 30
0.0
  0
SPLINE
  5
2ca
100
AcDbEntity
  8
Layer_1
 62
7
100
AcDbSpline
 70
8
 71
3
 72
8
 73
4
 74
0
 40
0
 40
0
 40
0
 40
0
 40
1
 40
1
 40
1
 40
1
 10
81.378826
 20
61.630439
 30
0.0
 10
81.378826
 20
61.877637
 30
0.0
 10
81.398996
 20
61.945220
 30
0.0
 10
81.463424
 20
62.036700
 30
0.0
  0
SPLINE
  5
2cb
100
AcDbEntity
  8
Layer_1
 62
7
100
AcDbSpline
 70
8
 71
3
 72
8
 73
4
 74
0
 40
0
 40
0
 40
0
 40
0
 40
1
 40
1
 40
1
 40
1
 10
81.463424
 20
62.036700
 30
0.0
 10
81.514183
 20
62.107820
 30
0.0
 10
81.622487
 20
62.162020
 30
0.0
 10
81.741020
 20
62.162020
 30
0.0
  0
SPLINE
  5
2cc
100
AcDbEntity
  8
Layer_1
 62
7
100
AcDbSpline
 70
8
 71
3
 72
8
 73
4
 74
0
 40
0
 40
0
 40
0
 40
0
 40
1
 40
1
 40
1
 40
1
 10
81.741020
 20
62.162020
 30
0.0
 10
81.859361
 20
62.162020
 30
0.0
 10
81.967857
 20
62.107915
 30
0.0
 10
82.018424
 20
62.036700
 30
0.0
  0
SPLINE
  5
2cd
100
AcDbEntity
  8
Layer_1
 62
7
100
AcDbSpline
 70
8
 71
3
 72
8
 73
4
 74
0
 40
0
 40
0
 40
0
 40
0
 40
1
 40
1
 40
1
 40
1
 10
82.018424
 20
62.036700
 30
0.0
 10
82.082853
 20
61.945220
 30
0.0
 10
82.103213
 20
61.877637
 30
0.0
 10
82.103213
 20
61.627093
 30
0.0
  0
SPLINE
  5
2ce
100
AcDbEntity
  8
Layer_1
 62
7
100
AcDbSpline
 70
8
 71
3
 72
8
 73
4
 74
0
 40
0
 40
0
 40
0
 40
0
 40
1
 40
1
 40
1
 40
1
 10
82.103213
 20
61.627093
 30
0.0
 10
82.103213
 20
61.379896
 30
0.0
 10
82.082853
 20
61.312122
 30
0.0
 10
82.018424
 20
61.220832
 30
0.0
  0
SPLINE
  5
2cf
100
AcDbEntity
  8
Layer_1
 62
7
100
AcDbSpline
 70
8
 71
3
 72
8
 73
4
 74
0
 40
0
 40
0
 40
0
 40
0
 40
1
 40
1
 40
1
 40
1
 10
82.018424
 20
61.220832
 30
0.0
 10
81.967857
 20
61.149713
 30
0.0
 10
81.859361
 20
61.095513
 30
0.0
 10
81.741020
 20
61.095513
 30
0.0
  0
SPLINE
  5
2d0
100
AcDbEntity
  8
Layer_1
 62
7
100
AcDbSpline
 70
8
 71
3
 72
8
 73
4
 74
0
 40
0
 40
0
 40
0
 40
0
 40
1
 40
1
 40
1
 40
1
 10
81.741020
 20
61.095513
 30
0.0
 10
81.622487
 20
61.095513
 30
0.0
 10
81.514183
 20
61.149617
 30
0.0
 10
81.463424
 20
61.220832
 30
0.0
  0
SPLINE
  5
2d1
100
AcDbEntity
  8
Layer_1
 62
7
100
AcDbSpline
 70
8
 71
3
 72
8
 73
4
 74
0
 40
0
 40
0
 40
0
 40
0
 40
1
 40
1
 40
1
 40
1
 10
81.463424
 20
61.220832
 30
0.0
 10
81.398996
 20
61.312122
 30
0.0
 10
81.378826
 20
61.379896
 30
0.0
 10
81.378826
 20
61.630439
 30
0.0
  0
SPLINE
  5
2d2
100
AcDbEntity
  8
Layer_1
 62
7
100
AcDbSpline
 70
8
 71
3
 72
8
 73
4
 74
0
 40
0
 40
0
 40
0
 40
0
 40
1
 40
1
 40
1
 40
1
 10
80.738654
 20
61.911476
 30
0.0
 10
80.738654
 20
62.300722
 30
0.0
 10
80.433911
 20
62.507198
 30
0.0
 10
80.163102
 20
62.507198
 30
0.0
  0
SPLINE
  5
2d3
100
AcDbEntity
  8
Layer_1
 62
7
100
AcDbSpline
 70
8
 71
3
 72
8
 73
4
 74
0
 40
0
 40
0
 40
0
 40
0
 40
1
 40
1
 40
1
 40
1
 10
80.163102
 20
62.507198
 30
0.0
 10
79.983869
 20
62.507198
 30
0.0
 10
79.827961
 20
62.439424
 30
0.0
 10
79.719656
 20
62.304068
 30
0.0
  0
LWPOLYLINE
  5
2d4
100
AcDbEntity
  8
Layer_1
 62
7
100
AcDbPolyline
 90
3
 70
0
 10
83.870497
 20
61.962330
 30
0.0
 10
84.110812
 20
62.199204
 30
0.0
 10
84.110812
 20
62.199204
 30
0.0
  0
SPLINE
  5
2d5
100
AcDbEntity
  8
Layer_1
 62
7
100
AcDbSpline
 70
8
 71
3
 72
8
 73
4
 74
0
 40
0
 40
0
 40
0
 40
0
 40
1
 40
1
 40
1
 40
1
 10
79.712965
 20
61.792848
 30
0.0
 10
79.712965
 20
62.026376
 30
0.0
 10
79.858550
 20
62.161924
 30
0.0
 10
80.051643
 20
62.161924
 30
0.0
  0
SPLINE
  5
2d6
100
AcDbEntity
  8
Layer_1
 62
7
100
AcDbSpline
 70
8
 71
3
 72
8
 73
4
 74
0
 40
0
 40
0
 40
0
 40
0
 40
1
 40
1
 40
1
 40
1
 10
80.051643
 20
62.161924
 30
0.0
 10
80.247891
 20
62.161924
 30
0.0
 10
80.393476
 20
62.026376
 30
0.0
 10
80.393476
 20
61.792848
 30
0.0
  0
LWPOLYLINE
  5
2d7
100
AcDbEntity
  8
Layer_1
 62
7
100
AcDbPolyline
 90
7
 70
0
 10
79.719656
 20
62.304068
 30
0.0
 10
79.712965
 20
62.304068
 30
0.0
 10
79.712965
 20
62.487028
 30
0.0
 10
79.367787
 20
62.487028
 30
0.0
 10
79.367787
 20
60.770504
 30
0.0
 10
79.712965
 20
60.770504
 30
0.0
 10
79.712965
 20
61.792848
 30
0.0
  0
LWPOLYLINE
  5
2d8
100
AcDbEntity
  8
Layer_1
 62
7
100
AcDbPolyline
 90
5
 70
0
 10
80.393476
 20
61.792848
 30
0.0
 10
80.393476
 20
60.770504
 30
0.0
 10
80.738654
 20
60.770504
 30
0.0
 10
80.738654
 20
61.911476
 30
0.0
 10
80.738654
 20
61.911476
 30
0.0
  0
SPLINE
  5
2d9
100
AcDbEntity
  8
Layer_1
 62
7
100
AcDbSpline
 70
8
 71
3
 72
8
 73
4
 74
0
 40
0
 40
0
 40
0
 40
0
 40
1
 40
1
 40
1
 40
1
 10
78.643686
 20
61.454361
 30
0.0
 10
78.643686
 20
61.203817
 30
0.0
 10
78.477932
 20
61.095513
 30
0.0
 10
78.308545
 20
61.095513
 30
0.0
  0
SPLINE
  5
2da
100
AcDbEntity
  8
Layer_1
 62
7
100
AcDbSpline
 70
8
 71
3
 72
8
 73
4
 74
0
 40
0
 40
0
 40
0
 40
0
 40
1
 40
1
 40
1
 40
1
 10
78.308545
 20
61.095513
 30
0.0
 10
78.220410
 20
61.095513
 30
0.0
 10
78.162960
 20
61.119219
 30
0.0
 10
78.081708
 20
61.180111
 30
0.0
  0
LWPOLYLINE
  5
2db
100
AcDbEntity
  8
Layer_1
 62
7
100
AcDbPolyline
 90
3
 70
0
 10
78.989056
 20
62.486837
 30
0.0
 10
78.643686
 20
62.486837
 30
0.0
 10
78.643686
 20
61.454361
 30
0.0
  0
SPLINE
  5
2dc
100
AcDbEntity
  8
Layer_1
 62
7
100
AcDbSpline
 70
8
 71
3
 72
8
 73
4
 74
0
 40
0
 40
0
 40
0
 40
0
 40
1
 40
1
 40
1
 40
1
 10
77.831164
 20
60.882154
 30
0.0
 10
77.936314
 20
60.800902
 30
0.0
 10
78.051119
 20
60.750143
 30
0.0
 10
78.190012
 20
60.750143
 30
0.0
  0
SPLINE
  5
2dd
100
AcDbEntity
  8
Layer_1
 62
7
100
AcDbSpline
 70
8
 71
3
 72
8
 73
4
 74
0
 40
0
 40
0
 40
0
 40
0
 40
1
 40
1
 40
1
 40
1
 10
78.190012
 20
60.750143
 30
0.0
 10
78.372782
 20
60.750143
 30
0.0
 10
78.528690
 20
60.817917
 30
0.0
 10
78.636995
 20
60.953274
 30
0.0
  0
LWPOLYLINE
  5
2de
100
AcDbEntity
  8
Layer_1
 62
7
100
AcDbPolyline
 90
2
 70
0
 10
78.081708
 20
61.180111
 30
0.0
 10
77.831164
 20
60.882154
 30
0.0
  0
SPLINE
  5
2df
100
AcDbEntity
  8
Layer_1
 62
7
100
AcDbSpline
 70
8
 71
3
 72
8
 73
4
 74
0
 40
0
 40
0
 40
0
 40
0
 40
1
 40
1
 40
1
 40
1
 10
76.731487
 20
61.982596
 30
0.0
 10
76.816085
 20
62.087554
 30
0.0
 10
76.937963
 20
62.162020
 30
0.0
 10
77.080011
 20
62.162020
 30
0.0
  0
SPLINE
  5
2e0
100
AcDbEntity
  8
Layer_1
 62
7
100
AcDbSpline
 70
8
 71
3
 72
8
 73
4
 74
0
 40
0
 40
0
 40
0
 40
0
 40
1
 40
1
 40
1
 40
1
 10
77.080011
 20
62.162020
 30
0.0
 10
77.360953
 20
62.162020
 30
0.0
 10
77.526994
 20
62.002765
 30
0.0
 10
77.526994
 20
61.630248
 30
0.0
  0
SPLINE
  5
2e1
100
AcDbEntity
  8
Layer_1
 62
7
100
AcDbSpline
 70
8
 71
3
 72
8
 73
4
 74
0
 40
0
 40
0
 40
0
 40
0
 40
1
 40
1
 40
1
 40
1
 10
77.526994
 20
61.630248
 30
0.0
 10
77.526994
 20
61.254576
 30
0.0
 10
77.361048
 20
61.095513
 30
0.0
 10
77.080011
 20
61.095513
 30
0.0
  0
SPLINE
  5
2e2
100
AcDbEntity
  8
Layer_1
 62
7
100
AcDbSpline
 70
8
 71
3
 72
8
 73
4
 74
0
 40
0
 40
0
 40
0
 40
0
 40
1
 40
1
 40
1
 40
1
 10
77.080011
 20
61.095513
 30
0.0
 10
76.937963
 20
61.095513
 30
0.0
 10
76.815990
 20
61.169978
 30
0.0
 10
76.731487
 20
61.274937
 30
0.0
  0
LWPOLYLINE
  5
2e3
100
AcDbEntity
  8
Layer_1
 62
7
100
AcDbPolyline
 90
6
 70
0
 10
78.636995
 20
60.953274
 30
0.0
 10
78.643686
 20
60.953274
 30
0.0
 10
78.643686
 20
60.770504
 30
0.0
 10
78.989056
 20
60.770504
 30
0.0
 10
78.989056
 20
62.486837
 30
0.0
 10
78.989056
 20
62.486837
 30
0.0
  0
SPLINE
  5
2e4
100
AcDbEntity
  8
Layer_1
 62
7
100
AcDbSpline
 70
8
 71
3
 72
8
 73
4
 74
0
 40
0
 40
0
 40
0
 40
0
 40
1
 40
1
 40
1
 40
1
 10
76.477598
 20
61.048100
 30
0.0
 10
76.626433
 20
60.875367
 30
0.0
 10
76.833100
 20
60.750143
 30
0.0
 10
77.093681
 20
60.750143
 30
0.0
  0
SPLINE
  5
2e5
100
AcDbEntity
  8
Layer_1
 62
7
100
AcDbSpline
 70
8
 71
3
 72
8
 73
4
 74
0
 40
0
 40
0
 40
0
 40
0
 40
1
 40
1
 40
1
 40
1
 10
77.093681
 20
60.750143
 30
0.0
 10
77.489714
 20
60.750143
 30
0.0
 10
77.872268
 20
61.000687
 30
0.0
 10
77.872268
 20
61.630248
 30
0.0
  0
SPLINE
  5
2e6
100
AcDbEntity
  8
Layer_1
 62
7
100
AcDbSpline
 70
8
 71
3
 72
8
 73
4
 74
0
 40
0
 40
0
 40
0
 40
0
 40
1
 40
1
 40
1
 40
1
 10
77.872268
 20
61.630248
 30
0.0
 10
77.872268
 20
62.256846
 30
0.0
 10
77.489714
 20
62.507198
 30
0.0
 10
77.093681
 20
62.507198
 30
0.0
  0
SPLINE
  5
2e7
100
AcDbEntity
  8
Layer_1
 62
7
100
AcDbSpline
 70
8
 71
3
 72
8
 73
4
 74
0
 40
0
 40
0
 40
0
 40
0
 40
1
 40
1
 40
1
 40
1
 10
77.093681
 20
62.507198
 30
0.0
 10
76.833005
 20
62.507198
 30
0.0
 10
76.626337
 20
62.381879
 30
0.0
 10
76.477598
 20
62.209433
 30
0.0
  0
LWPOLYLINE
  5
2e8
100
AcDbEntity
  8
Layer_1
 62
7
100
AcDbPolyline
 90
2
 70
0
 10
76.731487
 20
61.274937
 30
0.0
 10
76.477598
 20
61.048100
 30
0.0
  0
LWPOLYLINE
  5
2e9
100
AcDbEntity
  8
Layer_1
 62
7
100
AcDbPolyline
 90
3
 70
0
 10
76.477598
 20
62.209433
 30
0.0
 10
76.731487
 20
61.982596
 30
0.0
 10
76.731487
 20
61.982596
 30
0.0
  0
SPLINE
  5
2ea
100
AcDbEntity
  8
Layer_1
 62
7
100
AcDbSpline
 70
8
 71
3
 72
8
 73
4
 74
0
 40
0
 40
0
 40
0
 40
0
 40
1
 40
1
 40
1
 40
1
 10
74.974624
 20
61.474722
 30
0.0
 10
74.974624
 20
61.031085
 30
0.0
 10
75.303265
 20
60.750143
 30
0.0
 10
75.682187
 20
60.750143
 30
0.0
  0
SPLINE
  5
2eb
100
AcDbEntity
  8
Layer_1
 62
7
100
AcDbSpline
 70
8
 71
3
 72
8
 73
4
 74
0
 40
0
 40
0
 40
0
 40
0
 40
1
 40
1
 40
1
 40
1
 10
75.682187
 20
60.750143
 30
0.0
 10
76.014174
 20
60.750143
 30
0.0
 10
76.389750
 20
60.966943
 30
0.0
 10
76.389750
 20
61.633785
 30
0.0
  0
SPLINE
  5
2ec
100
AcDbEntity
  8
Layer_1
 62
7
100
AcDbSpline
 70
8
 71
3
 72
8
 73
4
 74
0
 40
0
 40
0
 40
0
 40
0
 40
1
 40
1
 40
1
 40
1
 10
76.389750
 20
61.633785
 30
0.0
 10
76.389750
 20
62.337811
 30
0.0
 10
75.980143
 20
62.507198
 30
0.0
 10
75.627987
 20
62.507198
 30
0.0
  0
SPLINE
  5
2ed
100
AcDbEntity
  8
Layer_1
 62
7
100
AcDbSpline
 70
8
 71
3
 72
8
 73
4
 74
0
 40
0
 40
0
 40
0
 40
0
 40
1
 40
1
 40
1
 40
1
 10
75.627987
 20
62.507198
 30
0.0
 10
75.397804
 20
62.507198
 30
0.0
 10
75.177659
 20
62.425946
 30
0.0
 10
75.008558
 20
62.229602
 30
0.0
  0
LWPOLYLINE
  5
2ee
100
AcDbEntity
  8
Layer_1
 62
7
100
AcDbPolyline
 90
2
 70
0
 10
74.974624
 20
61.759104
 30
0.0
 10
74.974624
 20
61.474722
 30
0.0
  0
SPLINE
  5
2ef
100
AcDbEntity
  8
Layer_1
 62
7
100
AcDbSpline
 70
8
 71
3
 72
8
 73
4
 74
0
 40
0
 40
0
 40
0
 40
0
 40
1
 40
1
 40
1
 40
1
 10
75.259102
 20
62.016435
 30
0.0
 10
75.360715
 20
62.121394
 30
0.0
 10
75.502763
 20
62.182380
 30
0.0
 10
75.634774
 20
62.182380
 30
0.0
  0
SPLINE
  5
2f0
100
AcDbEntity
  8
Layer_1
 62
7
100
AcDbSpline
 70
8
 71
3
 72
8
 73
4
 74
0
 40
0
 40
0
 40
0
 40
0
 40
1
 40
1
 40
1
 40
1
 10
75.634774
 20
62.182380
 30
0.0
 10
75.871839
 20
62.182380
 30
0.0
 10
76.044380
 20
62.040141
 30
0.0
 10
76.044380
 20
61.759104
 30
0.0
  0
LWPOLYLINE
  5
2f1
100
AcDbEntity
  8
Layer_1
 62
7
100
AcDbPolyline
 90
2
 70
0
 10
75.008558
 20
62.229602
 30
0.0
 10
75.259102
 20
62.016435
 30
0.0
  0
SPLINE
  5
2f2
100
AcDbEntity
  8
Layer_1
 62
7
100
AcDbSpline
 70
8
 71
3
 72
8
 73
4
 74
0
 40
0
 40
0
 40
0
 40
0
 40
1
 40
1
 40
1
 40
1
 10
76.044380
 20
61.474817
 30
0.0
 10
76.037689
 20
61.213950
 30
0.0
 10
75.885317
 20
61.075248
 30
0.0
 10
75.682187
 20
61.075248
 30
0.0
  0
SPLINE
  5
2f3
100
AcDbEntity
  8
Layer_1
 62
7
100
AcDbSpline
 70
8
 71
3
 72
8
 73
4
 74
0
 40
0
 40
0
 40
0
 40
0
 40
1
 40
1
 40
1
 40
1
 10
75.682187
 20
61.075248
 30
0.0
 10
75.479056
 20
61.075248
 30
0.0
 10
75.330221
 20
61.213950
 30
0.0
 10
75.319993
 20
61.474817
 30
0.0
  0
LWPOLYLINE
  5
2f4
100
AcDbEntity
  8
Layer_1
 62
7
100
AcDbPolyline
 90
3
 70
0
 10
76.044380
 20
61.759104
 30
0.0
 10
74.974624
 20
61.759104
 30
0.0
 10
74.974624
 20
61.759104
 30
0.0
  0
SPLINE
  5
2f5
100
AcDbEntity
  8
Layer_1
 62
7
100
AcDbSpline
 70
8
 71
3
 72
8
 73
4
 74
0
 40
0
 40
0
 40
0
 40
0
 40
1
 40
1
 40
1
 40
1
 10
89.045306
 20
62.162020
 30
0.0
 10
88.720297
 20
62.162020
 30
0.0
 10
88.703377
 20
61.894461
 30
0.0
 10
88.703377
 20
61.630439
 30
0.0
  0
SPLINE
  5
2f6
100
AcDbEntity
  8
Layer_1
 62
7
100
AcDbSpline
 70
8
 71
3
 72
8
 73
4
 74
0
 40
0
 40
0
 40
0
 40
0
 40
1
 40
1
 40
1
 40
1
 10
88.703377
 20
61.630439
 30
0.0
 10
88.703377
 20
61.362880
 30
0.0
 10
88.720297
 20
61.095513
 30
0.0
 10
89.045306
 20
61.095513
 30
0.0
  0
SPLINE
  5
2f7
100
AcDbEntity
  8
Layer_1
 62
7
100
AcDbSpline
 70
8
 71
3
 72
8
 73
4
 74
0
 40
0
 40
0
 40
0
 40
0
 40
1
 40
1
 40
1
 40
1
 10
89.045306
 20
61.095513
 30
0.0
 10
89.366873
 20
61.095513
 30
0.0
 10
89.383888
 20
61.379896
 30
0.0
 10
89.383888
 20
61.630439
 30
0.0
  0
SPLINE
  5
2f8
100
AcDbEntity
  8
Layer_1
 62
7
100
AcDbSpline
 70
8
 71
3
 72
8
 73
4
 74
0
 40
0
 40
0
 40
0
 40
0
 40
1
 40
1
 40
1
 40
1
 10
89.383888
 20
61.630439
 30
0.0
 10
89.383888
 20
61.877637
 30
0.0
 10
89.366969
 20
62.162020
 30
0.0
 10
89.045306
 20
62.162020
 30
0.0
  0
LWPOLYLINE
  5
2f9
100
AcDbEntity
  8
Layer_1
 62
7
100
AcDbPolyline
 90
3
 70
0
 10
75.319993
 20
61.474817
 30
0.0
 10
76.044380
 20
61.474817
 30
0.0
 10
76.044380
 20
61.474817
 30
0.0
  0
SPLINE
  5
2fa
100
AcDbEntity
  8
Layer_1
 62
7
100
AcDbSpline
 70
8
 71
3
 72
8
 73
4
 74
0
 40
0
 40
0
 40
0
 40
0
 40
1
 40
1
 40
1
 40
1
 10
89.383888
 20
60.950024
 30
0.0
 10
89.275488
 20
60.831491
 30
0.0
 10
89.116425
 20
60.750239
 30
0.0
 10
88.940347
 20
60.750239
 30
0.0
  0
SPLINE
  5
2fb
100
AcDbEntity
  8
Layer_1
 62
7
100
AcDbSpline
 70
8
 71
3
 72
8
 73
4
 74
0
 40
0
 40
0
 40
0
 40
0
 40
1
 40
1
 40
1
 40
1
 10
88.940347
 20
60.750239
 30
0.0
 10
88.730525
 20
60.750239
 30
0.0
 10
88.578058
 20
60.845065
 30
0.0
 10
88.479886
 20
60.973730
 30
0.0
  0
SPLINE
  5
2fc
100
AcDbEntity
  8
Layer_1
 62
7
100
AcDbSpline
 70
8
 71
3
 72
8
 73
4
 74
0
 40
0
 40
0
 40
0
 40
0
 40
1
 40
1
 40
1
 40
1
 10
88.479886
 20
60.973730
 30
0.0
 10
88.385155
 20
61.095608
 30
0.0
 10
88.358103
 20
61.207259
 30
0.0
 10
88.358103
 20
61.630535
 30
0.0
  0
SPLINE
  5
2fd
100
AcDbEntity
  8
Layer_1
 62
7
100
AcDbSpline
 70
8
 71
3
 72
8
 73
4
 74
0
 40
0
 40
0
 40
0
 40
0
 40
1
 40
1
 40
1
 40
1
 10
88.358103
 20
61.630535
 30
0.0
 10
88.358103
 20
62.050274
 30
0.0
 10
88.385155
 20
62.162115
 30
0.0
 10
88.479886
 20
62.283802
 30
0.0
  0
SPLINE
  5
2fe
100
AcDbEntity
  8
Layer_1
 62
7
100
AcDbSpline
 70
8
 71
3
 72
8
 73
4
 74
0
 40
0
 40
0
 40
0
 40
0
 40
1
 40
1
 40
1
 40
1
 10
88.479886
 20
62.283802
 30
0.0
 10
88.578058
 20
62.412468
 30
0.0
 10
88.730525
 20
62.507294
 30
0.0
 10
88.940347
 20
62.507294
 30
0.0
  0
SPLINE
  5
2ff
100
AcDbEntity
  8
Layer_1
 62
7
100
AcDbSpline
 70
8
 71
3
 72
8
 73
4
 74
0
 40
0
 40
0
 40
0
 40
0
 40
1
 40
1
 40
1
 40
1
 10
88.940347
 20
62.507294
 30
0.0
 10
89.116425
 20
62.507294
 30
0.0
 10
89.255223
 20
62.426041
 30
0.0
 10
89.383888
 20
62.304163
 30
0.0
  0
LWPOLYLINE
  5
300
100
AcDbEntity
  8
Layer_1
 62
7
100
AcDbPolyline
 90
4
 70
0
 10
89.730501
 20
65.197984
 30
0.0
 10
89.730501
 20
60.770600
 30
0.0
 10
89.383888
 20
60.770600
 30
0.0
 10
89.383888
 20
60.950024
 30
0.0
  0
SPLINE
  5
301
100
AcDbEntity
  8
Layer_1
 62
7
100
AcDbSpline
 70
8
 71
3
 72
8
 73
4
 74
0
 40
0
 40
0
 40
0
 40
0
 40
1
 40
1
 40
1
 40
1
 10
89.385131
 20
63.664421
 30
0.0
 10
89.270040
 20
63.529064
 30
0.0
 10
89.114322
 20
63.461290
 30
0.0
 10
88.931552
 20
63.461290
 30
0.0
  0
SPLINE
  5
302
100
AcDbEntity
  8
Layer_1
 62
7
100
AcDbSpline
 70
8
 71
3
 72
8
 73
4
 74
0
 40
0
 40
0
 40
0
 40
0
 40
1
 40
1
 40
1
 40
1
 10
88.931552
 20
63.461290
 30
0.0
 10
88.664089
 20
63.461290
 30
0.0
 10
88.359441
 20
63.667766
 30
0.0
 10
88.359441
 20
64.057012
 30
0.0
  0
LWPOLYLINE
  5
303
100
AcDbEntity
  8
Layer_1
 62
7
100
AcDbPolyline
 90
2
 70
0
 10
89.383888
 20
62.304163
 30
0.0
 10
89.385131
 20
63.664421
 30
0.0
  0
SPLINE
  5
304
100
AcDbEntity
  8
Layer_1
 62
7
100
AcDbSpline
 70
8
 71
3
 72
8
 73
4
 74
0
 40
0
 40
0
 40
0
 40
0
 40
1
 40
1
 40
1
 40
1
 10
88.704715
 20
64.175640
 30
0.0
 10
88.704715
 20
63.941921
 30
0.0
 10
88.850300
 20
63.806564
 30
0.0
 10
89.043298
 20
63.806564
 30
0.0
  0
SPLINE
  5
305
100
AcDbEntity
  8
Layer_1
 62
7
100
AcDbSpline
 70
8
 71
3
 72
8
 73
4
 74
0
 40
0
 40
0
 40
0
 40
0
 40
1
 40
1
 40
1
 40
1
 10
89.043298
 20
63.806564
 30
0.0
 10
89.239642
 20
63.806564
 30
0.0
 10
89.385131
 20
63.941921
 30
0.0
 10
89.385131
 20
64.175640
 30
0.0
  0
LWPOLYLINE
  5
306
100
AcDbEntity
  8
Layer_1
 62
7
100
AcDbPolyline
 90
4
 70
0
 10
88.359441
 20
64.057012
 30
0.0
 10
88.359441
 20
65.197984
 30
0.0
 10
88.704715
 20
65.197984
 30
0.0
 10
88.704715
 20
64.175640
 30
0.0
  0
LWPOLYLINE
  5
307
100
AcDbEntity
  8
Layer_1
 62
7
100
AcDbPolyline
 90
4
 70
0
 10
89.385131
 20
64.175640
 30
0.0
 10
89.385131
 20
65.197984
 30
0.0
 10
89.730501
 20
65.197984
 30
0.0
 10
89.730501
 20
65.197984
 30
0.0
  0
SPLINE
  5
308
100
AcDbEntity
  8
Layer_1
 62
7
100
AcDbSpline
 70
8
 71
3
 72
8
 73
4
 74
0
 40
0
 40
0
 40
0
 40
0
 40
1
 40
1
 40
1
 40
1
 10
78.448490
 20
53.131173
 30
0.0
 10
78.486726
 20
53.124003
 30
0.0
 10
78.528595
 20
53.088061
 30
0.0
 10
78.541499
 20
53.051163
 30
0.0
  0
LWPOLYLINE
  5
309
100
AcDbEntity
  8
Layer_1
 62
7
100
AcDbPolyline
 90
2
 70
0
 10
76.877072
 20
53.423394
 30
0.0
 10
78.448490
 20
53.131173
 30
0.0
  0
SPLINE
  5
30a
100
AcDbEntity
  8
Layer_1
 62
7
100
AcDbSpline
 70
8
 71
3
 72
8
 73
4
 74
0
 40
0
 40
0
 40
0
 40
0
 40
1
 40
1
 40
1
 40
1
 10
79.023182
 20
51.927397
 30
0.0
 10
79.041153
 20
51.892698
 30
0.0
 10
79.037711
 20
51.838211
 30
0.0
 10
79.015534
 20
51.805901
 30
0.0
  0
LWPOLYLINE
  5
30b
100
AcDbEntity
  8
Layer_1
 62
7
100
AcDbPolyline
 90
2
 70
0
 10
78.541499
 20
53.051163
 30
0.0
 10
79.023182
 20
51.927397
 30
0.0
  0
SPLINE
  5
30c
100
AcDbEntity
  8
Layer_1
 62
7
100
AcDbSpline
 70
8
 71
3
 72
8
 73
4
 74
0
 40
0
 40
0
 40
0
 40
0
 40
1
 40
1
 40
1
 40
1
 10
78.099965
 20
50.471454
 30
0.0
 10
78.078075
 20
50.439335
 30
0.0
 10
78.082377
 20
50.390488
 30
0.0
 10
78.110003
 20
50.362862
 30
0.0
  0
LWPOLYLINE
  5
30d
100
AcDbEntity
  8
Layer_1
 62
7
100
AcDbPolyline
 90
2
 70
0
 10
79.015534
 20
51.805901
 30
0.0
 10
78.099965
 20
50.471454
 30
0.0
  0
SPLINE
  5
30e
100
AcDbEntity
  8
Layer_1
 62
7
100
AcDbSpline
 70
8
 71
3
 72
8
 73
4
 74
0
 40
0
 40
0
 40
0
 40
0
 40
1
 40
1
 40
1
 40
1
 10
79.253556
 20
49.219309
 30
0.0
 10
79.281181
 20
49.191684
 30
0.0
 10
79.329933
 20
49.187191
 30
0.0
 10
79.362051
 20
49.209272
 30
0.0
  0
LWPOLYLINE
  5
30f
100
AcDbEntity
  8
Layer_1
 62
7
100
AcDbPolyline
 90
2
 70
0
 10
78.110003
 20
50.362862
 30
0.0
 10
79.253556
 20
49.219309
 30
0.0
  0
SPLINE
  5
310
100
AcDbEntity
  8
Layer_1
 62
7
100
AcDbSpline
 70
8
 71
3
 72
8
 73
4
 74
0
 40
0
 40
0
 40
0
 40
0
 40
1
 40
1
 40
1
 40
1
 10
80.719919
 20
50.141092
 30
0.0
 10
80.752037
 20
50.163173
 30
0.0
 10
80.807098
 20
50.167092
 30
0.0
 10
80.841988
 20
50.149886
 30
0.0
  0
LWPOLYLINE
  5
311
100
AcDbEntity
  8
Layer_1
 62
7
100
AcDbPolyline
 90
2
 70
0
 10
79.362051
 20
49.209272
 30
0.0
 10
80.719919
 20
50.141092
 30
0.0
  0
SPLINE
  5
312
100
AcDbEntity
  8
Layer_1
 62
7
100
AcDbSpline
 70
8
 71
3
 72
8
 73
4
 74
0
 40
0
 40
0
 40
0
 40
0
 40
1
 40
1
 40
1
 40
1
 10
81.931341
 20
49.703955
 30
0.0
 10
81.968335
 20
49.691719
 30
0.0
 10
82.004373
 20
49.650328
 30
0.0
 10
82.011637
 20
49.611996
 30
0.0
  0
LWPOLYLINE
  5
313
100
AcDbEntity
  8
Layer_1
 62
7
100
AcDbPolyline
 90
2
 70
0
 10
80.841988
 20
50.149886
 30
0.0
 10
81.931341
 20
49.703955
 30
0.0
  0
SPLINE
  5
314
100
AcDbEntity
  8
Layer_1
 62
7
100
AcDbSpline
 70
8
 71
3
 72
8
 73
4
 74
0
 40
0
 40
0
 40
0
 40
0
 40
1
 40
1
 40
1
 40
1
 10
82.314182
 20
47.986666
 30
0.0
 10
82.321256
 20
47.948334
 30
0.0
 10
82.359014
 20
47.916980
 30
0.0
 10
82.398016
 20
47.916980
 30
0.0
  0
LWPOLYLINE
  5
315
100
AcDbEntity
  8
Layer_1
 62
7
100
AcDbPolyline
 90
2
 70
0
 10
82.011637
 20
49.611996
 30
0.0
 10
82.314182
 20
47.986666
 30
0.0
  0
SPLINE
  5
316
100
AcDbEntity
  8
Layer_1
 62
7
100
AcDbSpline
 70
8
 71
3
 72
8
 73
4
 74
0
 40
0
 40
0
 40
0
 40
0
 40
1
 40
1
 40
1
 40
1
 10
84.015412
 20
47.916980
 30
0.0
 10
84.054318
 20
47.916980
 30
0.0
 10
84.092076
 20
47.948334
 30
0.0
 10
84.099150
 20
47.986666
 30
0.0
  0
LWPOLYLINE
  5
317
100
AcDbEntity
  8
Layer_1
 62
7
100
AcDbPolyline
 90
2
 70
0
 10
82.398016
 20
47.916980
 30
0.0
 10
84.015412
 20
47.916980
 30
0.0
  0
SPLINE
  5
318
100
AcDbEntity
  8
Layer_1
 62
7
100
AcDbSpline
 70
8
 71
3
 72
8
 73
4
 74
0
 40
0
 40
0
 40
0
 40
0
 40
1
 40
1
 40
1
 40
1
 10
84.401599
 20
49.611996
 30
0.0
 10
84.408864
 20
49.650328
 30
0.0
 10
84.444806
 20
49.691719
 30
0.0
 10
84.481895
 20
49.703955
 30
0.0
  0
LWPOLYLINE
  5
319
100
AcDbEntity
  8
Layer_1
 62
7
100
AcDbPolyline
 90
2
 70
0
 10
84.099150
 20
47.986666
 30
0.0
 10
84.401599
 20
49.611996
 30
0.0
  0
SPLINE
  5
31a
100
AcDbEntity
  8
Layer_1
 62
7
100
AcDbSpline
 70
8
 71
3
 72
8
 73
4
 74
0
 40
0
 40
0
 40
0
 40
0
 40
1
 40
1
 40
1
 40
1
 10
85.571344
 20
50.149886
 30
0.0
 10
85.606330
 20
50.167092
 30
0.0
 10
85.661391
 20
50.163173
 30
0.0
 10
85.693413
 20
50.141092
 30
0.0
  0
LWPOLYLINE
  5
31b
100
AcDbEntity
  8
Layer_1
 62
7
100
AcDbPolyline
 90
2
 70
0
 10
84.481895
 20
49.703955
 30
0.0
 10
85.571344
 20
50.149886
 30
0.0
  0
SPLINE
  5
31c
100
AcDbEntity
  8
Layer_1
 62
7
100
AcDbSpline
 70
8
 71
3
 72
8
 73
4
 74
0
 40
0
 40
0
 40
0
 40
0
 40
1
 40
1
 40
1
 40
1
 10
87.051185
 20
49.209272
 30
0.0
 10
87.083400
 20
49.187191
 30
0.0
 10
87.132246
 20
49.191684
 30
0.0
 10
87.159777
 20
49.219309
 30
0.0
  0
LWPOLYLINE
  5
31d
100
AcDbEntity
  8
Layer_1
 62
7
100
AcDbPolyline
 90
2
 70
0
 10
85.693413
 20
50.141092
 30
0.0
 10
87.051185
 20
49.209272
 30
0.0
  0
SPLINE
  5
31e
100
AcDbEntity
  8
Layer_1
 62
7
100
AcDbSpline
 70
8
 71
3
 72
8
 73
4
 74
0
 40
0
 40
0
 40
0
 40
0
 40
1
 40
1
 40
1
 40
1
 10
88.303425
 20
50.362862
 30
0.0
 10
88.330955
 20
50.390488
 30
0.0
 10
88.335544
 20
50.439335
 30
0.0
 10
88.313462
 20
50.471454
 30
0.0
  0
LWPOLYLINE
  5
31f
100
AcDbEntity
  8
Layer_1
 62
7
100
AcDbPolyline
 90
2
 70
0
 10
87.159777
 20
49.219309
 30
0.0
 10
88.303425
 20
50.362862
 30
0.0
  0
SPLINE
  5
320
100
AcDbEntity
  8
Layer_1
 62
7
100
AcDbSpline
 70
8
 71
3
 72
8
 73
4
 74
0
 40
0
 40
0
 40
0
 40
0
 40
1
 40
1
 40
1
 40
1
 10
87.397798
 20
51.805901
 30
0.0
 10
87.375812
 20
51.838211
 30
0.0
 10
87.372371
 20
51.892698
 30
0.0
 10
87.390246
 20
51.927397
 30
0.0
  0
LWPOLYLINE
  5
321
100
AcDbEntity
  8
Layer_1
 62
7
100
AcDbPolyline
 90
2
 70
0
 10
88.313462
 20
50.471454
 30
0.0
 10
87.397798
 20
51.805901
 30
0.0
  0
SPLINE
  5
322
100
AcDbEntity
  8
Layer_1
 62
7
100
AcDbSpline
 70
8
 71
3
 72
8
 73
4
 74
0
 40
0
 40
0
 40
0
 40
0
 40
1
 40
1
 40
1
 40
1
 10
87.872024
 20
53.051163
 30
0.0
 10
87.884833
 20
53.088061
 30
0.0
 10
87.926606
 20
53.124003
 30
0.0
 10
87.965034
 20
53.131173
 30
0.0
  0
LWPOLYLINE
  5
323
100
AcDbEntity
  8
Layer_1
 62
7
100
AcDbPolyline
 90
2
 70
0
 10
87.390246
 20
51.927397
 30
0.0
 10
87.872024
 20
53.051163
 30
0.0
  0
SPLINE
  5
324
100
AcDbEntity
  8
Layer_1
 62
7
100
AcDbSpline
 70
8
 71
3
 72
8
 73
4
 74
0
 40
0
 40
0
 40
0
 40
0
 40
1
 40
1
 40
1
 40
1
 10
89.536356
 20
53.423394
 30
0.0
 10
89.574783
 20
53.430659
 30
0.0
 10
89.606041
 20
53.468321
 30
0.0
 10
89.606041
 20
53.507322
 30
0.0
  0
LWPOLYLINE
  5
325
100
AcDbEntity
  8
Layer_1
 62
7
100
AcDbPolyline
 90
2
 70
0
 10
87.965034
 20
53.131173
 30
0.0
 10
89.536356
 20
53.423394
 30
0.0
  0
SPLINE
  5
326
100
AcDbEntity
  8
Layer_1
 62
7
100
AcDbSpline
 70
8
 71
3
 72
8
 73
4
 74
0
 40
0
 40
0
 40
0
 40
0
 40
1
 40
1
 40
1
 40
1
 10
89.605946
 20
55.124623
 30
0.0
 10
89.605946
 20
55.163625
 30
0.0
 10
89.574592
 20
55.201574
 30
0.0
 10
89.536260
 20
55.208552
 30
0.0
  0
LWPOLYLINE
  5
327
100
AcDbEntity
  8
Layer_1
 62
7
100
AcDbPolyline
 90
2
 70
0
 10
89.606041
 20
53.507322
 30
0.0
 10
89.605946
 20
55.124623
 30
0.0
  0
SPLINE
  5
328
100
AcDbEntity
  8
Layer_1
 62
7
100
AcDbSpline
 70
8
 71
3
 72
8
 73
4
 74
0
 40
0
 40
0
 40
0
 40
0
 40
1
 40
1
 40
1
 40
1
 10
88.003461
 20
55.493795
 30
0.0
 10
87.965129
 20
55.500773
 30
0.0
 10
87.924121
 20
55.537193
 30
0.0
 10
87.912459
 20
55.574378
 30
0.0
  0
LWPOLYLINE
  5
329
100
AcDbEntity
  8
Layer_1
 62
7
100
AcDbPolyline
 90
2
 70
0
 10
89.536260
 20
55.208552
 30
0.0
 10
88.003461
 20
55.493795
 30
0.0
  0
SPLINE
  5
32a
100
AcDbEntity
  8
Layer_1
 62
7
100
AcDbSpline
 70
8
 71
3
 72
8
 73
4
 74
0
 40
0
 40
0
 40
0
 40
0
 40
1
 40
1
 40
1
 40
1
 10
87.433931
 20
56.769741
 30
0.0
 10
87.416820
 20
56.804823
 30
0.0
 10
87.420835
 20
56.859692
 30
0.0
 10
87.443012
 20
56.891811
 30
0.0
  0
LWPOLYLINE
  5
32b
100
AcDbEntity
  8
Layer_1
 62
7
100
AcDbPolyline
 90
2
 70
0
 10
87.912459
 20
55.574378
 30
0.0
 10
87.433931
 20
56.769741
 30
0.0
  0
SPLINE
  5
32c
100
AcDbEntity
  8
Layer_1
 62
7
100
AcDbSpline
 70
8
 71
3
 72
8
 73
4
 74
0
 40
0
 40
0
 40
0
 40
0
 40
1
 40
1
 40
1
 40
1
 10
88.313653
 20
58.160588
 30
0.0
 10
88.335639
 20
58.192706
 30
0.0
 10
88.331147
 20
58.241649
 30
0.0
 10
88.303616
 20
58.269275
 30
0.0
  0
LWPOLYLINE
  5
32d
100
AcDbEntity
  8
Layer_1
 62
7
100
AcDbPolyline
 90
2
 70
0
 10
87.443012
 20
56.891811
 30
0.0
 10
88.313653
 20
58.160588
 30
0.0
  0
SPLINE
  5
32e
100
AcDbEntity
  8
Layer_1
 62
7
100
AcDbSpline
 70
8
 71
3
 72
8
 73
4
 74
0
 40
0
 40
0
 40
0
 40
0
 40
1
 40
1
 40
1
 40
1
 10
87.159872
 20
59.412828
 30
0.0
 10
87.132342
 20
59.440262
 30
0.0
 10
87.083495
 20
59.444755
 30
0.0
 10
87.051281
 20
59.422865
 30
0.0
  0
LWPOLYLINE
  5
32f
100
AcDbEntity
  8
Layer_1
 62
7
100
AcDbPolyline
 90
2
 70
0
 10
88.303616
 20
58.269275
 30
0.0
 10
87.159872
 20
59.412828
 30
0.0
  0
SPLINE
  5
330
100
AcDbEntity
  8
Layer_1
 62
7
100
AcDbSpline
 70
8
 71
3
 72
8
 73
4
 74
0
 40
0
 40
0
 40
0
 40
0
 40
1
 40
1
 40
1
 40
1
 10
85.804968
 20
58.567422
 30
0.0
 10
85.772849
 20
58.545437
 30
0.0
 10
85.719032
 20
58.543716
 30
0.0
 10
85.685479
 20
58.563312
 30
0.0
  0
LWPOLYLINE
  5
331
100
AcDbEntity
  8
Layer_1
 62
7
100
AcDbPolyline
 90
2
 70
0
 10
87.051281
 20
59.422865
 30
0.0
 10
85.804968
 20
58.567422
 30
0.0
  0
SPLINE
  5
332
100
AcDbEntity
  8
Layer_1
 62
7
100
AcDbSpline
 70
8
 71
3
 72
8
 73
4
 74
0
 40
0
 40
0
 40
0
 40
0
 40
1
 40
1
 40
1
 40
1
 10
85.135832
 20
58.856776
 30
0.0
 10
85.101037
 20
58.874556
 30
0.0
 10
85.060411
 20
58.859548
 30
0.0
 10
85.045499
 20
58.823510
 30
0.0
  0
LWPOLYLINE
  5
333
100
AcDbEntity
  8
Layer_1
 62
7
100
AcDbPolyline
 90
2
 70
0
 10
85.685479
 20
58.563312
 30
0.0
 10
85.135832
 20
58.856776
 30
0.0
  0
SPLINE
  5
334
100
AcDbEntity
  8
Layer_1
 62
7
100
AcDbSpline
 70
8
 71
3
 72
8
 73
4
 74
0
 40
0
 40
0
 40
0
 40
0
 40
1
 40
1
 40
1
 40
1
 10
83.912174
 20
56.085120
 30
0.0
 10
83.897166
 20
56.049082
 30
0.0
 10
83.912174
 20
56.003103
 30
0.0
 10
83.945440
 20
55.982742
 30
0.0
  0
LWPOLYLINE
  5
335
100
AcDbEntity
  8
Layer_1
 62
7
100
AcDbPolyline
 90
2
 70
0
 10
85.045499
 20
58.823510
 30
0.0
 10
83.912174
 20
56.085120
 30
0.0
  0
SPLINE
  5
336
100
AcDbEntity
  8
Layer_1
 62
7
100
AcDbSpline
 70
8
 71
3
 72
8
 73
4
 74
0
 40
0
 40
0
 40
0
 40
0
 40
1
 40
1
 40
1
 40
1
 10
84.082995
 20
55.898527
 30
0.0
 10
84.108422
 20
55.883041
 30
0.0
 10
84.142930
 20
55.856371
 30
0.0
 10
84.169983
 20
55.831900
 30
0.0
  0
SPLINE
  5
337
100
AcDbEntity
  8
Layer_1
 62
7
100
AcDbSpline
 70
8
 71
3
 72
8
 73
4
 74
0
 40
0
 40
0
 40
0
 40
0
 40
1
 40
1
 40
1
 40
1
 10
84.169983
 20
55.831900
 30
0.0
 10
84.666195
 20
55.514156
 30
0.0
 10
84.995409
 20
54.958295
 30
0.0
 10
84.995409
 20
54.325293
 30
0.0
  0
SPLINE
  5
338
100
AcDbEntity
  8
Layer_1
 62
7
100
AcDbSpline
 70
8
 71
3
 72
8
 73
4
 74
0
 40
0
 40
0
 40
0
 40
0
 40
1
 40
1
 40
1
 40
1
 10
84.995409
 20
54.325293
 30
0.0
 10
84.995409
 20
53.337458
 30
0.0
 10
84.194549
 20
52.536693
 30
0.0
 10
83.206809
 20
52.536693
 30
0.0
  0
SPLINE
  5
339
100
AcDbEntity
  8
Layer_1
 62
7
100
AcDbSpline
 70
8
 71
3
 72
8
 73
4
 74
0
 40
0
 40
0
 40
0
 40
0
 40
1
 40
1
 40
1
 40
1
 10
83.206809
 20
52.536693
 30
0.0
 10
82.219070
 20
52.536693
 30
0.0
 10
81.418305
 20
53.337458
 30
0.0
 10
81.418305
 20
54.325293
 30
0.0
  0
SPLINE
  5
33a
100
AcDbEntity
  8
Layer_1
 62
7
100
AcDbSpline
 70
8
 71
3
 72
8
 73
4
 74
0
 40
0
 40
0
 40
0
 40
0
 40
1
 40
1
 40
1
 40
1
 10
81.418305
 20
54.325293
 30
0.0
 10
81.418305
 20
54.958295
 30
0.0
 10
81.747424
 20
55.514156
 30
0.0
 10
82.243732
 20
55.831900
 30
0.0
  0
SPLINE
  5
33b
100
AcDbEntity
  8
Layer_1
 62
7
100
AcDbSpline
 70
8
 71
3
 72
8
 73
4
 74
0
 40
0
 40
0
 40
0
 40
0
 40
1
 40
1
 40
1
 40
1
 10
82.243732
 20
55.831900
 30
0.0
 10
82.270593
 20
55.856371
 30
0.0
 10
82.305197
 20
55.883041
 30
0.0
 10
82.330528
 20
55.898527
 30
0.0
  0
LWPOLYLINE
  5
33c
100
AcDbEntity
  8
Layer_1
 62
7
100
AcDbPolyline
 90
2
 70
0
 10
83.945440
 20
55.982742
 30
0.0
 10
84.082995
 20
55.898527
 30
0.0
  0
SPLINE
  5
33d
100
AcDbEntity
  8
Layer_1
 62
7
100
AcDbSpline
 70
8
 71
3
 72
8
 73
4
 74
0
 40
0
 40
0
 40
0
 40
0
 40
1
 40
1
 40
1
 40
1
 10
82.468084
 20
55.982742
 30
0.0
 10
82.501158
 20
56.003103
 30
0.0
 10
82.516261
 20
56.049082
 30
0.0
 10
82.501349
 20
56.085120
 30
0.0
  0
LWPOLYLINE
  5
33e
100
AcDbEntity
  8
Layer_1
 62
7
100
AcDbPolyline
 90
2
 70
0
 10
82.330528
 20
55.898527
 30
0.0
 10
82.468084
 20
55.982742
 30
0.0
  0
SPLINE
  5
33f
100
AcDbEntity
  8
Layer_1
 62
7
100
AcDbSpline
 70
8
 71
3
 72
8
 73
4
 74
0
 40
0
 40
0
 40
0
 40
0
 40
1
 40
1
 40
1
 40
1
 10
81.368120
 20
58.823606
 30
0.0
 10
81.353208
 20
58.859644
 30
0.0
 10
81.312677
 20
58.874556
 30
0.0
 10
81.277787
 20
58.856871
 30
0.0
  0
LWPOLYLINE
  5
340
100
AcDbEntity
  8
Layer_1
 62
7
100
AcDbPolyline
 90
2
 70
0
 10
82.501349
 20
56.085120
 30
0.0
 10
81.368120
 20
58.823606
 30
0.0
  0
SPLINE
  5
341
100
AcDbEntity
  8
Layer_1
 62
7
100
AcDbSpline
 70
8
 71
3
 72
8
 73
4
 74
0
 40
0
 40
0
 40
0
 40
0
 40
1
 40
1
 40
1
 40
1
 10
80.728139
 20
58.563408
 30
0.0
 10
80.694492
 20
58.543812
 30
0.0
 10
80.640769
 20
58.545437
 30
0.0
 10
80.608651
 20
58.567518
 30
0.0
  0
LWPOLYLINE
  5
342
100
AcDbEntity
  8
Layer_1
 62
7
100
AcDbPolyline
 90
2
 70
0
 10
81.277787
 20
58.856871
 30
0.0
 10
80.728139
 20
58.563408
 30
0.0
  0
SPLINE
  5
343
100
AcDbEntity
  8
Layer_1
 62
7
100
AcDbSpline
 70
8
 71
3
 72
8
 73
4
 74
0
 40
0
 40
0
 40
0
 40
0
 40
1
 40
1
 40
1
 40
1
 10
79.362242
 20
59.422960
 30
0.0
 10
79.330124
 20
59.444851
 30
0.0
 10
79.281181
 20
59.440358
 30
0.0
 10
79.253747
 20
59.412923
 30
0.0
  0
LWPOLYLINE
  5
344
100
AcDbEntity
  8
Layer_1
 62
7
100
AcDbPolyline
 90
2
 70
0
 10
80.608651
 20
58.567518
 30
0.0
 10
79.362242
 20
59.422960
 30
0.0
  0
SPLINE
  5
345
100
AcDbEntity
  8
Layer_1
 62
7
100
AcDbSpline
 70
8
 71
3
 72
8
 73
4
 74
0
 40
0
 40
0
 40
0
 40
0
 40
1
 40
1
 40
1
 40
1
 10
78.110003
 20
58.269370
 30
0.0
 10
78.082377
 20
58.241745
 30
0.0
 10
78.077884
 20
58.192802
 30
0.0
 10
78.099965
 20
58.160684
 30
0.0
  0
LWPOLYLINE
  5
346
100
AcDbEntity
  8
Layer_1
 62
7
100
AcDbPolyline
 90
2
 70
0
 10
79.253747
 20
59.412923
 30
0.0
 10
78.110003
 20
58.269370
 30
0.0
  0
SPLINE
  5
347
100
AcDbEntity
  8
Layer_1
 62
7
100
AcDbSpline
 70
8
 71
3
 72
8
 73
4
 74
0
 40
0
 40
0
 40
0
 40
0
 40
1
 40
1
 40
1
 40
1
 10
78.970702
 20
56.891907
 30
0.0
 10
78.992688
 20
56.859788
 30
0.0
 10
78.996799
 20
56.804919
 30
0.0
 10
78.979688
 20
56.769837
 30
0.0
  0
LWPOLYLINE
  5
348
100
AcDbEntity
  8
Layer_1
 62
7
100
AcDbPolyline
 90
2
 70
0
 10
78.099965
 20
58.160684
 30
0.0
 10
78.970702
 20
56.891907
 30
0.0
  0
SPLINE
  5
349
100
AcDbEntity
  8
Layer_1
 62
7
100
AcDbSpline
 70
8
 71
3
 72
8
 73
4
 74
0
 40
0
 40
0
 40
0
 40
0
 40
1
 40
1
 40
1
 40
1
 10
78.501160
 20
55.574474
 30
0.0
 10
78.489402
 20
55.537289
 30
0.0
 10
78.448681
 20
55.500869
 30
0.0
 10
78.410253
 20
55.493891
 30
0.0
  0
LWPOLYLINE
  5
34a
100
AcDbEntity
  8
Layer_1
 62
7
100
AcDbPolyline
 90
2
 70
0
 10
78.979688
 20
56.769837
 30
0.0
 10
78.501160
 20
55.574474
 30
0.0
  0
SPLINE
  5
34b
100
AcDbEntity
  8
Layer_1
 62
7
100
AcDbSpline
 70
8
 71
3
 72
8
 73
4
 74
0
 40
0
 40
0
 40
0
 40
0
 40
1
 40
1
 40
1
 40
1
 10
76.877454
 20
55.208648
 30
0.0
 10
76.839218
 20
55.201670
 30
0.0
 10
76.807769
 20
55.163720
 30
0.0
 10
76.807769
 20
55.124719
 30
0.0
  0
LWPOLYLINE
  5
34c
100
AcDbEntity
  8
Layer_1
 62
7
100
AcDbPolyline
 90
2
 70
0
 10
78.410253
 20
55.493891
 30
0.0
 10
76.877454
 20
55.208648
 30
0.0
  0
SPLINE
  5
34d
100
AcDbEntity
  8
Layer_1
 62
7
100
AcDbSpline
 70
8
 71
3
 72
8
 73
4
 74
0
 40
0
 40
0
 40
0
 40
0
 40
1
 40
1
 40
1
 40
1
 10
76.807578
 20
53.507418
 30
0.0
 10
76.807482
 20
53.468321
 30
0.0
 10
76.838836
 20
53.430659
 30
0.0
 10
76.877072
 20
53.423394
 30
0.0
  0
LWPOLYLINE
  5
34e
100
AcDbEntity
  8
Layer_1
 62
7
100
AcDbPolyline
 90
2
 70
0
 10
76.807769
 20
55.124719
 30
0.0
 10
76.807578
 20
53.507418
 30
0.0
  0
LWPOLYLINE
  5
34f
100
AcDbEntity
  8
Layer_1
 62
7
100
AcDbPolyline
 90
2
 70
0
 10
76.877072
 20
53.423394
 30
0.0
 10
76.877072
 20
53.423394
 30
0.0
  0
SPLINE
  5
350
100
AcDbEntity
  8
Layer_1
 62
7
100
AcDbSpline
 70
8
 71
3
 72
8
 73
4
 74
0
 40
0
 40
0
 40
0
 40
0
 40
1
 40
1
 40
1
 40
1
 10
78.473056
 20
55.193640
 30
0.0
 10
78.573140
 20
55.213427
 30
0.0
 10
78.638142
 20
55.255296
 30
0.0
 10
78.694158
 20
55.303665
 30
0.0
  0
SPLINE
  5
351
100
AcDbEntity
  8
Layer_1
 62
7
100
AcDbSpline
 70
8
 71
3
 72
8
 73
4
 74
0
 40
0
 40
0
 40
0
 40
0
 40
1
 40
1
 40
1
 40
1
 10
78.694158
 20
55.303665
 30
0.0
 10
78.744917
 20
55.350218
 30
0.0
 10
78.790131
 20
55.404322
 30
0.0
 10
78.821963
 20
55.488538
 30
0.0
  0
LWPOLYLINE
  5
352
100
AcDbEntity
  8
Layer_1
 62
7
100
AcDbPolyline
 90
2
 70
0
 10
77.151800
 20
54.947780
 30
0.0
 10
78.473056
 20
55.193640
 30
0.0
  0
SPLINE
  5
353
100
AcDbEntity
  8
Layer_1
 62
7
100
AcDbSpline
 70
8
 71
3
 72
8
 73
4
 74
0
 40
0
 40
0
 40
0
 40
0
 40
1
 40
1
 40
1
 40
1
 10
79.297145
 20
56.675298
 30
0.0
 10
79.327447
 20
56.745653
 30
0.0
 10
79.333852
 20
56.804919
 30
0.0
 10
79.334425
 20
56.859214
 30
0.0
  0
SPLINE
  5
354
100
AcDbEntity
  8
Layer_1
 62
7
100
AcDbSpline
 70
8
 71
3
 72
8
 73
4
 74
0
 40
0
 40
0
 40
0
 40
0
 40
1
 40
1
 40
1
 40
1
 10
79.334425
 20
56.859214
 30
0.0
 10
79.332418
 20
56.944864
 30
0.0
 10
79.318366
 20
57.027263
 30
0.0
 10
79.254129
 20
57.125053
 30
0.0
  0
LWPOLYLINE
  5
355
100
AcDbEntity
  8
Layer_1
 62
7
100
AcDbPolyline
 90
2
 70
0
 10
78.821963
 20
55.488538
 30
0.0
 10
79.297145
 20
56.675298
 30
0.0
  0
SPLINE
  5
356
100
AcDbEntity
  8
Layer_1
 62
7
100
AcDbSpline
 70
8
 71
3
 72
8
 73
4
 74
0
 40
0
 40
0
 40
0
 40
0
 40
1
 40
1
 40
1
 40
1
 10
80.413837
 20
58.321945
 30
0.0
 10
80.507420
 20
58.260002
 30
0.0
 10
80.591158
 20
58.244995
 30
0.0
 10
80.672410
 20
58.243752
 30
0.0
  0
SPLINE
  5
357
100
AcDbEntity
  8
Layer_1
 62
7
100
AcDbSpline
 70
8
 71
3
 72
8
 73
4
 74
0
 40
0
 40
0
 40
0
 40
0
 40
1
 40
1
 40
1
 40
1
 10
80.672410
 20
58.243752
 30
0.0
 10
80.740949
 20
58.244517
 30
0.0
 10
80.811304
 20
58.255892
 30
0.0
 10
80.889975
 20
58.298048
 30
0.0
  0
LWPOLYLINE
  5
358
100
AcDbEntity
  8
Layer_1
 62
7
100
AcDbPolyline
 90
4
 70
0
 10
79.254129
 20
57.125053
 30
0.0
 10
78.505271
 20
58.216317
 30
0.0
 10
79.344749
 20
59.055700
 30
0.0
 10
80.413837
 20
58.321945
 30
0.0
  0
SPLINE
  5
359
100
AcDbEntity
  8
Layer_1
 62
7
100
AcDbSpline
 70
8
 71
3
 72
8
 73
4
 74
0
 40
0
 40
0
 40
0
 40
0
 40
1
 40
1
 40
1
 40
1
 10
82.099007
 20
56.195432
 30
0.0
 10
82.076639
 20
56.179277
 30
0.0
 10
82.055992
 20
56.162644
 30
0.0
 10
82.035153
 20
56.144960
 30
0.0
  0
SPLINE
  5
35a
100
AcDbEntity
  8
Layer_1
 62
7
100
AcDbSpline
 70
8
 71
3
 72
8
 73
4
 74
0
 40
0
 40
0
 40
0
 40
0
 40
1
 40
1
 40
1
 40
1
 10
82.035153
 20
56.144960
 30
0.0
 10
81.457115
 20
55.764986
 30
0.0
 10
81.074083
 20
55.107991
 30
0.0
 10
81.074083
 20
54.363434
 30
0.0
  0
SPLINE
  5
35b
100
AcDbEntity
  8
Layer_1
 62
7
100
AcDbSpline
 70
8
 71
3
 72
8
 73
4
 74
0
 40
0
 40
0
 40
0
 40
0
 40
1
 40
1
 40
1
 40
1
 10
81.074083
 20
54.363434
 30
0.0
 10
81.074274
 20
53.185373
 30
0.0
 10
82.028748
 20
52.230803
 30
0.0
 10
83.206714
 20
52.230611
 30
0.0
  0
SPLINE
  5
35c
100
AcDbEntity
  8
Layer_1
 62
7
100
AcDbSpline
 70
8
 71
3
 72
8
 73
4
 74
0
 40
0
 40
0
 40
0
 40
0
 40
1
 40
1
 40
1
 40
1
 10
83.206714
 20
52.230611
 30
0.0
 10
84.384584
 20
52.230803
 30
0.0
 10
85.339154
 20
53.185373
 30
0.0
 10
85.339536
 20
54.363434
 30
0.0
  0
SPLINE
  5
35d
100
AcDbEntity
  8
Layer_1
 62
7
100
AcDbSpline
 70
8
 71
3
 72
8
 73
4
 74
0
 40
0
 40
0
 40
0
 40
0
 40
1
 40
1
 40
1
 40
1
 10
85.339536
 20
54.363434
 30
0.0
 10
85.339345
 20
55.107991
 30
0.0
 10
84.956408
 20
55.764891
 30
0.0
 10
84.378275
 20
56.144864
 30
0.0
  0
SPLINE
  5
35e
100
AcDbEntity
  8
Layer_1
 62
7
100
AcDbSpline
 70
8
 71
3
 72
8
 73
4
 74
0
 40
0
 40
0
 40
0
 40
0
 40
1
 40
1
 40
1
 40
1
 10
84.378275
 20
56.144864
 30
0.0
 10
84.357627
 20
56.162453
 30
0.0
 10
84.337075
 20
56.178990
 30
0.0
 10
84.314420
 20
56.195336
 30
0.0
  0
LWPOLYLINE
  5
35f
100
AcDbEntity
  8
Layer_1
 62
7
100
AcDbPolyline
 90
4
 70
0
 10
80.889975
 20
58.298048
 30
0.0
 10
80.890070
 20
58.298048
 30
0.0
 10
81.167570
 20
58.446309
 30
0.0
 10
82.099007
 20
56.195432
 30
0.0
  0
SPLINE
  5
360
100
AcDbEntity
  8
Layer_1
 62
7
100
AcDbSpline
 70
8
 71
3
 72
8
 73
4
 74
0
 40
0
 40
0
 40
0
 40
0
 40
1
 40
1
 40
1
 40
1
 10
85.523262
 20
58.298048
 30
0.0
 10
85.603080
 20
58.255318
 30
0.0
 10
85.674582
 20
58.244421
 30
0.0
 10
85.741304
 20
58.243752
 30
0.0
  0
SPLINE
  5
361
100
AcDbEntity
  8
Layer_1
 62
7
100
AcDbSpline
 70
8
 71
3
 72
8
 73
4
 74
0
 40
0
 40
0
 40
0
 40
0
 40
1
 40
1
 40
1
 40
1
 10
85.741304
 20
58.243752
 30
0.0
 10
85.823513
 20
58.245090
 30
0.0
 10
85.906581
 20
58.260194
 30
0.0
 10
86.000164
 20
58.322328
 30
0.0
  0
LWPOLYLINE
  5
362
100
AcDbEntity
  8
Layer_1
 62
7
100
AcDbPolyline
 90
3
 70
0
 10
84.314420
 20
56.195336
 30
0.0
 10
85.245762
 20
58.446309
 30
0.0
 10
85.523262
 20
58.298048
 30
0.0
  0
SPLINE
  5
363
100
AcDbEntity
  8
Layer_1
 62
7
100
AcDbSpline
 70
8
 71
3
 72
8
 73
4
 74
0
 40
0
 40
0
 40
0
 40
0
 40
1
 40
1
 40
1
 40
1
 10
87.159299
 20
57.124670
 30
0.0
 10
87.095635
 20
57.027072
 30
0.0
 10
87.081201
 20
56.945151
 30
0.0
 10
87.079194
 20
56.859214
 30
0.0
  0
SPLINE
  5
364
100
AcDbEntity
  8
Layer_1
 62
7
100
AcDbSpline
 70
8
 71
3
 72
8
 73
4
 74
0
 40
0
 40
0
 40
0
 40
0
 40
1
 40
1
 40
1
 40
1
 10
87.079194
 20
56.859214
 30
0.0
 10
87.079958
 20
56.803581
 30
0.0
 10
87.087032
 20
56.744219
 30
0.0
 10
87.116283
 20
56.675680
 30
0.0
  0
LWPOLYLINE
  5
365
100
AcDbEntity
  8
Layer_1
 62
7
100
AcDbPolyline
 90
4
 70
0
 10
86.000164
 20
58.322328
 30
0.0
 10
87.068583
 20
59.055700
 30
0.0
 10
87.908253
 20
58.216317
 30
0.0
 10
87.159299
 20
57.124670
 30
0.0
  0
SPLINE
  5
366
100
AcDbEntity
  8
Layer_1
 62
7
100
AcDbSpline
 70
8
 71
3
 72
8
 73
4
 74
0
 40
0
 40
0
 40
0
 40
0
 40
1
 40
1
 40
1
 40
1
 10
87.592230
 20
55.486339
 30
0.0
 10
87.624252
 20
55.402602
 30
0.0
 10
87.669562
 20
55.349357
 30
0.0
 10
87.719748
 20
55.303283
 30
0.0
  0
SPLINE
  5
367
100
AcDbEntity
  8
Layer_1
 62
7
100
AcDbSpline
 70
8
 71
3
 72
8
 73
4
 74
0
 40
0
 40
0
 40
0
 40
0
 40
1
 40
1
 40
1
 40
1
 10
87.719748
 20
55.303283
 30
0.0
 10
87.776051
 20
55.255105
 30
0.0
 10
87.840479
 20
55.213523
 30
0.0
 10
87.941518
 20
55.193544
 30
0.0
  0
LWPOLYLINE
  5
368
100
AcDbEntity
  8
Layer_1
 62
7
100
AcDbPolyline
 90
2
 70
0
 10
87.116283
 20
56.675680
 30
0.0
 10
87.592230
 20
55.486339
 30
0.0
  0
SPLINE
  5
369
100
AcDbEntity
  8
Layer_1
 62
7
100
AcDbSpline
 70
8
 71
3
 72
8
 73
4
 74
0
 40
0
 40
0
 40
0
 40
0
 40
1
 40
1
 40
1
 40
1
 10
87.902135
 20
53.507514
 30
0.0
 10
87.803581
 20
53.487726
 30
0.0
 10
87.740395
 20
53.447865
 30
0.0
 10
87.684475
 20
53.401312
 30
0.0
  0
SPLINE
  5
36a
100
AcDbEntity
  8
Layer_1
 62
7
100
AcDbSpline
 70
8
 71
3
 72
8
 73
4
 74
0
 40
0
 40
0
 40
0
 40
0
 40
1
 40
1
 40
1
 40
1
 10
87.684475
 20
53.401312
 30
0.0
 10
87.634672
 20
53.357054
 30
0.0
 10
87.589457
 20
53.306008
 30
0.0
 10
87.555809
 20
53.224852
 30
0.0
  0
LWPOLYLINE
  5
36b
100
AcDbEntity
  8
Layer_1
 62
7
100
AcDbPolyline
 90
4
 70
0
 10
87.941518
 20
55.193544
 30
0.0
 10
89.261723
 20
54.947876
 30
0.0
 10
89.261819
 20
53.760734
 30
0.0
 10
87.902135
 20
53.507514
 30
0.0
  0
SPLINE
  5
36c
100
AcDbEntity
  8
Layer_1
 62
7
100
AcDbSpline
 70
8
 71
3
 72
8
 73
4
 74
0
 40
0
 40
0
 40
0
 40
0
 40
1
 40
1
 40
1
 40
1
 10
87.076708
 20
52.107490
 30
0.0
 10
87.044399
 20
52.036849
 30
0.0
 10
87.035317
 20
51.974046
 30
0.0
 10
87.034744
 20
51.912868
 30
0.0
  0
SPLINE
  5
36d
100
AcDbEntity
  8
Layer_1
 62
7
100
AcDbSpline
 70
8
 71
3
 72
8
 73
4
 74
0
 40
0
 40
0
 40
0
 40
0
 40
1
 40
1
 40
1
 40
1
 10
87.034744
 20
51.912868
 30
0.0
 10
87.036560
 20
51.829226
 30
0.0
 10
87.050421
 20
51.747400
 30
0.0
 10
87.113033
 20
51.650662
 30
0.0
  0
LWPOLYLINE
  5
36e
100
AcDbEntity
  8
Layer_1
 62
7
100
AcDbPolyline
 90
3
 70
0
 10
87.555809
 20
53.224852
 30
0.0
 10
87.555618
 20
53.224947
 30
0.0
 10
87.076708
 20
52.107490
 30
0.0
  0
SPLINE
  5
36f
100
AcDbEntity
  8
Layer_1
 62
7
100
AcDbSpline
 70
8
 71
3
 72
8
 73
4
 74
0
 40
0
 40
0
 40
0
 40
0
 40
1
 40
1
 40
1
 40
1
 10
85.888132
 20
50.463042
 30
0.0
 10
85.789578
 20
50.527279
 30
0.0
 10
85.708612
 20
50.540757
 30
0.0
 10
85.622963
 20
50.542669
 30
0.0
  0
SPLINE
  5
370
100
AcDbEntity
  8
Layer_1
 62
7
100
AcDbSpline
 70
8
 71
3
 72
8
 73
4
 74
0
 40
0
 40
0
 40
0
 40
0
 40
1
 40
1
 40
1
 40
1
 10
85.622963
 20
50.542669
 30
0.0
 10
85.566947
 20
50.542191
 30
0.0
 10
85.507680
 20
50.535021
 30
0.0
 10
85.438855
 20
50.505484
 30
0.0
  0
LWPOLYLINE
  5
371
100
AcDbEntity
  8
Layer_1
 62
7
100
AcDbPolyline
 90
4
 70
0
 10
87.113033
 20
51.650662
 30
0.0
 10
87.907966
 20
50.492388
 30
0.0
 10
87.068487
 20
49.652909
 30
0.0
 10
85.888132
 20
50.463042
 30
0.0
  0
SPLINE
  5
372
100
AcDbEntity
  8
Layer_1
 62
7
100
AcDbSpline
 70
8
 71
3
 72
8
 73
4
 74
0
 40
0
 40
0
 40
0
 40
0
 40
1
 40
1
 40
1
 40
1
 10
84.353517
 20
50.061273
 30
0.0
 10
84.269493
 20
50.028199
 30
0.0
 10
84.216535
 20
49.982315
 30
0.0
 10
84.171225
 20
49.932035
 30
0.0
  0
SPLINE
  5
373
100
AcDbEntity
  8
Layer_1
 62
7
100
AcDbSpline
 70
8
 71
3
 72
8
 73
4
 74
0
 40
0
 40
0
 40
0
 40
0
 40
1
 40
1
 40
1
 40
1
 10
84.171225
 20
49.932035
 30
0.0
 10
84.124003
 20
49.876018
 30
0.0
 10
84.083760
 20
49.812737
 30
0.0
 10
84.063590
 20
49.714470
 30
0.0
  0
LWPOLYLINE
  5
374
100
AcDbEntity
  8
Layer_1
 62
7
100
AcDbPolyline
 90
2
 70
0
 10
85.438855
 20
50.505484
 30
0.0
 10
84.353517
 20
50.061273
 30
0.0
  0
SPLINE
  5
375
100
AcDbEntity
  8
Layer_1
 62
7
100
AcDbSpline
 70
8
 71
3
 72
8
 73
4
 74
0
 40
0
 40
0
 40
0
 40
0
 40
1
 40
1
 40
1
 40
1
 10
82.350220
 20
49.713132
 30
0.0
 10
82.329573
 20
49.813215
 30
0.0
 10
82.289329
 20
49.876305
 30
0.0
 10
82.242202
 20
49.932130
 30
0.0
  0
SPLINE
  5
376
100
AcDbEntity
  8
Layer_1
 62
7
100
AcDbSpline
 70
8
 71
3
 72
8
 73
4
 74
0
 40
0
 40
0
 40
0
 40
0
 40
1
 40
1
 40
1
 40
1
 10
82.242202
 20
49.932130
 30
0.0
 10
82.196510
 20
49.982793
 30
0.0
 10
82.143553
 20
50.028677
 30
0.0
 10
82.058764
 20
50.061847
 30
0.0
  0
LWPOLYLINE
  5
377
100
AcDbEntity
  8
Layer_1
 62
7
100
AcDbPolyline
 90
4
 70
0
 10
84.063590
 20
49.714470
 30
0.0
 10
83.800333
 20
48.299343
 30
0.0
 10
82.613286
 20
48.299343
 30
0.0
 10
82.350220
 20
49.713132
 30
0.0
  0
SPLINE
  5
378
100
AcDbEntity
  8
Layer_1
 62
7
100
AcDbSpline
 70
8
 71
3
 72
8
 73
4
 74
0
 40
0
 40
0
 40
0
 40
0
 40
1
 40
1
 40
1
 40
1
 10
80.973234
 20
50.506249
 30
0.0
 10
80.905174
 20
50.535213
 30
0.0
 10
80.847246
 20
50.542286
 30
0.0
 10
80.790847
 20
50.543051
 30
0.0
  0
SPLINE
  5
379
100
AcDbEntity
  8
Layer_1
 62
7
100
AcDbSpline
 70
8
 71
3
 72
8
 73
4
 74
0
 40
0
 40
0
 40
0
 40
0
 40
1
 40
1
 40
1
 40
1
 10
80.790847
 20
50.543051
 30
0.0
 10
80.705962
 20
50.540852
 30
0.0
 10
80.624137
 20
50.527565
 30
0.0
 10
80.525678
 20
50.463424
 30
0.0
  0
LWPOLYLINE
  5
37a
100
AcDbEntity
  8
Layer_1
 62
7
100
AcDbPolyline
 90
2
 70
0
 10
82.058764
 20
50.061847
 30
0.0
 10
80.973234
 20
50.506249
 30
0.0
  0
SPLINE
  5
37b
100
AcDbEntity
  8
Layer_1
 62
7
100
AcDbSpline
 70
8
 71
3
 72
8
 73
4
 74
0
 40
0
 40
0
 40
0
 40
0
 40
1
 40
1
 40
1
 40
1
 10
79.299439
 20
51.649515
 30
0.0
 10
79.363294
 20
51.744819
 30
0.0
 10
79.377250
 20
51.828843
 30
0.0
 10
79.379162
 20
51.913059
 30
0.0
  0
SPLINE
  5
37c
100
AcDbEntity
  8
Layer_1
 62
7
100
AcDbSpline
 70
8
 71
3
 72
8
 73
4
 74
0
 40
0
 40
0
 40
0
 40
0
 40
1
 40
1
 40
1
 40
1
 10
79.379162
 20
51.913059
 30
0.0
 10
79.378588
 20
51.972803
 30
0.0
 10
79.369794
 20
52.033790
 30
0.0
 10
79.339683
 20
52.101373
 30
0.0
  0
LWPOLYLINE
  5
37d
100
AcDbEntity
  8
Layer_1
 62
7
100
AcDbPolyline
 90
4
 70
0
 10
80.525678
 20
50.463424
 30
0.0
 10
79.344940
 20
49.653005
 30
0.0
 10
78.505557
 20
50.492579
 30
0.0
 10
79.299439
 20
51.649515
 30
0.0
  0
SPLINE
  5
37e
100
AcDbEntity
  8
Layer_1
 62
7
100
AcDbSpline
 70
8
 71
3
 72
8
 73
4
 74
0
 40
0
 40
0
 40
0
 40
0
 40
1
 40
1
 40
1
 40
1
 10
78.858001
 20
53.225138
 30
0.0
 10
78.824162
 20
53.306390
 30
0.0
 10
78.778947
 20
53.357340
 30
0.0
 10
78.729049
 20
53.401599
 30
0.0
  0
SPLINE
  5
37f
100
AcDbEntity
  8
Layer_1
 62
7
100
AcDbSpline
 70
8
 71
3
 72
8
 73
4
 74
0
 40
0
 40
0
 40
0
 40
0
 40
1
 40
1
 40
1
 40
1
 10
78.729049
 20
53.401599
 30
0.0
 10
78.673319
 20
53.447960
 30
0.0
 10
78.610707
 20
53.487822
 30
0.0
 10
78.511866
 20
53.507800
 30
0.0
  0
LWPOLYLINE
  5
380
100
AcDbEntity
  8
Layer_1
 62
7
100
AcDbPolyline
 90
3
 70
0
 10
79.339683
 20
52.101373
 30
0.0
 10
78.858096
 20
53.225138
 30
0.0
 10
78.858001
 20
53.225138
 30
0.0
  0
LWPOLYLINE
  5
381
100
AcDbEntity
  8
Layer_1
 62
7
100
AcDbPolyline
 90
4
 70
0
 10
78.511866
 20
53.507800
 30
0.0
 10
77.151800
 20
53.760734
 30
0.0
 10
77.151800
 20
54.947780
 30
0.0
 10
77.151800
 20
54.947780
 30
0.0
  0
ENDSEC
  0
SECTION
  2
OBJECTS
  0
DICTIONARY
  5
C
330
0
100
AcDbDictionary
  3
ACAD_GROUP
350
D
  3
ACAD_MLINESTYLE
350
17
  0
DICTIONARY
  5
D
330
C
100
AcDbDictionary
  0
DICTIONARY
  5
1A
330
C
100
AcDbDictionary
  0
DICTIONARY
  5
17
330
C
100
AcDbDictionary
  3
STANDARD
350
18
  0
DICTIONARY
  5
19
330
C
100
AcDbDictionary
  0
ENDSEC
  0
EOF
